<svg xmlns="http://www.w3.org/2000/svg" xmlns:xlink="http://www.w3.org/1999/xlink" width="280" height="209" viewBox="0 0 280 209"><defs><style>.a,.k{fill:#fff;}.a{stroke:#707070;}.b{clip-path:url(#a);}.c{fill:#f0f0f0;}.d{opacity:0.2;}.e{fill:none;stroke:#535461;stroke-miterlimit:10;stroke-width:1.041px;}.f,.g{fill:#4c4d59;}.g{opacity:0.25;}.h{fill:#535461;}.i{fill:#c2341c;}.j{fill:#eaeaf3;}</style><clipPath id="a"><rect class="a" width="280" height="209"/></clipPath></defs><g class="b"><g transform="translate(4.797 0)"><path class="c" d="M32.936,247.669c4.279,19.195,13.337,35.787,27.652,43.83,29.749,16.714,96.841,8.094,146.915-1.811a113.518,113.518,0,0,0,65.2-39.122Z" transform="translate(-30.013 -136.44)"/><path class="c" d="M303.2,44.834H275.727a2.5,2.5,0,0,1,0-4.985h4.75a2.5,2.5,0,0,1,0-4.985h-3.391a2.5,2.5,0,0,1,0-4.985h14.34a36.569,36.569,0,0,0-11.185-3.236c-39.1-5.272-53.061-1.785-57.985,1.811a53.492,53.492,0,0,1-20.1,9.246c-24.125,5.223-69.241,11.509-110.134-2.013C71.7,28.961,56.594,40.323,47.541,59.3h260.43a46.4,46.4,0,0,0-3.226-15.066A2.3,2.3,0,0,1,303.2,44.834Z" transform="translate(-37.699 -23.95)"/><path class="c" d="M27.356,167.1a133.256,133.256,0,0,0,1.065,33.487l241.217,9.259a119.714,119.714,0,0,0,16.76-26.826Zm95.4,23.89h-4.75a2.5,2.5,0,0,1,0,4.985H90.537a2.5,2.5,0,0,1,0-4.985h4.75a2.5,2.5,0,0,1,0-4.985H91.9a2.5,2.5,0,0,1,0-4.985h27.474a2.5,2.5,0,0,1,0,4.985h3.391a2.5,2.5,0,0,1,0,4.985Z" transform="translate(-26.765 -95.928)"/><path class="c" d="M297.75,95.394,34.4,102.12a114.993,114.993,0,0,0-6.3,28.541H293.136a123.122,123.122,0,0,0,3.828-18.194A90.44,90.44,0,0,0,297.75,95.394ZM81.562,117.424h-4.75a2.5,2.5,0,0,1,0,4.985H49.338a2.5,2.5,0,0,1,0-4.985h4.75a2.5,2.5,0,0,1,0-4.985H50.7a2.5,2.5,0,0,1,0-4.985H78.17a2.5,2.5,0,0,1,0,4.985h3.391a2.5,2.5,0,0,1,0,4.985Z" transform="translate(-27.466 -59.874)"/><g class="d" transform="translate(165.351 104.477)"><path class="e" d="M379.308,301.737s6.951-17.979,19.93-24.648a28.683,28.683,0,0,0,12.72-12.947,50.912,50.912,0,0,0,3.187-8.407" transform="translate(-377.66 -244.973)"/><path class="f" d="M462.9,240.6c-1.353,1.785-8.355,4.4-8.355,4.4s.843-7.761,2.2-9.533a3.812,3.812,0,0,1,5.386-.471,4.28,4.28,0,0,1,.776,5.614Z" transform="translate(-417.255 -234.089)"/><path class="f" d="M456.788,267.555c-2.061.727-9.287-1.081-9.287-1.081s4.72-6.022,6.78-6.749a3.914,3.914,0,0,1,4.749,2.682A4.2,4.2,0,0,1,456.788,267.555Z" transform="translate(-413.55 -246.909)"/><path class="f" d="M431.272,300.992c-2.127-.463-7.5-5.854-7.5-5.854s6.97-2.7,9.1-2.235a4.156,4.156,0,0,1,2.8,4.83,3.965,3.965,0,0,1-4.4,3.257Z" transform="translate(-401.062 -263.635)"/><path class="f" d="M403.808,321.627c-2.171-.08-8.333-4.439-8.333-4.439s6.438-3.888,8.609-3.816a3.91,3.91,0,0,1,3.564,2.114,4.315,4.315,0,0,1-.144,4.294A3.88,3.88,0,0,1,403.808,321.627Z" transform="translate(-386.168 -273.953)"/><path class="f" d="M433.287,258.829c.279,2.264,4.984,8.3,4.984,8.3s3.1-7.088,2.822-9.352a3.969,3.969,0,0,0-4.374-3.309A4.091,4.091,0,0,0,433.287,258.829Z" transform="translate(-406.065 -244.317)"/><path class="f" d="M402.037,281.759c.909,2.07,7.121,6.351,7.121,6.351s.937-7.737.027-9.807a3.979,3.979,0,0,0-3.235-2.625,3.876,3.876,0,0,0-3.714,1.8,4.314,4.314,0,0,0-.2,4.287Z" transform="translate(-389.372 -254.987)"/><path class="f" d="M375.9,311c.562,2.2,6,7.523,6,7.523s2.169-7.458,1.6-9.662a3.912,3.912,0,0,0-4.754-2.663A4.152,4.152,0,0,0,375.9,311Z" transform="translate(-375.829 -270.276)"/><path class="g" d="M462.9,240.6c-1.353,1.785-8.355,4.4-8.355,4.4s.843-7.761,2.2-9.533a3.812,3.812,0,0,1,5.386-.471,4.28,4.28,0,0,1,.776,5.614Z" transform="translate(-417.255 -234.089)"/><path class="g" d="M456.788,267.555c-2.061.727-9.287-1.081-9.287-1.081s4.72-6.022,6.78-6.749a3.914,3.914,0,0,1,4.749,2.682A4.2,4.2,0,0,1,456.788,267.555Z" transform="translate(-413.55 -246.909)"/><path class="g" d="M431.272,300.992c-2.127-.463-7.5-5.854-7.5-5.854s6.97-2.7,9.1-2.235a4.156,4.156,0,0,1,2.8,4.83,3.965,3.965,0,0,1-4.4,3.257Z" transform="translate(-401.062 -263.635)"/><path class="g" d="M403.808,321.627c-2.171-.08-8.333-4.439-8.333-4.439s6.438-3.888,8.609-3.816a3.91,3.91,0,0,1,3.564,2.114,4.315,4.315,0,0,1-.144,4.294A3.88,3.88,0,0,1,403.808,321.627Z" transform="translate(-386.168 -273.953)"/><path class="g" d="M433.287,258.829c.279,2.264,4.984,8.3,4.984,8.3s3.1-7.088,2.822-9.352a3.969,3.969,0,0,0-4.374-3.309A4.091,4.091,0,0,0,433.287,258.829Z" transform="translate(-406.065 -244.317)"/><path class="g" d="M402.037,281.759c.909,2.07,7.121,6.351,7.121,6.351s.937-7.737.027-9.807a3.979,3.979,0,0,0-3.235-2.625,3.876,3.876,0,0,0-3.714,1.8,4.314,4.314,0,0,0-.2,4.287Z" transform="translate(-389.372 -254.987)"/><path class="g" d="M375.9,311c.562,2.2,6,7.523,6,7.523s2.169-7.458,1.6-9.662a3.912,3.912,0,0,0-4.754-2.663A4.152,4.152,0,0,0,375.9,311Z" transform="translate(-375.829 -270.276)"/></g><g class="d" transform="translate(154.988 66.464)"><path class="e" d="M368.9,238.882s.877-19.381,11.015-30.192a29.969,29.969,0,0,0,7.887-16.647,51.87,51.87,0,0,0,.352-9.033" transform="translate(-361.82 -170.393)"/><path class="f" d="M414.557,163.4c-.712,2.155-6.495,7.052-6.495,7.052s-1.651-7.6-.939-9.758a4.032,4.032,0,0,1,2.973-2.965,3.84,3.84,0,0,1,3.875,1.41,4.3,4.3,0,0,1,.586,4.26Z" transform="translate(-381.842 -157.632)"/><path class="f" d="M417.519,190.073c-1.725,1.4-9.1,2.214-9.1,2.214s2.551-7.326,4.264-8.728a3.8,3.8,0,0,1,4.022-.776,4.111,4.111,0,0,1,2.515,3.384,4.222,4.222,0,0,1-1.7,3.905Z" transform="translate(-382.615 -170.143)"/><path class="f" d="M402.919,230.212c-2.154.3-8.922-2.913-8.922-2.913s5.726-4.972,7.887-5.275a3.845,3.845,0,0,1,3.846,1.461,4.306,4.306,0,0,1,.543,4.255,3.957,3.957,0,0,1-3.344,2.472Z" transform="translate(-375.027 -189.969)"/><path class="f" d="M384.385,258.847c-2.075.68-9.265-1.293-9.265-1.293s4.841-5.916,6.916-6.6a3.922,3.922,0,0,1,4.7,2.786,4.2,4.2,0,0,1-2.35,5.1Z" transform="translate(-365.092 -204.498)"/><path class="f" d="M391.294,191.486c.986,2.038,7.325,6.092,7.325,6.092s.683-7.761-.293-9.8a3.846,3.846,0,0,0-5.176-1.607A4.231,4.231,0,0,0,391.294,191.486Z" transform="translate(-373.438 -171.758)"/><path class="f" d="M369.782,223.867c1.513,1.638,8.725,3.513,8.725,3.513s-1.56-7.624-3.074-9.261a3.809,3.809,0,0,0-5.4.09,4.289,4.289,0,0,0-.253,5.66Z" transform="translate(-361.785 -187.505)"/><path class="f" d="M354.48,259.766c1.232,1.883,8.035,5.011,8.035,5.011s-.311-7.792-1.538-9.675a3.818,3.818,0,0,0-5.306-.835,4.266,4.266,0,0,0-1.188,5.491Z" transform="translate(-353.951 -205.859)"/></g><path class="c" d="M182.729,417c9.691,3.42,21.515,1.34,32.51,1.581a10.728,10.728,0,0,1,4.306.722,9.978,9.978,0,0,1,2.63,2.367c3.081,3.05,9.393,4.03,14.912,3.513s10.579-2.23,15.774-3.534c9-2.256,19.291-3.28,28.169-.823a7.018,7.018,0,0,0,2.546.4c1.947-.2,2.526-1.837,3.887-2.771,2.465-1.687,7.8-1.229,8.873-3.451.633-1.293-.823-2.639-2.408-3.529-6.068-3.4-14.749-3.966-22.69-3.441s-15.75,1.974-23.733,1.979c-9.945,0-19.555-2.222-29.4-3.133-6.822-.631-14.268-.554-20.664,1.293C190.522,410.194,188.994,414.706,182.729,417Z" transform="translate(-108.849 -216.314)"/><rect class="h" width="1.725" height="25.61" transform="translate(90.09 47.837)"/><rect class="h" width="1.725" height="14.487" transform="translate(90.09 82.243)"/><rect class="h" width="77.639" height="176.944" rx="24.507" transform="translate(91.323 22.744)"/><rect class="i" width="77.639" height="161.164" rx="24.507" transform="translate(91.323 31.022)"/><rect class="j" width="12.817" height="1.811" rx="0.905" transform="translate(123.857 26.624)"/><ellipse class="j" cx="1.232" cy="1.293" rx="1.232" ry="1.293" transform="translate(139.878 26.366)"/><path class="k" d="M249.042,201.608v18.884a4.585,4.585,0,0,1-1.235,3.2,4.157,4.157,0,0,1-3.036,1.32,4.741,4.741,0,0,1-4.683-4.517V201.608a4.73,4.73,0,0,1,4.683-4.483A4.4,4.4,0,0,1,249.042,201.608Zm1.678,25.595a4.938,4.938,0,0,0,1.343,3.415,4.479,4.479,0,0,0,3.253,1.41h3.091l.047,9.962a4.292,4.292,0,1,0,8.575,0v-9.96h5.777v9.962a4.317,4.317,0,1,0,8.626,0V232.03h3.138a4.7,4.7,0,0,0,4.567-4.825V197.948H250.721Zm38.521-30.828h-38.7a18.394,18.394,0,0,1,9.879-16.2l-2.958-5.756a.605.605,0,1,1,1.04-.618l3.014,5.8a20.079,20.079,0,0,1,16.822,0l3-5.787a.606.606,0,1,1,1.04.618l-2.958,5.738A18.462,18.462,0,0,1,289.242,196.375Zm-26.515-9.054a1.7,1.7,0,1,0,0,.005Zm17.615,0a1.609,1.609,0,1,0-1.585,1.713,1.666,1.666,0,0,0,1.585-1.707Zm14.724,9.8a4.159,4.159,0,0,0-3.024,1.309,4.586,4.586,0,0,0-1.247,3.174v18.884A4.4,4.4,0,0,0,295.066,225a4.729,4.729,0,0,0,4.683-4.517V201.6a4.706,4.706,0,0,0-4.683-4.478Z" transform="translate(-139.037 -99.136)"/><rect class="h" width="16.021" height="0.776" transform="translate(111.903 147.319)"/><rect class="h" width="10.598" height="0.776" transform="translate(133.839 147.319)"/><rect class="h" width="10.598" height="0.776" transform="translate(97.854 147.319)"/><rect class="h" width="10.598" height="0.776" transform="translate(150.599 147.319)"/></g></g></svg>