<svg xmlns="http://www.w3.org/2000/svg" width="106.5" height="104.089" viewBox="0 0 106.5 104.089"><defs><style>.a{fill:#c2341c;}</style></defs><path class="a" d="M35.183,58.55H25.674a2.678,2.678,0,0,1-2.853-2.44V47.978a2.678,2.678,0,0,1,2.853-2.44h9.509a2.678,2.678,0,0,1,2.853,2.44V56.11A2.678,2.678,0,0,1,35.183,58.55Zm25.674-2.44V47.978A2.678,2.678,0,0,0,58,45.539H48.5a2.678,2.678,0,0,0-2.853,2.44V56.11A2.678,2.678,0,0,0,48.5,58.55H58A2.678,2.678,0,0,0,60.857,56.11Zm22.821,0V47.978a2.678,2.678,0,0,0-2.853-2.44H71.317a2.678,2.678,0,0,0-2.853,2.44V56.11a2.678,2.678,0,0,0,2.853,2.44h9.509A2.678,2.678,0,0,0,83.679,56.11ZM60.857,75.627V67.5A2.678,2.678,0,0,0,58,65.056H48.5a2.678,2.678,0,0,0-2.853,2.44v8.132a2.678,2.678,0,0,0,2.853,2.44H58A2.678,2.678,0,0,0,60.857,75.627Zm-22.821,0V67.5a2.678,2.678,0,0,0-2.853-2.44H25.674a2.678,2.678,0,0,0-2.853,2.44v8.132a2.678,2.678,0,0,0,2.853,2.44h9.509A2.678,2.678,0,0,0,38.036,75.627Zm45.643,0V67.5a2.678,2.678,0,0,0-2.853-2.44H71.317a2.678,2.678,0,0,0-2.853,2.44v8.132a2.678,2.678,0,0,0,2.853,2.44h9.509A2.678,2.678,0,0,0,83.679,75.627ZM106.5,22.769V94.331c0,5.387-5.111,9.758-11.411,9.758H11.411C5.111,104.089,0,99.718,0,94.331V22.769c0-5.387,5.111-9.758,11.411-9.758H22.821V2.44A2.678,2.678,0,0,1,25.674,0h9.509a2.678,2.678,0,0,1,2.853,2.44V13.011H68.464V2.44A2.678,2.678,0,0,1,71.317,0h9.509a2.678,2.678,0,0,1,2.853,2.44V13.011H95.089C101.389,13.011,106.5,17.382,106.5,22.769ZM95.089,93.111V32.528H11.411V93.111a1.339,1.339,0,0,0,1.426,1.22H93.663A1.339,1.339,0,0,0,95.089,93.111Z"/></svg>