<svg xmlns="http://www.w3.org/2000/svg" width="75" height="92" viewBox="0 0 75 92"><defs><style>.a{fill:#c2341c;}</style></defs><path class="a" d="M75,25.875C75,17.933,68.008,11.5,59.375,11.5S43.75,17.933,43.75,25.875c0,6.541,4.746,12.057,11.23,13.8-.117,2.893-.82,5.121-2.148,6.63-3.008,3.45-9.629,4.025-16.641,4.618-5.508.467-11.211.97-15.879,3.037V28.085c6.348-1.833,10.938-7.277,10.938-13.71C31.25,6.433,24.258,0,15.625,0S0,6.433,0,14.375c0,6.433,4.59,11.877,10.938,13.71V63.9C4.59,65.748,0,71.192,0,77.625,0,85.567,6.992,92,15.625,92S31.25,85.567,31.25,77.625a14.437,14.437,0,0,0-10-13.4,6.7,6.7,0,0,1,2.91-2.408c3.164-1.473,7.891-1.869,12.91-2.3,8.242-.7,17.578-1.509,23.086-7.8,2.734-3.127,4.121-7.152,4.219-12.2C70.547,37.573,75,32.2,75,25.875ZM15.625,11.5a3.017,3.017,0,0,1,3.125,2.875,3.017,3.017,0,0,1-3.125,2.875A3.017,3.017,0,0,1,12.5,14.375,3.017,3.017,0,0,1,15.625,11.5Zm0,69a2.885,2.885,0,1,1,0-5.75,2.885,2.885,0,1,1,0,5.75ZM59.375,23A3.017,3.017,0,0,1,62.5,25.875a3.136,3.136,0,0,1-6.25,0A3.017,3.017,0,0,1,59.375,23Z"/></svg>