<svg xmlns="http://www.w3.org/2000/svg" xmlns:xlink="http://www.w3.org/1999/xlink" width="280" height="170.944" viewBox="0 0 280 170.944"><defs><style>.a{fill:#f0f0f0;}.b,.g{opacity:0.1;}.c{fill:#707070;}.d{fill:#3f3d56;}.e{fill:#65617d;}.f{opacity:0.2;}.h{fill:#c2341c;}.i{fill:#d4dfec;}.j{fill:#fbbebe;}.k{fill:url(#a);}.l{fill:none;stroke:#484848;stroke-miterlimit:10;stroke-width:2px;}.m{fill:#fff;}</style><linearGradient id="a" x1="0.5" y1="1" x2="0.5" y2="-0.001" gradientUnits="objectBoundingBox"><stop offset="0" stop-color="gray" stop-opacity="0.251"/><stop offset="0.54" stop-color="gray" stop-opacity="0.122"/><stop offset="1" stop-color="gray" stop-opacity="0.102"/></linearGradient></defs><path class="a" d="M337.89,308.115q-.468,1.157-.933,2.283-.726,1.749-1.433,3.43c-.21.5-.419.984-.624,1.471-2.313,5.42-4.472,10.214-6.306,14.156-3.389,7.276-9.968,11.853-17.159,11.938l-40.779.509h-.43l-3.5.043-2.99.037-9.169.114H254.2l-4.668.059h-.143l-28.772.358-25.683.309-2.987.037-18.554.231h-.022l-12.033.148h-.129l-38.049.472-11.383.142a20.877,20.877,0,0,1-7.172-1.178,23.1,23.1,0,0,1-10.511-7.635A64.24,64.24,0,0,1,83.25,313.828q-.519-1.694-.968-3.43C74,278.269,84.1,236.818,102.274,209.079q1.143-1.74,2.323-3.393l.019-.025a79.124,79.124,0,0,1,18.535-19.126c11.832-8.3,24.941-10.64,37.834-3.671a76.207,76.207,0,0,0,30.969,9.424c1,.074,2,.13,2.987.164,22.65.817,43.877-8.545,68.8-14.588.992-.241,1.987-.478,2.99-.7,17.782-4.06,37.509-6.2,60.968-1.7a45.48,45.48,0,0,1,7.2,1.974q1.552.574,2.99,1.234c11.2,5.226,17.3,14.881,19.9,26.98q.368,1.684.637,3.427C363.027,238.179,349.553,279.46,337.89,308.115Z" transform="translate(-79.351 -172.945)"/><g class="b" transform="translate(2.93 4.206)"><path class="c" d="M191.794,217V374.21l-11.383.142a20.877,20.877,0,0,1-7.172-1.178V236.126h.019A78.788,78.788,0,0,1,191.794,217Z" transform="translate(-150.924 -207.616)"/><path class="c" d="M420.766,282.418H164.6q1.143-1.74,2.323-3.393V279h253.2Q420.5,280.675,420.766,282.418Z" transform="translate(-144.607 -250.49)"/><path class="c" d="M1032.69,188.716V320.439h-.933q-.726,1.749-1.433,3.43c-.21.5-.42.984-.624,1.471V187.47Q1031.252,188.044,1032.69,188.716Z" transform="translate(-777.081 -187.195)"/><path class="c" d="M768.08,186.58V351.388l-2.99.037V187.283C766.082,187.043,767.077,186.805,768.08,186.58Z" transform="translate(-583.625 -186.58)"/><path class="c" d="M501.1,235.783V386.195l-2.987.037V235.62C499.108,235.694,500.105,235.737,501.1,235.783Z" transform="translate(-388.436 -220.492)"/><path class="c" d="M344.926,618.52q-.726,1.749-1.433,3.43H91.218q-.519-1.694-.968-3.43Z" transform="translate(-90.25 -485.273)"/></g><rect class="d" width="5.109" height="17.787" transform="translate(56.896 81.994)"/><rect class="d" width="5.109" height="18.818" transform="translate(194.393 81.068)"/><path class="e" d="M309.658,513.942v4.01l-40.851.432-.436.009-15.526.164-.371.006-4.719.046h-.14l-28.767.305-47.222.5h-.04l-12.006.13-.129,0-53.35.561v-4.627l12.544-8.638,25.169-.241.538,0,.177,0,.538-.009,12.084-.114.54,0,.172,0,.538,0,3.875-.037.1,0,9.559-.093h.078l74.593-.722,1.826-.015h.183l1.393-.015,10.124-.1.538-.009.5-.006h.258l3.149-.028.624-.009.836-.006,2.622-.028,4.16-.04.538-.006.936-.006h.175l20.09-.2Z" transform="translate(-77.572 -349.33)"/><path class="f" d="M309.658,513.942v4.01l-40.851.432-.436.009-15.526.164-.371.006-4.719.046h-.14l-28.767.305-47.222.5h-.04l-12.006.13-.129,0-53.35.561v-4.627l12.544-8.638,25.169-.241.538,0,.177,0,.538-.009,12.084-.114.54,0,.172,0,.538,0,3.875-.037.1,0,9.559-.093h.078l74.593-.722,1.826-.015h.183l1.393-.015,10.124-.1.538-.009.5-.006h.258l3.149-.028.624-.009.836-.006,2.622-.028,4.16-.04.538-.006.936-.006h.175l20.09-.2Z" transform="translate(-77.572 -349.33)"/><path class="d" d="M340.954,656.57v7.555a1.93,1.93,0,0,1-.941,1.709,1.447,1.447,0,0,1-.672.185l-9.385.228a1.439,1.439,0,0,1-.726-.176,1.922,1.922,0,0,1-.96-1.718V656.57Z" transform="translate(-261.336 -507.379)"/><path class="g" d="M340.954,656.57v7.555a1.93,1.93,0,0,1-.941,1.709,1.447,1.447,0,0,1-.672.185l-9.385.228a1.439,1.439,0,0,1-.726-.176,1.922,1.922,0,0,1-.96-1.718V656.57Z" transform="translate(-261.336 -507.379)"/><path class="d" d="M342.954,656.57v7.555a1.93,1.93,0,0,1-.941,1.709,1.447,1.447,0,0,1-.672.185l-9.385.228a1.439,1.439,0,0,1-.726-.176,1.922,1.922,0,0,1-.96-1.718V656.57Z" transform="translate(-262.798 -507.379)"/><rect class="d" width="12.684" height="9.717" transform="translate(183.099 149.191)"/><rect class="g" width="12.684" height="9.717" transform="translate(183.099 149.191)"/><rect class="d" width="12.684" height="9.717" transform="translate(182.562 149.191)"/><path class="g" d="M216.709,265.82v1.768l-5.109-.151V265.82Z" transform="translate(-154.704 -183.83)"/><path class="e" d="M275.863,265.34l-6.139,50.592a1.216,1.216,0,0,1-1.175,1.144l-49.155-1.462-.933-.028a1.105,1.105,0,0,1-.852-.465,1.464,1.464,0,0,1-.267-1.038l6.892-52.961a1.2,1.2,0,0,1,1.221-1.12l49.333,3.831a1.112,1.112,0,0,1,.825.482A1.465,1.465,0,0,1,275.863,265.34Z" transform="translate(-180.229 -233.145)"/><path class="h" d="M161.8,99.16l-5.2,46.683,45.175,1.644,5.555-45.039Z" transform="translate(-114.493 -68.582)"/><rect class="e" width="55.036" height="53.47" rx="5.33" transform="translate(103.416 29.856)"/><rect class="h" width="50.016" height="44.524" transform="translate(106.014 33.457)"/><path class="g" d="M728.039,262.82v1.169l-5.109.12V262.82Z" transform="translate(-528.537 -181.755)"/><path class="e" d="M753.883,311.076a1.039,1.039,0,0,1-.215.7.787.787,0,0,1-.591.309l-50.338,1.194a.879.879,0,0,1-.842-.861l-4.327-51.6a1.045,1.045,0,0,1,.2-.713.793.793,0,0,1,.587-.327l49.956-2.85.538-.031a.872.872,0,0,1,.866.864Z" transform="translate(-531.328 -230.999)"/><path class="h" d="M628.93,97.393l45.624-2.573,3.853,46.89-45.264,1.234Z" transform="translate(-459.813 -65.581)"/><path class="g" d="M891.852,311.076a1.039,1.039,0,0,1-.215.7.787.787,0,0,1-.591.309l-4.765-55.16.538-.031a.872.872,0,0,1,.866.864Z" transform="translate(-669.297 -230.999)"/><path class="g" d="M225.463,259.992l-6.069,55.614-.933-.028a1.105,1.105,0,0,1-.852-.465,1.464,1.464,0,0,1-.267-1.038l6.892-52.961A1.2,1.2,0,0,1,225.463,259.992Z" transform="translate(-180.229 -233.137)"/><rect class="g" width="5.109" height="5.269" transform="translate(56.896 94.512)"/><path class="g" d="M263.614,483.65v1.533l-12.684.389V483.65Z" transform="translate(-183.458 -334.462)"/><path class="e" d="M314.836,482.538v51.887a1.168,1.168,0,0,1-1.035,1.219l-51.535,1.573h-.013A1.163,1.163,0,0,1,261.19,536v-53.46a1.163,1.163,0,0,1,1.062-1.219h51.521A1.163,1.163,0,0,1,314.836,482.538Z" transform="translate(-212.294 -386.191)"/><path class="g" d="M262.266,481.32v55.9h-.013A1.163,1.163,0,0,1,261.19,536v-53.46a1.163,1.163,0,0,1,1.062-1.219Z" transform="translate(-212.294 -386.191)"/><path class="i" d="M194.6,319.15h47.73v45.733l-47.73,1.234Z" transform="translate(-142.275 -220.708)"/><rect class="g" width="5.109" height="5.374" transform="translate(194.393 94.512)"/><path class="g" d="M691.614,483.65v1.977l-12.684-.389V483.65Z" transform="translate(-496.368 -334.462)"/><path class="e" d="M721.806,482.538V536a1.161,1.161,0,0,1-1.076,1.219h0l-51.546-1.573a1.168,1.168,0,0,1-1.035-1.219V482.538a1.163,1.163,0,0,1,1.062-1.219h51.521A1.161,1.161,0,0,1,721.806,482.538Z" transform="translate(-509.821 -386.191)"/><path class="g" d="M864.766,482.539V536a1.161,1.161,0,0,1-1.076,1.219h0v-55.9h0a1.161,1.161,0,0,1,1.076,1.219Z" transform="translate(-652.781 -386.191)"/><path class="i" d="M645.83,319.15H598.1v45.733l47.73,1.234Z" transform="translate(-437.274 -220.708)"/><path class="e" d="M517.336,482.538v51.887a1.168,1.168,0,0,1-1.035,1.219l-51.535,1.573h0A1.161,1.161,0,0,1,463.69,536v-53.46a1.163,1.163,0,0,1,1.062-1.219h51.521A1.163,1.163,0,0,1,517.336,482.538Z" transform="translate(-360.341 -386.191)"/><path class="i" d="M397.1,319.15h47.73v45.733l-47.73,1.234Z" transform="translate(-290.322 -220.708)"/><path class="g" d="M309.658,533.65v4.01l-40.851.432-.436.009-15.526.163-.371.006-4.719.046h-.14l-28.767.305-47.222.5h-.04l-12.006.13-.129,0-53.35.561v-4.627l54.455-.41h.129l11.022-.086h.051l76.12-.577h.078l.046,0h.126l1.288-.009h.393l20.03-.154,1.183-.006.264,0Z" transform="translate(-77.572 -369.039)"/><ellipse class="j" cx="13.803" cy="15.835" rx="13.803" ry="15.835" transform="translate(117.219 68.112)"/><path class="k" d="M383.74,464.315a.427.427,0,0,1,.027-.108c.269-1.107.748-2.98,1.105-4.476.046-.185.089-.367.129-.54.4-1.687,1.164-5.639,1.592-8.1.151-.867.269-1.542.293-1.882.054-.521.863-2.752,1.78-5.315.643-1.8,1.345-3.77,1.858-5.429a21.082,21.082,0,0,0,.788-3.039,1.8,1.8,0,0,0,0-.657,5.158,5.158,0,0,1-.129-1.08h0a14.315,14.315,0,0,1,1.2-6.2c.941-1.542,1.613-7.3,1.613-7.3a1.363,1.363,0,0,0,1.613-1.089,2.172,2.172,0,0,0,.027-.432,2.618,2.618,0,0,0-.024-.342c-.239-1.925,3.958-3.973,6.319-4.414a4.63,4.63,0,0,1,.807-.086,6.544,6.544,0,0,0,1.681-.444q.376-.133.807-.309c.99-.382,2.173-.888,3.428-1.444,4.722-2.1,10.439-4.936,10.439-4.936.04-.219.086-.429.137-.635a8.3,8.3,0,0,1,4.4-5.84h0V399.6c0-1.064-.04-2.159-.081-3.251,0-.213-.016-.426-.027-.639v-.349c0-.216-.019-.432-.03-.645l-.048-.043a4.864,4.864,0,0,1-1.049-1.3,5.047,5.047,0,0,1-.382-.925,31.88,31.88,0,0,1-.64-3.316l-.048-.228a28.4,28.4,0,0,0-1.076-3.264c-.594-1.672-1.051-3.393-1.506-5.136q-.414-1.583-.836-3.171l-.425-1.616c-.081-.309-.161-.617-.223-.925h0q-.045-.214-.07-.432h0a3.524,3.524,0,0,1,.065-1.422q.157-.473.355-.925a2.671,2.671,0,0,0,.134-.426h0q.013-.049.022-.1a1.99,1.99,0,0,0,.03-.333,6.482,6.482,0,0,0-.14-1.2.025.025,0,0,1,0-.015q0-.042-.013-.083a8.978,8.978,0,0,1-.1-.925,9.853,9.853,0,0,1,.933-4.8l.051-.111a7.958,7.958,0,0,1,.495-.858h0a4.26,4.26,0,0,1,.269-.376.884.884,0,0,1-1.344-.213,1.12,1.12,0,0,1-.148-.231,1.252,1.252,0,0,1-.062-.139c-.013-.037-.024-.077-.035-.117a2.775,2.775,0,0,1,.57-2.175,5.185,5.185,0,0,1,1.543-1.45h0a1,1,0,0,1,.108-.065,4.283,4.283,0,0,1,.71-.327h0a3.646,3.646,0,0,1,.438-.136l-1-.1-.4-.043a4.089,4.089,0,0,1,3.5-3.366h.29a2.76,2.76,0,0,1,.422.04,1.4,1.4,0,0,1-.713-1.336,3.562,3.562,0,0,0,2.471.944h.1q-.07-.5-.091-1.009h0a11.731,11.731,0,0,1,0-1.376,2.1,2.1,0,0,0,1.823.7l-.559-.895a2.338,2.338,0,0,0,1.764.632l.129-.015a1.672,1.672,0,0,0,.32-.071h.024c-.051-.074-.1-.151-.143-.231l-.016-.037a3.193,3.193,0,0,1-.269-.645,2.276,2.276,0,0,1-.065-.268h0a3.071,3.071,0,0,1,.121-1.681c.869.833,1.82,1.971,2.958,1.111s1.175-2.44,2.958-2.28a2.8,2.8,0,0,1,2.261,1.888,1.661,1.661,0,0,1,2.062-.54,2.186,2.186,0,0,1,1.043,2.125,3.265,3.265,0,0,1,2.245-.1,1.584,1.584,0,0,1,.764,2.055.447.447,0,0,1-.038.062c-.331.49-1.062.759-.984,1.376l.113.093.35.29q2.057,1.7,4.007,3.578a3.781,3.781,0,0,1,1.422,2.415,3.045,3.045,0,0,1-.065.731h0c-.043.241-.1.481-.148.722a6.886,6.886,0,0,0-.091,1.866h0c.019.182.043.361.073.543.411,2.385,2.073,4.353,2.237,6.787v.173a6.283,6.283,0,0,1-.019.78,18.453,18.453,0,0,1-1.2,4.319c-.03.086-.059.173-.086.259a48.24,48.24,0,0,0-1.882,8.687q-.2,1.571-.538,3.113a8.794,8.794,0,0,1-1.369,3.217,4.629,4.629,0,0,1-.9.925,4.841,4.841,0,0,1-.713.435v.018c.03.188.054.376.083.565.016.1.03.2.046.308h0a.048.048,0,0,0,0,.018c.226,1.459.484,2.887.756,4.245l.137.676a5.83,5.83,0,0,1,3.813,5.38,3.409,3.409,0,0,1,0,.441s5.109.154,7.126,1.851a5.246,5.246,0,0,0,1.213.71,20.281,20.281,0,0,0,2.487.891c.433.13.885.256,1.345.379.807.213,1.662.42,2.487.617,2.2.509,4.276.925,5.327,1.234,2.509.728,8.247,7.04,8.247,7.04s.672,6.367,1.345,7.3a29.249,29.249,0,0,1,1.882,4.192l4.448,9.073,1.882,3.816h1.21c.167,0,.495.271.863.648.32.327.675.734.987,1.1l.516.632.323.41a2.745,2.745,0,0,1,2.485,1.829,10.707,10.707,0,0,1,4.916.771,3.676,3.676,0,0,1,.538.333,2.683,2.683,0,0,1,1.111,1.746,2.935,2.935,0,0,1,.048.444c0,.176,0,.352,0,.524a9.009,9.009,0,0,1-2.641,5.587l.086.176s-.04.111-.118.309c-.021.059-.048.123-.078.2h0c-.159.389-.411.972-.742,1.653a19.668,19.668,0,0,1-2.573,4.063l-.078.093-15.526.163-.046-.062-3.012-4.121-1.5-2.048-.046-.065-.043.491-.145,1.635-.35,3.952-.019.2v.052l-.04.457.03-.457h-.078l-28.772.309-47.224.6v.259H395.9v-.259l-12.033.148Z" transform="translate(-301.89 -293.987)"/><path class="j" d="M551.674,473.984s-26.756,3.7-24.2,0c.925-1.339,1.18-5.306,1.129-9.825-.016-1.373-.059-2.795-.121-4.211-.3-6.787-1.008-13.419-1.008-13.419s23.394-12.648,20.705-2.622c-1.076,4.05-.723,9.739.094,15.079.239,1.558.516,3.085.807,4.535q1.063,5.3,2.595,10.464Z" transform="translate(-406.847 -357.647)"/><path class="g" d="M551.674,524.971s-26.756,3.7-24.2,0c.925-1.339,1.18-5.306,1.129-9.825,4.079-2,9.269-.509,9.269-.509,5.464-1.249,8.968-1.006,11.208-.13Q550.142,519.812,551.674,524.971Z" transform="translate(-406.847 -408.634)"/><path d="M396.246,580.429v-.259l47.224-.589,28.772-.308h.081l-.03.457.04-.457h.051v-.052l.368-4.149.14-1.57.043-.49.038-.41,1.662-6.358,1.662-6.349,1.4-5.346,2.135-8.169a29.113,29.113,0,0,0-1.882-4.165c-.672-.926-1.345-7.249-1.345-7.249s-5.738-6.272-8.247-6.993c-1.051-.308-3.127-.719-5.332-1.234-.826-.191-1.673-.395-2.487-.617-.46-.12-.912-.247-1.345-.373a21.454,21.454,0,0,1-2.487-.882,5.336,5.336,0,0,1-1.21-.706c-1.976-1.663-6.93-1.851-7.12-1.851h0a.15.15,0,0,1,0-.022v-.028a3.629,3.629,0,0,0,0-.389,2.839,2.839,0,0,0-.024-.432.442.442,0,0,0-.019-.154c-.013-.111-.03-.228-.054-.352q-.012-.083-.032-.163a5.84,5.84,0,0,0-.336-1.077c-.019-.049-.043-.1-.065-.151a5.781,5.781,0,0,0-.457-.811c-.035-.052-.073-.108-.113-.16a5.686,5.686,0,0,0-.731-.814c-.073-.065-.148-.133-.226-.194a1.28,1.28,0,0,0-.137-.111l-.239-.179-.223-.148c-.2-.123-.4-.244-.629-.358-.07-.037-.145-.071-.221-.1l-.293-.13h-.016l-.2-.092c-.153-.059-.309-.111-.473-.164l-.25-.074-.269-.071-.269-.065c-.269-.062-.557-.117-.858-.16l-.307-.043-.315-.037-.325-.031-.463-.031-.538-.022a29.413,29.413,0,0,0-7.059.861,17.03,17.03,0,0,0-4.907-.519h-.234l-.269.018h-.172l-.347.037a2.263,2.263,0,0,0-.35.046c-.116.018-.237.034-.352.055l-.177.034c-.175.034-.352.071-.538.114q-.089.019-.177.046c-.234.059-.468.13-.7.21-.116.037-.231.08-.347.126a1.7,1.7,0,0,0-.172.068l-.172.071-.169.077-.2.093c-.1.049-.2.1-.3.157a1.811,1.811,0,0,0-.167.092c-.054.034-.11.062-.161.1a7.558,7.558,0,0,0-1.67,1.351l-.137.151-.134.157c-.046.052-.089.108-.132.164a7.265,7.265,0,0,0-.489.694c-.043.065-.083.13-.124.2a8.577,8.577,0,0,0-.463.9c-.035.074-.067.151-.1.225a11.048,11.048,0,0,0-.538,1.62q-.075.309-.137.617s-5.693,2.881-10.415,4.967c-1.256.555-2.439,1.058-3.428,1.438-.288.111-.557.213-.807.308a6.412,6.412,0,0,1-1.681.444,4.633,4.633,0,0,0-.807.086c-2.17.4-5.889,2.159-6.295,3.921a1.3,1.3,0,0,0-.027.432v.034c.269,2.159-1.613,1.851-1.613,1.851s-.672,5.707-1.613,7.249a13.574,13.574,0,0,0-1.2,5.457h0a6.915,6.915,0,0,0,.118,1.737v.043a8.587,8.587,0,0,1-.589,2.989c-.476,1.589-1.17,3.563-1.837,5.426-1.006,2.813-1.952,5.368-2.011,5.929-.024.25-.094.7-.191,1.274-.393,2.351-1.264,6.827-1.694,8.638-.32,1.351-.785,3.2-1.105,4.473a.485.485,0,0,1-.027.108l12.055-.136v.259h.038Z" transform="translate(-302.204 -409.994)"/><path class="g" d="M445.44,607.57s15.327,9.1,20.84,8.021Z" transform="translate(-346.999 -473.496)"/><path class="g" d="M561.44,595.57s14.924,5.553,19.9,6.324S561.44,595.57,561.44,595.57Z" transform="translate(-431.806 -465.197)"/><path class="g" d="M544.626,523.9c-7.8,1.647-22.48,1.293-28.826,1.043,2.326-9.563,13.668-6.312,13.668-6.312C543.508,515.421,544.583,522.091,544.626,523.9Z" transform="translate(-398.439 -411.399)"/><path class="h" d="M544.626,521.9c-7.8,1.647-22.48,1.293-28.826,1.043,2.326-9.563,13.668-6.312,13.668-6.312C543.508,513.421,544.583,520.091,544.626,521.9Z" transform="translate(-398.439 -410.016)"/><path class="j" d="M776.94,671.7s9.186-1.62,9.366,3.008-4.684,7.86-4.684,7.86Z" transform="translate(-589.358 -517.656)"/><path class="g" d="M548.7,458.985a11.7,11.7,0,0,1-1.21.537,38.9,38.9,0,0,1-8.874,2.724,12.894,12.894,0,0,1-8.917-1.7,7.71,7.71,0,0,1-.807-.6c-.3-6.787-1.008-13.419-1.008-13.419s23.394-12.648,20.705-2.622C547.515,447.957,547.878,453.646,548.7,458.985Z" transform="translate(-407.27 -357.647)"/><path class="d" d="M519.915,355.859a2.3,2.3,0,0,1-2.237-.54l.559.892a2.1,2.1,0,0,1-1.823-.694,12.043,12.043,0,0,0,.086,2.391,3.575,3.575,0,0,1-2.571-.925,1.4,1.4,0,0,0,.71,1.33,3.919,3.919,0,0,0-4.195,3.3l1.4.148a4.912,4.912,0,0,0-2.807,1.965,2.747,2.747,0,0,0-.57,2.159c.188.753,1.1,1.234,1.592.7a9.552,9.552,0,0,0-1.64,7.03,5.1,5.1,0,0,1,.124,1.623,14.993,14.993,0,0,1-.508,1.447,5.2,5.2,0,0,0,.226,2.776l1.261,4.757c.457,1.718.912,3.44,1.509,5.1a27.738,27.738,0,0,1,1.076,3.242c.339,1.493.352,3.128,1.076,4.433a5.673,5.673,0,0,0,1.931,1.953,12.9,12.9,0,0,0,8.917,1.7,38.879,38.879,0,0,0,8.86-2.724,7.835,7.835,0,0,0,1.839-.926c2-1.505,2.45-4.584,2.823-7.3a46.461,46.461,0,0,1,1.96-8.884c.586-1.694,1.344-3.412,1.215-5.226-.164-2.409-1.826-4.362-2.237-6.731a6.707,6.707,0,0,1,.019-2.4,6.182,6.182,0,0,0,.212-1.45,3.755,3.755,0,0,0-1.422-2.4q-2.17-2.079-4.48-3.93c-.078-.617.653-.882.984-1.37a1.567,1.567,0,0,0-.726-2.1,3.265,3.265,0,0,0-2.245.1,2.1,2.1,0,0,0-1.041-2.116,1.624,1.624,0,0,0-2.065.539,2.8,2.8,0,0,0-2.264-1.876c-1.783-.16-1.818,1.4-2.958,2.264s-2.081-.275-2.958-1.1A3.208,3.208,0,0,0,519.915,355.859Z" transform="translate(-392.679 -296.664)"/><path d="M731.112,636.806s-.239.654-.68,1.6a21.661,21.661,0,0,1-2.42,4.063l-.073.089H727.5l-15.526.164h-.371l-.046-.062-3.012-4.1-1.135-1.546-.046-.065-.1-.13-.054-.074-.07-.1-2.208-3,.807-3.856,1.374-6.5.035-.157.269-1.234.191-.925.64-3.017,2.194-10.38,3.9,2.314,4.112,8.329,2.208,4.473h1.21c.229,0,.753.506,1.28,1.089.188.207.376.426.538.617.479.568.858,1.055.858,1.055a2.736,2.736,0,0,1,2.487,1.82,2.4,2.4,0,0,1,.067.262,13.594,13.594,0,0,0,.68,2.024c.347.867.782,1.851,1.223,2.835.82,1.8,1.654,3.523,1.96,4.146l.038.077Z" transform="translate(-536.719 -473.501)"/><path class="g" d="M506.252,649.122l-.027.441v.031l-.046.71-.358,5.71-.433,6.879-.124,1.937L505,668.976v.052l-28.772.308-47.216.586v.259h-.038v-.346l.121-4.43.231-8.656.2-7.339.019-.731a3.463,3.463,0,0,1,.947-2.327,2.61,2.61,0,0,1,2.124-.811c1.269.123,2.918.275,4.889.435l.807.068a379.73,379.73,0,0,0,53.646.617c.446-.028.9-.059,1.345-.1,3.291-.238,6.58-.543,9.836-.925a2.621,2.621,0,0,1,2.265.9,3.524,3.524,0,0,1,.855,2.568Z" transform="translate(-334.957 -499.747)"/><path class="g" d="M342.954,677.87v.984a1.93,1.93,0,0,1-.941,1.709l-10.783.238a1.922,1.922,0,0,1-.96-1.718v-.926Z" transform="translate(-262.798 -522.109)"/><path class="d" d="M260.4,509.575l-14.05.309v-2.675l14.05-.308Z" transform="translate(-180.11 -350.541)"/><path class="g" d="M260.4,509.575l-14.05.309v-2.675l14.05-.308Z" transform="translate(-180.11 -350.541)"/><path class="d" d="M262.4,509.575l-14.05.309v-2.675l14.05-.308Z" transform="translate(-181.571 -350.541)"/><g class="b" transform="translate(115.351 56.846)"><path d="M551.465,358.559a3.245,3.245,0,0,1-.508-1.339,3.337,3.337,0,0,0,.113,1.419A2.141,2.141,0,0,0,551.465,358.559Z" transform="translate(-539.471 -357.22)"/><path d="M539.959,365.641q-.076-.567-.1-1.141v1.144Z" transform="translate(-531.38 -362.254)"/><path d="M621.68,395.761a6.448,6.448,0,0,1,.1-.817,6.3,6.3,0,0,0,.215-1.447,2.156,2.156,0,0,0-.043-.327c-.046.284-.118.568-.172.848A6.754,6.754,0,0,0,621.68,395.761Z" transform="translate(-591.185 -382.08)"/><path d="M600.914,367.164l.293.244a5.586,5.586,0,0,0,.691-.685,1.273,1.273,0,0,0,.1-1.123.963.963,0,0,1-.1.2C601.568,366.285,600.836,366.553,600.914,367.164Z" transform="translate(-576.013 -363.015)"/><path d="M518.124,380.29a4.159,4.159,0,0,0-.234.7,4.519,4.519,0,0,1,1.344-.583Z" transform="translate(-515.318 -373.173)"/><path d="M531.169,368.559a3.98,3.98,0,0,1-.506-.379,1.5,1.5,0,0,0,.024.364A2.779,2.779,0,0,1,531.169,368.559Z" transform="translate(-524.655 -364.799)"/><path d="M541.129,428.33a17.6,17.6,0,0,1-1.21,4.356,46.449,46.449,0,0,0-1.96,8.887c-.374,2.712-.807,5.79-2.823,7.293a7.583,7.583,0,0,1-1.837.925,38.745,38.745,0,0,1-8.874,2.724,12.892,12.892,0,0,1-8.917-1.694,5.693,5.693,0,0,1-1.931-1.953c-.718-1.3-.731-2.94-1.076-4.433a27.778,27.778,0,0,0-1.076-3.245c-.594-1.66-1.051-3.393-1.506-5.1q-.632-2.378-1.261-4.76a9.987,9.987,0,0,1-.307-1.465,6.277,6.277,0,0,0,.307,2.391q.629,2.385,1.261,4.76c.454,1.718.912,3.44,1.506,5.1a27.778,27.778,0,0,1,1.076,3.245c.339,1.493.352,3.128,1.076,4.433a5.693,5.693,0,0,0,1.931,1.953,12.9,12.9,0,0,0,8.917,1.694,39.035,39.035,0,0,0,8.874-2.724,7.585,7.585,0,0,0,1.837-.925c2-1.5,2.45-4.581,2.823-7.293a46.449,46.449,0,0,1,1.96-8.887c.586-1.691,1.345-3.409,1.215-5.226C541.135,428.367,541.129,428.349,541.129,428.33Z" transform="translate(-508.324 -406.394)"/><path d="M509.979,418.458v-.034a4.93,4.93,0,0,0-.124-1.62,9.354,9.354,0,0,1-.1-1.024,9.658,9.658,0,0,0,.1,1.95C509.9,417.97,509.947,418.214,509.979,418.458Z" transform="translate(-509.359 -397.715)"/><path d="M511.117,395.913a8.651,8.651,0,0,1,.7-1.132c-.492.54-1.4.059-1.592-.691a2.055,2.055,0,0,0,0,.925A1.249,1.249,0,0,0,511.117,395.913Z" transform="translate(-509.676 -382.716)"/></g><path class="g" d="M762.41,656.57a15.312,15.312,0,0,1,0,6.632C761.558,666.287,762.41,656.57,762.41,656.57Z" transform="translate(-578.458 -507.379)"/><path class="g" d="M774.984,668.3s.358,4.5-.449,5.3S774.984,668.3,774.984,668.3Z" transform="translate(-587.402 -515.491)"/><line class="l" y1="0.308" x2="27.323" transform="translate(53.506 105.448)"/><line class="l" y1="0.305" x2="27.323" transform="translate(53.506 109.297)"/><line class="l" y1="0.308" x2="27.323" transform="translate(53.506 113.144)"/><g transform="translate(115.882 136.755)"><g transform="translate(6.962 13.388)"><path class="m" d="M0,1.79,0,.8A.853.853,0,0,1,.956,0c.5,0,.884.251.882.715V.883l-.472,0V.762c0-.217-.159-.357-.412-.356a.38.38,0,0,0-.423.4l0,.961a.377.377,0,0,0,.426.412.361.361,0,0,0,.408-.35V1.692l.472,0v.168c0,.47-.391.724-.885.727C.432,2.587,0,2.348,0,1.79Z" transform="translate(0 0.055)"/><path class="m" d="M.78,0l.637,0,.746,2.5-.527,0-.169-.6-.812,0-.171.6L0,2.512Zm.578,1.519L1.075.489H1.064l-.3,1.036Z" transform="translate(2.011 0.081)"/><path class="m" d="M.7.41l-.7,0,0-.4L1.912,0l0,.4-.691,0-.01,2.1-.523,0L.7.41Z" transform="translate(4.127 0.071)"/><path class="h" d="M.012,0l.75,0a.659.659,0,0,1,.747.7.646.646,0,0,1-.6.7l.668,1.1H1.339L.7,1.431l-.479,0,0,1.07H0ZM.7,1.267c.4,0,.593-.186.6-.554A.5.5,0,0,0,.728.172l-.5,0L.222,1.269Z" transform="translate(7.057 0.062)"/><path class="h" d="M0,1.224,0,.67A.62.62,0,0,1,.657,0a.555.555,0,0,1,.6.618l0,.337L.21.96v.27c0,.316.163.462.485.46a.929.929,0,0,0,.461-.136l.073.133a.921.921,0,0,1-.56.171A.583.583,0,0,1,0,1.224ZM1.063.808V.6A.4.4,0,0,0,.634.154.419.419,0,0,0,.211.609v.2l.853,0Z" transform="translate(8.987 0.736)"/><path class="h" d="M0,2.162.01,0h.2L.2,2.136c0,.123.057.207.222.206a1.212,1.212,0,0,0,.165-.015v.158a.678.678,0,0,1-.227.036A.328.328,0,0,1,0,2.162Z" transform="translate(10.712 0.045)"/><path class="h" d="M0,1.227,0,.642A.6.6,0,0,1,.643,0,.577.577,0,0,1,1.28.628l0,.582a.594.594,0,0,1-.639.649A.578.578,0,0,1,0,1.227Zm1.072-.016,0-.6A.405.405,0,0,0,.638.158c-.315,0-.429.22-.43.479l0,.582c0,.295.126.476.44.475S1.071,1.478,1.072,1.211Z" transform="translate(11.623 0.723)"/><path class="h" d="M0,1.354A.6.6,0,0,1,.661.793l.38,0,0-.326C1.044.24.891.146.66.148c-.2,0-.41.093-.411.3V.553H.066V.442C.068.151.347,0,.687,0,1,0,1.253.134,1.251.45l0,.909c0,.13.013.361.016.456h-.19L1.06,1.52H1.053a.594.594,0,0,1-.55.336A.472.472,0,0,1,0,1.354Zm1.039-.121v-.3L.7.933c-.22,0-.483.073-.485.392A.342.342,0,0,0,.565,1.7.47.47,0,0,0,1.039,1.233Z" transform="translate(13.283 0.714)"/><path class="h" d="M0,2.048l0-.807A.532.532,0,0,1,.555.688.5.5,0,0,1,1.044,1h0l0-1h.209L1.249,2.5H1.067l-.006-.333H1.05a.591.591,0,0,1-.543.378A.467.467,0,0,1,0,2.048Zm1.047-.237,0-.439A.514.514,0,0,0,.587.835a.356.356,0,0,0-.379.405l0,.775a.324.324,0,0,0,.364.366A.523.523,0,0,0,1.047,1.811Z" transform="translate(14.994 0.018)"/><path class="h" d="M0,1.224,0,.67A.62.62,0,0,1,.657,0a.555.555,0,0,1,.6.618l0,.337L.21.96v.27c0,.316.163.462.485.46a.928.928,0,0,0,.461-.136l.073.133a.921.921,0,0,1-.56.171A.582.582,0,0,1,0,1.224ZM1.063.808V.6A.4.4,0,0,0,.634.154.419.419,0,0,0,.211.609v.2l.853,0Z" transform="translate(16.732 0.696)"/><path class="h" d="M0,2.048l0-.807A.532.532,0,0,1,.555.688.5.5,0,0,1,1.044,1h0l0-1h.208L1.249,2.5H1.066L1.06,2.169H1.049a.591.591,0,0,1-.543.378A.467.467,0,0,1,0,2.048Zm1.047-.237,0-.439A.514.514,0,0,0,.587.835a.356.356,0,0,0-.379.405l0,.775a.324.324,0,0,0,.364.366A.523.523,0,0,0,1.047,1.811Z" transform="translate(18.384 0)"/></g><g transform="translate(0 0)"><path class="h" d="M5.284,0A4.914,4.914,0,0,0,1.693,2.15,7.761,7.761,0,0,0,0,7.192c.095,4.256,2.892,6.836,5.169,7.282l.006-1.2C2.5,12.628,1.078,9.5,1.1,7.018a7.028,7.028,0,0,1,1.47-4.093A4.666,4.666,0,0,1,5.291,1.147ZM6.459,1.58a4.179,4.179,0,0,0-1.574.3A5.281,5.281,0,0,0,2.058,4.906a6.841,6.841,0,0,0,.566,5.779C4.08,12.644,6.2,13.24,7.976,12.418a8.349,8.349,0,0,0,.981-.529l-.521-1a7.078,7.078,0,0,1-.871.474C4.3,12.49,1.609,8.751,3.027,5.429A4.3,4.3,0,0,1,5.2,3.034a3.358,3.358,0,0,1,3.219.459A4.741,4.741,0,0,1,9.989,8.564a1.009,1.009,0,0,1-.823.705c.006-.412-.006-1.018,0-1.512A5.931,5.931,0,0,0,9,6.107,2.617,2.617,0,0,0,6.416,4.015a2.342,2.342,0,0,0-2.2,1.335,3.548,3.548,0,0,0,.665,4.605,2.538,2.538,0,0,0,2.017.48,2.756,2.756,0,0,0,.634-.213c.18-.091.417-.212.332-.217l.006-1.281a5.641,5.641,0,0,1-.707.422,1.812,1.812,0,0,1-.43.15A1.629,1.629,0,0,1,5.407,8.9c-1.332-.983-.783-3.677.992-3.767A1.671,1.671,0,0,1,7.941,6.5a4.7,4.7,0,0,1,.137,1.3c-.013.825-.015,1.975-.015,1.975l.011.675.42,0s.251.008.555-.005a2.623,2.623,0,0,0,.493-.081,1.28,1.28,0,0,0,.55-.3A2.652,2.652,0,0,0,10.8,9.032a5.642,5.642,0,0,0,.289-2.346A5.63,5.63,0,0,0,9,2.469,4.51,4.51,0,0,0,6.459,1.58Z" transform="translate(0 0)"/><path class="m" d="M11.111,0A1.316,1.316,0,0,0,9.943.947c-.569,1.492-.718,1.832-1.3,3.443C8.246,5.469,8.027,6,7.522,7.348c-.153.41-.909,2.408-.909,2.408H8.471c.455-1.221.5-1.314.645-1.749.379-.883.6-1.6,1.017-2.65.327-.833.5-1.318.634-1.665.152-.386.162-.56.34-.569.126-.006.254.473.588,1.333.2.509.554,1.476.682,1.818.121.323.2.6.292.792a3.626,3.626,0,0,1,.21.523c.023.093-.319.038-.752.045-.82.012-2,.007-2,.007l-.793,2.1c2.258.032,3.917-.091,6.161-.021-1-2.742-2.871-7.749-2.963-8.005s-.218-.569-.276-.739A1.251,1.251,0,0,0,11.111,0ZM2.182.2a2.465,2.465,0,0,0-.789.211C.762.763.232,1.438.027,3.922A14.042,14.042,0,0,0,.282,7.973c.264.931.907,1.788,1.466,1.8l4.245-.022.739-2.11s-2.913.055-4.3.058c-.827,0-.655-2.263-.68-3.591,0,0,.078-1.78.565-1.771,1.541.028,6.217-.046,6.217-.046L9.411.208,2.182.2ZM12.759.179c0,.054.834,2.1.809,2.1.914,0,1.869-.054,2.877-.015l-.036,7.425,1.7,0,.038-7.454,2.971-.021c.021-1,0-1.515.01-2.069-2.864,0-5.35.02-8.371.033Z" transform="translate(12.536 2.27)"/></g></g><path class="d" d="M429.08,672.969v-.259l47.224-.589,28.772-.309h.081v-.052l.269-4.146.116-1.851.441-6.975.347-5.522v-.136a3.75,3.75,0,0,0-.03-.762.107.107,0,0,0,0-.031,3.462,3.462,0,0,0-.538-1.431,2.683,2.683,0,0,0-2.533-1.234c-3.256.383-6.545.688-9.836.925-.449.037-.9.068-1.345.1a384.485,384.485,0,0,1-53.646-.617l-.807-.068c-1.971-.16-3.619-.308-4.889-.435a2.927,2.927,0,0,0-3.022,2.631,3.877,3.877,0,0,0-.048.506l-.183,6.836-.25,8.659-.118,4.43v.345Z" transform="translate(-335.038 -502.534)"/><path class="g" d="M506.435,659.269,506.1,664l-.492,7.049-.124,1.765-.269,3.952-.016.2v.052h0l-.04.456.03-.456h-.078l-28.772.308-47.232.586v-.086l.132-4.43.269-8.656.172-5.753a2.03,2.03,0,0,1,.823-1.62,1.512,1.512,0,0,1,1.016-.278c.565.052,1.258.114,2.068.182,1.315.111,2.936.241,4.824.376,3.5.253,7.881.524,12.907.747,13.983.617,32.86.824,50.79-.978.807-.08,1.64-.17,2.455-.259a1.5,1.5,0,0,1,.936.2,1.376,1.376,0,0,1,.231.167,1.866,1.866,0,0,1,.538.759,1.2,1.2,0,0,1,.067.188A2.2,2.2,0,0,1,506.435,659.269Z" transform="translate(-335.06 -507.731)"/><g transform="matrix(1, 0.017, -0.017, 1, 190.544, 49.635)"><g transform="translate(0 0)"><path class="m" d="M5.295,0A5.157,5.157,0,0,0,1.7,1.761,5.673,5.673,0,0,0,0,5.891a6.286,6.286,0,0,0,5.179,5.965l.006-.983A5.256,5.256,0,0,1,1.1,5.748,5.2,5.2,0,0,1,2.573,2.4,4.834,4.834,0,0,1,5.3.94ZM6.473,1.294A5.02,5.02,0,0,0,4.9,1.54,4.814,4.814,0,0,0,2.062,4.019a4.717,4.717,0,0,0,.567,4.733,4.918,4.918,0,0,0,5.364,1.42,9.067,9.067,0,0,0,.983-.434l-.522-.822a7.672,7.672,0,0,1-.872.388c-3.269.927-5.968-2.136-4.548-4.857a3.861,3.861,0,0,1,2.18-1.962,4.008,4.008,0,0,1,3.225.376c1.163.723,2.31,2.483,1.572,4.154a.979.979,0,0,1-.825.578c.006-.338-.006-.834,0-1.239A4.016,4.016,0,0,0,9.018,5,2.579,2.579,0,0,0,6.429,3.289a2.439,2.439,0,0,0-2.2,1.094,2.554,2.554,0,0,0,.666,3.772,2.992,2.992,0,0,0,2.021.393,3.2,3.2,0,0,0,.635-.175c.18-.075.418-.174.333-.178l.006-1.049a6.037,6.037,0,0,1-.708.345,2.1,2.1,0,0,1-.431.123,1.892,1.892,0,0,1-1.332-.319,1.7,1.7,0,0,1,.994-3.086A1.607,1.607,0,0,1,7.957,5.325a3.184,3.184,0,0,1,.137,1.063c-.013.675-.015,1.618-.015,1.618l.012.553.421,0s.251.007.556,0a3.173,3.173,0,0,0,.494-.066,1.393,1.393,0,0,0,.551-.247,2.241,2.241,0,0,0,.71-.841,3.847,3.847,0,0,0,.289-1.922A4.4,4.4,0,0,0,9.017,2.022a5.206,5.206,0,0,0-2.545-.728Z" transform="translate(0 0)"/></g></g><g transform="translate(62.988 49.074) rotate(8)"><g transform="translate(0 0)"><path class="m" d="M5.295,0A5.157,5.157,0,0,0,1.7,1.761,5.673,5.673,0,0,0,0,5.891a6.286,6.286,0,0,0,5.179,5.965l.006-.983A5.256,5.256,0,0,1,1.1,5.748,5.2,5.2,0,0,1,2.573,2.4,4.834,4.834,0,0,1,5.3.94ZM6.473,1.294A5.02,5.02,0,0,0,4.9,1.54,4.814,4.814,0,0,0,2.062,4.019a4.717,4.717,0,0,0,.567,4.733,4.918,4.918,0,0,0,5.364,1.42,9.067,9.067,0,0,0,.983-.434l-.522-.822a7.672,7.672,0,0,1-.872.388c-3.269.927-5.968-2.136-4.548-4.857a3.861,3.861,0,0,1,2.18-1.962,4.008,4.008,0,0,1,3.225.376c1.163.723,2.31,2.483,1.572,4.154a.979.979,0,0,1-.825.578c.006-.338-.006-.834,0-1.239A4.016,4.016,0,0,0,9.018,5,2.579,2.579,0,0,0,6.429,3.289a2.439,2.439,0,0,0-2.2,1.094,2.554,2.554,0,0,0,.666,3.772,2.992,2.992,0,0,0,2.021.393,3.2,3.2,0,0,0,.635-.175c.18-.075.418-.174.333-.178l.006-1.049a6.037,6.037,0,0,1-.708.345,2.1,2.1,0,0,1-.431.123,1.892,1.892,0,0,1-1.332-.319,1.7,1.7,0,0,1,.994-3.086A1.607,1.607,0,0,1,7.957,5.325a3.184,3.184,0,0,1,.137,1.063c-.013.675-.015,1.618-.015,1.618l.012.553.421,0s.251.007.556,0a3.173,3.173,0,0,0,.494-.066,1.393,1.393,0,0,0,.551-.247,2.241,2.241,0,0,0,.71-.841,3.847,3.847,0,0,0,.289-1.922A4.4,4.4,0,0,0,9.017,2.022a5.206,5.206,0,0,0-2.545-.728Z" transform="translate(0 0)"/></g></g></svg>