<svg xmlns="http://www.w3.org/2000/svg" xmlns:xlink="http://www.w3.org/1999/xlink" width="280" height="209" viewBox="0 0 280 209"><defs><style>.a,.e{fill:#fff;}.a{stroke:#707070;}.b{clip-path:url(#a);}.c{fill:#f0f0f0;}.d{fill:#c2341c;}.f{fill:none;}.g{fill:url(#b);}.h{fill:url(#c);}.i{fill:url(#d);}.j{fill:url(#e);}.k{fill:url(#f);}.l{fill:#3e3e54;}.m{fill:#eea886;}.n{fill:url(#g);}</style><clipPath id="a"><rect class="a" width="280" height="209"/></clipPath><linearGradient id="b" x1="0.704" y1="-3.297" x2="0.412" y2="2.143" gradientUnits="objectBoundingBox"><stop offset="0.02" stop-color="#fff" stop-opacity="0"/><stop offset="0.14" stop-color="#fff" stop-opacity="0.059"/><stop offset="0.32" stop-color="#fff" stop-opacity="0.388"/><stop offset="0.68" stop-color="#fff" stop-opacity="0.678"/><stop offset="1" stop-color="#fff"/></linearGradient><linearGradient id="c" x1="0.78" y1="-4.706" x2="0.487" y2="0.734" gradientUnits="objectBoundingBox"><stop offset="0.02" stop-color="#fff" stop-opacity="0"/><stop offset="0.32" stop-color="#fff" stop-opacity="0.388"/><stop offset="0.68" stop-color="#fff" stop-opacity="0.678"/><stop offset="1" stop-color="#fff"/></linearGradient><linearGradient id="d" x1="0.705" y1="-3.321" x2="0.413" y2="2.119" xlink:href="#c"/><linearGradient id="e" x1="0.703" y1="-3.273" x2="0.41" y2="2.167" xlink:href="#c"/><linearGradient id="f" x1="-0.203" y1="-0.563" x2="1.49" y2="1.998" xlink:href="#c"/><linearGradient id="g" x1="3.317" y1="0.092" x2="-5.004" y2="1.299" gradientUnits="objectBoundingBox"><stop offset="0" stop-opacity="0"/><stop offset="1"/></linearGradient></defs><g class="b"><g transform="translate(22.11)"><path class="c" d="M243.218,169.9c-4.168,8.242-11.713,14.678-13.8,23.751-.905,3.915-.695,8.02-1.139,12.025-1.64,14.033-11.662,25.729-23.614,32.357-.5.287-1.008.55-1.515.813-7.841,4.022-16.337,6.216-25,7.584-5.267.825-10.6,1.339-15.881,1.793a627.659,627.659,0,0,1-66.053,2c-10.654-.227-21.518-.759-31.54-4.47-.512-.185-1.019-.383-1.526-.6-8.131-3.317-15.346-8.75-21.735-14.977l-.29-.287a98.7,98.7,0,0,1-22.5-33.241A90.78,90.78,0,0,1,15,139.736c3.012-11.206,8.274-21.892,9.111-33.468.609-8.726-1.344-17.559-.04-26.2,2.579-17.152,17.772-29.781,33.812-34.03s32.924-1.829,49.306.6c8.006,1.2,17.373,4.4,25.294,1.835,9.72-3.162,17.92-7.07,28.408-7.094a30,30,0,0,1,12.59,2.277c4.76,2.181,8.541,6.138,12.4,9.778C196.668,63.59,208.967,71.8,220,81.663s21.017,21.862,25.055,36.457c1.987,7.136,2.477,14.636,2.688,22.065C248.047,150.333,247.734,160.941,243.218,169.9Z" transform="translate(-12.044 -41.375)"/><rect class="d" width="129.219" height="96.592" rx="18.356" transform="translate(54.83 67.594)"/><rect class="e" width="113.446" height="80.826" transform="translate(62.716 74.491)"/><rect class="d" width="3.382" height="32.458" transform="translate(114.744 112.107)"/><rect class="d" width="3.382" height="27.151" transform="translate(120.626 117.414)"/><rect class="d" width="3.382" height="22.304" transform="translate(126.389 122.261)"/><rect class="d" width="3.382" height="27.151" transform="translate(132.271 117.414)"/><rect class="d" width="3.382" height="16.232" transform="translate(138.033 128.333)"/><rect class="d" width="3.382" height="27.151" transform="translate(143.916 117.414)"/><rect class="d" width="3.382" height="18.999" transform="translate(149.678 125.566)"/><rect class="d" width="3.382" height="22.657" transform="translate(155.56 121.908)"/><rect class="d" width="19.343" height="1.183" transform="translate(75.112 131.859)"/><rect class="d" width="19.343" height="1.183" transform="translate(75.112 135.14)"/><rect class="d" width="19.343" height="1.183" transform="translate(75.112 138.427)"/><rect class="d" width="19.343" height="1.183" transform="translate(75.112 141.714)"/><rect class="d" width="19.343" height="1.183" transform="translate(75.112 145.001)"/><rect class="f" width="19.343" height="14.589" transform="translate(101.408 131.859)"/><path class="d" d="M198.263,222.984c-6.95-.021-12.6,5.875-12.621,13.169s5.6,13.225,12.547,13.247v-4.6h-.051a8.748,8.748,0,1,1,8.325-8.738,8.266,8.266,0,0,1-.091,1.249H210.8a10.486,10.486,0,0,0,.051-1.118C210.851,228.9,205.215,222.981,198.263,222.984Z" transform="translate(-103.409 -132.692)"/><rect class="g" width="40.07" height="41.268" rx="8.979" transform="translate(177.882 79.404)"/><rect class="h" width="40.07" height="41.268" rx="8.979" transform="translate(126.303 19.758)"/><rect class="i" width="40.07" height="41.268" rx="8.979" transform="translate(28.409 15.156)"/><rect class="j" width="40.07" height="41.268" rx="8.979" transform="translate(16.753 77.025)"/><path class="d" d="M332.589,222.236l-.444-.12,7.459-30.086h13.45v.484H339.963Z" transform="translate(-174.831 -96.557)"/><path class="d" d="M240.806,98.417h-6.19l-16.781,59.245-.393-.042,16.821-59.687h6.543Z" transform="translate(-114.463 -49.242)"/><path class="d" d="M169.082,140.418,154.3,91.745H142.758v-.484h11.878l.051.173,14.833,48.834Z" transform="translate(-75.156 -45.888)"/><path class="d" d="M139.222,214.287l-10.512-12.3H118.4V201.5h10.512l10.654,12.461Z" transform="translate(-62.339 -101.32)"/><path class="d" d="M224.743,252.123a12.826,12.826,0,0,1-12.527,12.09h-.074v-4.6a8.464,8.464,0,0,0,8.183-7.495Z" transform="translate(-117.356 -147.343)"/><path class="k" d="M224.743,251.8a12.826,12.826,0,0,1-12.527,12.09h-.074v-4.6a8.457,8.457,0,0,0,8.183-7.489Z" transform="translate(-117.356 -147.18)"/><path class="d" d="M134.548,225.069l5.859-12.915,13.535,8.3-9.316,20.171-7.266-4.243Z" transform="translate(-70.835 -106.675)"/><path class="e" d="M136.892,225.4l4.925-10.023L152.95,222.2l-8.439,17.774-5.74-4.614Z" transform="translate(-72.069 -108.295)"/><path class="l" d="M130.637,338.783l3.889,25.257-3.889,25.227,2.192,1.793-3.6-.161.313-26.075-6.719-18.366.814,19.071-3.918,24.587,1.708.98-3.906-.161,1.674-25.5-3.046-15.246s-2.688-11.08,0-12.885S130.637,338.783,130.637,338.783Z" transform="translate(-66.207 -189.902)"/><path d="M114.461,264.624s9.458,1.112,11.8,2.9,4.766,4.638,4.766,6.933.94,13.608.94,13.608l3.906-9.509,2.187,1.309s-2.5,16.483-3.906,16.973-5.233-.6-5.233-.6l-.239,6.233s-12.812,1.309-14.526-1.476S108.391,269.178,114.461,264.624Z" transform="translate(-64.25 -153.629)"/><path class="m" d="M130.565,256.226a7.79,7.79,0,0,0-.53,4.6s-3.513-.5-3.616-.938.438-4.3.034-5.492S130.565,256.226,130.565,256.226Z" transform="translate(-72.233 -148.344)"/><path class="m" d="M123.9,237.224c1.384-.6,5.17-1.494,6.571,4.441s-.729,6.221-2.933,6.245-5.916-3.735-6.264-4.949S119.964,239,123.9,237.224Z" transform="translate(-69.342 -139.634)"/><path class="m" d="M163.591,283.681a1.69,1.69,0,0,1,.057-.478c.131-.436.569-.675.809-1.064a2.262,2.262,0,0,0,.228-.8,2.017,2.017,0,0,1,.188-.711.606.606,0,0,1,.569-.353c.319.048.484.418.569.741a9.609,9.609,0,0,1-.228,5.977c-.1.281-.29.6-.569.6a.662.662,0,0,1-.273-.1c-.569-.323-1.378-.6-1.406-1.3C163.506,285.337,163.574,284.5,163.591,283.681Z" transform="translate(-91.77 -161.498)"/><path class="d" d="M163.243,280.29l-2.654-2.612-.233.49,2.431,2.677S163.283,280.667,163.243,280.29Z" transform="translate(-90.101 -160.193)"/><path class="n" d="M145.35,314.868s-1.372-.6-1.839-4.781-1.053-8.487-1.053-8.487v19.663h3.126Z" transform="translate(-80.681 -172.221)"/><path class="l" d="M125.427,232.777a2.839,2.839,0,0,0-1.287-1.518,1.431,1.431,0,0,0-1.446-.084,1.447,1.447,0,0,0-1.19-.628,1.872,1.872,0,0,0-1.139.185,1,1,0,0,0-.484,1.052,5.722,5.722,0,0,0-1.708,0,1.222,1.222,0,0,0-.5.167,1.293,1.293,0,0,0-.4.6,6.373,6.373,0,0,0-.484,2.391,2.562,2.562,0,0,0-1.008,1.924,2.625,2.625,0,0,0,.826,2.026,3.029,3.029,0,0,0,.307,2.337,1.869,1.869,0,0,0,2.01.861c0,.359.046.795.359.956a.753.753,0,0,0,.347.06,2.514,2.514,0,0,0,.974-.215,1.98,1.98,0,0,0,0,.837.623.623,0,0,0,.569.49.9.9,0,0,0,.5-.3,2.711,2.711,0,0,0,.831-1.159,12.183,12.183,0,0,0,.1-1.3c.091-.508.4-1,.273-1.5s-.518-.717-.82-1.046-.484-.914-.154-1.2.814-.03,1.11.281c.148.149.359.323.53.209s.12-.353.057-.532a7.762,7.762,0,0,1-.393-1.2,1.291,1.291,0,0,1,.319-1.2c.49-.436,1.281-.191,1.76-.6S125.61,233.3,125.427,232.777Z" transform="translate(-66.64 -136.484)"/><g transform="matrix(0.995, 0.105, -0.105, 0.995, 48.598, 121.102)"><g transform="translate(2.222 5.72)"><path class="e" d="M0,.78l0-.426A.32.32,0,0,1,.313,0a.271.271,0,0,1,.28.306V.381l-.151,0V.33C.444.237.393.177.312.178S.177.246.176.352l0,.415c0,.121.052.178.135.176A.137.137,0,0,0,.439.791V.732l.151,0V.8A.288.288,0,0,1,.3,1.12C.14,1.123,0,1.021,0,.78Z" transform="translate(-0.004 0.09)"/><path class="e" d="M.26.007l.2,0L.7,1.081l-.169,0L.475.826l-.26,0-.056.26L0,1.094ZM.442.662.353.216h0l-.1.449Z" transform="translate(0.636 0.091)"/><path class="e" d="M.223.186,0,.19,0,.016.613,0l0,.174-.221,0L.383,1.09l-.167,0L.223.186Z" transform="translate(1.322 0.076)"/><path class="d" d="M.014.006l.24,0C.411,0,.493.119.492.3.49.461.427.584.3.606l.211.472H.433L.231.621l-.153,0,0,.462H0ZM.231.55C.357.547.421.467.422.308.424.172.372.074.243.077l-.16,0,0,.473Z" transform="translate(2.25 0.068)"/><path class="d" d="M0,.533,0,.294C.006.107.095,0,.215,0S.408.1.406.266V.412L.07.418V.535c0,.136.051.2.154.2A.25.25,0,0,0,.371.672L.394.729A.249.249,0,0,1,.214.8C.087.807,0,.726,0,.533ZM.343.349V.258C.345.164.313.066.208.068s-.135.1-.136.2V.354L.343.349Z" transform="translate(2.871 0.353)"/><path class="d" d="M0,.936.013,0H.078L.07.924c0,.053.018.089.071.088a.29.29,0,0,0,.053-.007v.068A.168.168,0,0,1,.12,1.09C.046,1.091,0,1.036,0,.936Z" transform="translate(3.42 0.051)"/><path class="d" d="M0,.534,0,.281C.006.106.091,0,.211,0s.2.092.2.269l0,.252C.409.707.325.8.2.805S0,.712,0,.534ZM.345.523l0-.258C.349.157.31.068.209.07S.071.166.07.279l0,.252c0,.127.039.205.14.2S.344.639.345.523Z" transform="translate(3.714 0.338)"/><path class="d" d="M0,.59A.221.221,0,0,1,.215.345l.122,0V.2C.339.1.29.064.217.066A.127.127,0,0,0,.085.2V.242H.026V.2A.187.187,0,0,1,.225,0,.168.168,0,0,1,.4.194L.4.587c0,.056,0,.156,0,.2H.345l0-.127h0A.194.194,0,0,1,.162.8C.077.806,0,.735,0,.59ZM.335.533V.4l-.11,0C.156.406.072.438.071.576c0,.112.054.163.112.162C.265.736.334.65.335.533Z" transform="translate(4.244 0.328)"/><path class="d" d="M0,.893l0-.349C.009.387.095.3.185.3A.163.163,0,0,1,.34.436h0L.345,0H.412L.4,1.084H.344V.941h0c-.041.122-.114.164-.175.165C.057,1.109,0,1.013,0,.893ZM.339.787l0-.19C.342.467.27.365.195.366S.074.413.073.543l0,.335c0,.1.033.159.116.157S.338.938.339.787Z" transform="translate(4.79 0.017)"/><path class="d" d="M0,.533,0,.294C.006.107.095,0,.215,0S.407.1.406.266V.412L.07.418V.535c0,.136.051.2.154.2A.25.25,0,0,0,.371.672L.394.729A.249.249,0,0,1,.214.8C.087.807,0,.726,0,.533ZM.343.349V.258C.345.164.313.066.208.068s-.135.1-.136.2V.354L.343.349Z" transform="translate(5.347 0.307)"/><path class="d" d="M0,.893l0-.349C.009.387.095.3.185.3A.163.163,0,0,1,.34.436h0L.345,0H.412L.4,1.084H.344V.941h0c-.041.122-.114.164-.175.165C.057,1.109,0,1.013,0,.893ZM.339.787l0-.19C.342.467.27.365.195.366S.074.413.073.543l0,.335c0,.1.033.159.116.157S.338.938.339.787Z" transform="translate(5.874 -0.003)"/></g><g transform="translate(0.014 0.013)"><path class="d" d="M1.721.013C1.169.023.743.635.568.955A4.2,4.2,0,0,0,.014,3.141C.035,4.98.923,6.084,1.65,6.269l0-.519C.8,5.481.353,4.136.366,3.061a3.763,3.763,0,0,1,.48-1.774A1.593,1.593,0,0,1,1.72.509Zm.372.679a1.051,1.051,0,0,0-.5.135A2.2,2.2,0,0,0,.677,2.145a3.873,3.873,0,0,0,.167,2.5c.461.841,1.139,1.091,1.707.729a2.637,2.637,0,0,0,.315-.232L2.7,4.706a2.245,2.245,0,0,1-.279.208c-1.046.5-1.9-1.1-1.437-2.546a1.826,1.826,0,0,1,.7-1.043.842.842,0,0,1,1.028.187A2.472,2.472,0,0,1,3.205,3.7.379.379,0,0,1,2.94,4c0-.178,0-.44,0-.653a3.411,3.411,0,0,0-.049-.712C2.78,2,2.4,1.73,2.073,1.744c-.39.022-.538.234-.706.585a1.915,1.915,0,0,0,.2,1.988.648.648,0,0,0,.644.2.754.754,0,0,0,.2-.095c.058-.04.134-.093.107-.1l0-.554a1.838,1.838,0,0,1-.227.185.5.5,0,0,1-.138.066.429.429,0,0,1-.424-.163c-.424-.42-.242-1.586.326-1.632.245.037.409.194.49.583a2.7,2.7,0,0,1,.041.56c-.006.356-.009.854-.009.854l0,.292.134,0s.08,0,.178,0a.649.649,0,0,0,.158-.037.4.4,0,0,0,.177-.132A1.229,1.229,0,0,0,3.463,3.9a3.256,3.256,0,0,0,.1-1.015A2.75,2.75,0,0,0,2.9,1.066a1.2,1.2,0,0,0-.81-.375Z" transform="translate(-0.014 -0.013)"/><path class="e" d="M3.576.037c-.148,0-.3.145-.376.414-.185.647-.234.794-.425,1.493-.128.468-.2.7-.364,1.282-.05.178-.3,1.044-.3,1.044l.594-.007c.148-.529.162-.57.21-.758.123-.383.2-.693.331-1.149.107-.361.162-.571.207-.722.049-.167.053-.243.11-.247.04,0,.08.2.185.574.062.219.174.636.214.783s.061.258.092.341a1.906,1.906,0,0,1,.066.225c.007.04-.1.018-.241.022-.262.008-.64.011-.64.011l-.258.91c.722.006,1.253-.054,1.97-.032C4.643,3.04,4.056.884,4.027.773S3.959.528,3.941.455C3.871.17,3.725.034,3.576.037ZM.721.159S.515.2.468.253C.266.405.095.7.023,1.773A8.14,8.14,0,0,0,.1,3.523c.082.4.286.769.464.772l1.357-.025.241-.915S1.227,3.389.783,3.4c-.264,0-.2-.975-.209-1.549,0,0,.029-.769.185-.767.493.006,1.988-.043,1.988-.043l.286-.9ZM4.1.109c0,.023.262.9.254.906.292,0,.6-.03.92-.017L5.248,4.206,5.792,4.2,5.822.978l.95-.02c.009-.433,0-.655.008-.894C5.864.076,5.069.092,4.1.109Z" transform="translate(3.996 0.876)"/></g></g></g></g></svg>