<svg xmlns="http://www.w3.org/2000/svg" width="31.719" height="15.323" viewBox="0 0 31.719 15.323"><defs><style>.a{fill:#c2341c;}.b{fill:#fff;}</style></defs><g transform="translate(-0.025 -0.018)"><path class="a" d="M4.951.018C3.325.012,2.088,1.487,1.582,2.262A8.751,8.751,0,0,0,.025,7.585c.123,4.507,2.781,7.263,4.931,7.757l0-1.27c-2.523-.708-3.893-4.027-3.893-6.66A7.871,7.871,0,0,1,2.413,3.09,4.308,4.308,0,0,1,4.967,1.233ZM6.072,1.7A3.53,3.53,0,0,0,4.59,2,5.263,5.263,0,0,0,1.947,5.183a8.065,8.065,0,0,0,.579,6.123c1.389,2.088,3.4,2.737,5.061,1.883a7.49,7.49,0,0,0,.921-.552l-.5-1.067a6.356,6.356,0,0,1-.817.494C4.125,13.233,1.555,9.251,2.865,5.746A4.316,4.316,0,0,1,4.9,3.23a2.9,2.9,0,0,1,3.039.515A5.455,5.455,0,0,1,9.455,9.127a.968.968,0,0,1-.771.739c0-.436-.014-1.078-.013-1.6A7.052,7.052,0,0,0,8.5,6.518,2.594,2.594,0,0,0,6.05,4.279,2.155,2.155,0,0,0,3.989,5.673a4.108,4.108,0,0,0,.664,4.882,2.221,2.221,0,0,0,1.906.526,2.37,2.37,0,0,0,.6-.22c.169-.1.392-.221.311-.227l0-1.356a5.107,5.107,0,0,1-.663.44,1.558,1.558,0,0,1-.4.155,1.445,1.445,0,0,1-1.257-.424c-1.264-1.053-.768-3.9.905-3.98A1.683,1.683,0,0,1,7.508,6.925,5.587,5.587,0,0,1,7.647,8.3c-.005.873,0,2.091,0,2.091l.016.715h.4s.236.011.523,0a2.207,2.207,0,0,0,.464-.081,1.147,1.147,0,0,0,.516-.314,2.762,2.762,0,0,0,.66-1.081,6.617,6.617,0,0,0,.254-2.481,6.347,6.347,0,0,0-2-4.484,4.028,4.028,0,0,0-2.4-.963Z" transform="translate(0 0)"/><path class="b" d="M10.454.038a1.249,1.249,0,0,0-1.094.993c-.525,1.575-.662,1.933-1.2,3.633C7.8,5.8,7.593,6.36,7.128,7.786c-.141.433-.838,2.541-.838,2.541l1.751.017c.419-1.289.458-1.386.594-1.846.35-.931.557-1.687.938-2.8.3-.879.459-1.391.585-1.757.14-.407.148-.591.316-.6.119-.006.243.5.565,1.417.19.541.534,1.568.658,1.931.117.344.189.636.282.841a4.2,4.2,0,0,1,.2.555c.022.1-.3.038-.709.041-.773.006-1.887-.01-1.887-.01l-.731,2.216c2.129.054,3.693-.061,5.809.033-.963-2.912-2.769-8.23-2.857-8.5s-.211-.6-.266-.785C11.327.38,10.891.039,10.454.038ZM2.035.175a2.1,2.1,0,0,0-.742.217C.7.753.206,1.463.033,4.091A16.7,16.7,0,0,0,.306,8.382c.256.988.869,1.9,1.4,1.917l4,.015.68-2.227s-2.746.032-4.057.023c-.78-.006-.635-2.4-.669-3.808,0,0,.059-1.883.518-1.87,1.453.043,5.862.007,5.862.007l.814-2.2L2.035.175Zm9.974.068c0,.057.8,2.228.779,2.233.862.009,1.762-.04,2.713.01l.025,7.861,1.606.014-.023-7.891,2.8,0C19.922,1.413,19.9.87,19.9.283,17.2.261,14.858.256,12.009.243Z" transform="translate(11.83 2.548)"/></g></svg>