<svg xmlns="http://www.w3.org/2000/svg" width="86.098" height="106.308" viewBox="0 0 86.098 106.308"><defs><style>.a{fill:#c2341c;}</style></defs><path class="a" d="M86.1,25.319v1.258H57.4V0h1.359a5.608,5.608,0,0,1,3.805,1.459L84.522,21.8A4.8,4.8,0,0,1,86.1,25.319ZM55.6,33.221a5.209,5.209,0,0,1-5.381-4.983V0H5.381A5.194,5.194,0,0,0,0,4.983v96.341a5.194,5.194,0,0,0,5.381,4.983H80.717a5.194,5.194,0,0,0,5.381-4.983v-68.1ZM27.624,83.158a1.28,1.28,0,0,1-1.711.051L11.369,70.582a1.066,1.066,0,0,1,0-1.636L25.913,56.32a1.28,1.28,0,0,1,1.711.051l4.39,4.336a1.074,1.074,0,0,1,.326.821,1.091,1.091,0,0,1-.409.788l-9.14,7.449,9.14,7.449A1.091,1.091,0,0,1,32.34,78a1.074,1.074,0,0,1-.326.821l-4.39,4.336Zm11.5,10.481L32.97,91.984a1.112,1.112,0,0,1-.825-1.389L45.92,46.654a1.228,1.228,0,0,1,1.5-.764l6.155,1.655a1.111,1.111,0,0,1,.825,1.389L40.625,92.874a1.227,1.227,0,0,1-1.5.764ZM75.177,70.582,60.633,83.209a1.28,1.28,0,0,1-1.711-.051l-4.39-4.336A1.074,1.074,0,0,1,54.206,78a1.091,1.091,0,0,1,.409-.788l9.14-7.448-9.14-7.449a1.091,1.091,0,0,1-.409-.788,1.074,1.074,0,0,1,.326-.821l4.39-4.336a1.28,1.28,0,0,1,1.711-.051L75.177,68.946a1.066,1.066,0,0,1,0,1.636Z"/></svg>