<svg xmlns="http://www.w3.org/2000/svg" xmlns:xlink="http://www.w3.org/1999/xlink" width="280" height="209" viewBox="0 0 280 209"><defs><style>.a{fill:#fff;stroke:#707070;}.b{clip-path:url(#a);}.c{fill:#f0f0f0;}.d,.o,.p,.r{fill:none;}.d{stroke:#535461;}.d,.o,.p{stroke-miterlimit:10;stroke-width:1.001px;}.e{fill:#c2341c;}.f{fill:#fc6681;}.g{fill:#707070;}.g,.k,.o{opacity:0.1;}.h{fill:url(#b);}.i{fill:#555388;}.j{fill:#603556;}.l{fill:url(#c);}.m{fill:#535461;}.n{fill:#e2e2ec;}.o{stroke:#000;}.p{stroke:#e2e2ec;}.q{fill:#c87486;}.s{fill:#603456;}</style><clipPath id="a"><rect class="a" width="280" height="209"/></clipPath><linearGradient id="b" x1="0.5" y1="1" x2="0.5" gradientUnits="objectBoundingBox"><stop offset="0" stop-color="gray" stop-opacity="0.251"/><stop offset="0.54" stop-color="gray" stop-opacity="0.122"/><stop offset="1" stop-color="gray" stop-opacity="0.102"/></linearGradient><linearGradient id="c" x1="0.5" y1="1" x2="0.5" y2="0" xlink:href="#b"/></defs><g class="b"><g transform="translate(24.272 0)"><path class="c" d="M266.833,128.339c-8.993,16.095-7.768,37.736-4.266,54.741,1.171,5.693,2.533,11.69,1.32,18.127a29.2,29.2,0,0,1-11.467,17.736c-9.109,6.6-19.37,6.651-26.716.124-6.348-5.641-10.41-15.63-16.9-20.96-10.86-8.917-26.086-3.029-39.387,5.823-9.41,6.263-19.782,14.165-28.29,10.011-5.986-2.922-9.593-11.463-11.176-20.81-.765-4.512-1.185-9.451-3.069-12.861a12.783,12.783,0,0,0-4.315-4.455c-14.875-9.949-35.418-.9-49.729-12.207-9.666-7.638-14.943-23.733-16.453-41.039s.344-35.9,2.574-54.221c1.585-13.015,3.664-26.961,9.891-37.659C75.438,19.373,85.59,14.16,94.31,15.02s16.195,6.964,22.6,14.47c8,9.387,15.145,21.44,25.669,24.292,7.168,1.942,15.086-.664,22.768-2.211,12.842-2.587,25.448-2.2,37.963-1.617,11.981.562,24.031,1.328,35.119,5.857,7.846,3.206,13.785,10.108,21.091,14.52,4.756,2.875,10.178,3.134,14.586,7.011,5.431,4.778,10.04,13.717,7.616,25.2C279.412,113.461,271.615,119.8,266.833,128.339Z" transform="translate(-55.837 -14.929)"/><path class="d" d="M112.187,248.585S96.377,221.1,100.813,196.436a50.809,50.809,0,0,0-3.758-30.518,82.655,82.655,0,0,0-7.448-12.759" transform="translate(-73.61 -84.434)"/><path class="e" d="M81.113,116.7c.912,3.651-2.737,15.973-2.737,15.973s-8.946-8.852-9.86-12.5a6.875,6.875,0,0,1,4.64-8.352,6.49,6.49,0,0,1,7.958,4.87Z" transform="translate(-62.396 -63.533)"/><path class="e" d="M113.976,147.7c-1.123,3.587-10.569,11.846-10.569,11.846s-2.927-12.533-1.8-16.119a6.449,6.449,0,0,1,8.221-4.356,6.914,6.914,0,0,1,4.15,8.629Z" transform="translate(-79.79 -77.177)"/><path class="e" d="M128.822,214.446c-2.694,2.487-14.823,4.626-14.823,4.626s3.5-12.369,6.2-14.868a6.3,6.3,0,0,1,9.191.6,7.074,7.074,0,0,1-.568,9.648Z" transform="translate(-86.448 -109.238)"/><path class="e" d="M131.083,271.022c-2.254,2.942-13.863,7.188-13.863,7.188s1.46-12.814,3.713-15.754a6.305,6.305,0,0,1,9.155-1.043,7.067,7.067,0,0,1,.994,9.609Z" transform="translate(-88.143 -138.107)"/><path class="e" d="M74.308,176.343c3.13,1.855,15.4,1.288,15.4,1.288s-5.877-11.334-9-13.182a6.248,6.248,0,0,0-6.608-.05,7,7,0,0,0,.21,11.951Z" transform="translate(-63.739 -89.623)"/><path class="e" d="M74.645,240.835c3.517.788,15.076-3.611,15.076-3.611s-8.834-8.969-12.358-9.76a6.521,6.521,0,0,0-7.728,5.258,6.84,6.84,0,0,0,5.01,8.111Z" transform="translate(-63.023 -121.719)"/><path class="e" d="M86.912,304.3c3.339,1.4,15.441-.885,15.441-.885S95.085,293,91.746,291.6a6.421,6.421,0,0,0-8.247,3.9,6.965,6.965,0,0,0,3.415,8.789Z" transform="translate(-70.15 -153.843)"/><path class="e" d="M81.113,116.7c.912,3.651-2.737,15.973-2.737,15.973s-8.946-8.852-9.86-12.5a6.875,6.875,0,0,1,4.64-8.352,6.49,6.49,0,0,1,7.958,4.87Z" transform="translate(-62.396 -63.533)"/><path class="e" d="M113.976,147.7c-1.123,3.587-10.569,11.846-10.569,11.846s-2.927-12.533-1.8-16.119a6.449,6.449,0,0,1,8.221-4.356,6.914,6.914,0,0,1,4.15,8.629Z" transform="translate(-79.79 -77.177)"/><path class="f" d="M128.822,214.446c-2.694,2.487-14.823,4.626-14.823,4.626s3.5-12.369,6.2-14.868a6.3,6.3,0,0,1,9.191.6,7.074,7.074,0,0,1-.568,9.648Z" transform="translate(-86.448 -109.238)"/><path class="f" d="M131.083,271.022c-2.254,2.942-13.863,7.188-13.863,7.188s1.46-12.814,3.713-15.754a6.305,6.305,0,0,1,9.155-1.043,7.067,7.067,0,0,1,.994,9.609Z" transform="translate(-88.143 -138.107)"/><path class="e" d="M74.308,176.343c3.13,1.855,15.4,1.288,15.4,1.288s-5.877-11.334-9-13.182a6.248,6.248,0,0,0-6.608-.05,7,7,0,0,0,.21,11.951Z" transform="translate(-63.739 -89.623)"/><path class="e" d="M74.645,240.835c3.517.788,15.076-3.611,15.076-3.611s-8.834-8.969-12.358-9.76a6.521,6.521,0,0,0-7.728,5.258,6.84,6.84,0,0,0,5.01,8.111Z" transform="translate(-63.023 -121.719)"/><path class="e" d="M86.912,304.3c3.339,1.4,15.441-.885,15.441-.885S95.085,293,91.746,291.6a6.421,6.421,0,0,0-8.247,3.9,6.965,6.965,0,0,0,3.415,8.789Z" transform="translate(-70.15 -153.843)"/><ellipse class="g" cx="113.865" cy="8.208" rx="113.865" ry="8.208" transform="translate(3.726 159.078)"/><path class="h" d="M455.35,231.14s-.19-.266-.453-.565l.076-.027s-3.384-8.877-2.63-12.625-3.007-12.821-3.007-12.821-5.547-11.924-2.922-21.44a26.668,26.668,0,0,0,.678-3.415c.784-5.636.507-6.8-.808-8.857l-.145-.221a1.747,1.747,0,0,0,.377-.584c1.128-3.156-5.261-8.877-3.562-14.2,1.569-4.937-2.514-15.125-3.121-16.59h0l-.069-.167-.2.07a5.34,5.34,0,0,1,1.341-3.415l.038-.04c.564-.545,1.249-.945,1.777-1.53l.031-.037c.052-.052.107-.1.156-.159a2.213,2.213,0,0,0,.6-2.174c-.258-.677-.983-1.089-1.154-1.8q-.062-.476-.076-.958c-.137-.995-1.059-1.619-1.9-2.112a6.943,6.943,0,0,0-3.334-1.259c-1.626,0-3.081,1.144-4.694,1.286a6.339,6.339,0,0,0-1.642.172,3.641,3.641,0,0,0-1.078.726,5.4,5.4,0,0,0-.526.5,1.8,1.8,0,0,0-.661,1.288,1.428,1.428,0,0,0,.46.958,6.563,6.563,0,0,0-1,5.231,6.264,6.264,0,0,0,3.176,4.165c.019.137.038.276.057.423a16.926,16.926,0,0,1-.256,6.579c-2.7,1.46-6.905,3.84-7.659,4.9a.777.777,0,0,0-.1.619.882.882,0,0,0-.014.3,2.513,2.513,0,0,1-2.329-.915c-2.256-2.169-9.4-8.68-9.4-8.68s-3.194-8.285-5.45-6.715,2.63,9.272,2.63,9.272l10.7,12.038s.377,2.564,4.322,1.184c1.3-.455,2.481-.89,3.476-1.266l.237.211c-.889,5.457-1.348,12.729,1.929,14.863a3.4,3.4,0,0,1,.545,1.2c-.017.065-.033.132-.047.2a19.816,19.816,0,0,0-.474,3.318,11.01,11.01,0,0,0-.832,4.711l-1.256,18.781a19.894,19.894,0,0,0,1.128,7.3c1.315,3.156,5.45,18.938,2.63,20.121l.268.037a8.815,8.815,0,0,1-3.2,2.457c-1.573.393-1.133,2.925,2.355,3.348s3.908.388,6.36-1.758c2.161-1.89,2.5-2.736,2.555-2.917l.123.017s-1.315-5.129,0-7.3-3-15.383-3-15.383a44.741,44.741,0,0,1,.178-5.059c.664,1.823,1.137,3.087,1.137,3.087s1.128,5.721,2.443,6.715,8.27,14.6,7.142,20.514l-.13.689.318-.1h.028a9.323,9.323,0,0,1-2.095,3.562c-1.315.995,0,3.156,3.384,2.169s3.758-1.184,5.263-4.141S455.35,231.14,455.35,231.14Z" transform="translate(-239.778 -70.886)"/><path class="i" d="M454.759,230.241l-.825-1.067a10.738,10.738,0,0,0-1.164,5.365L451.543,252.9a19.424,19.424,0,0,0,1.1,7.136c1.287,3.087,5.329,18.515,2.573,19.671l8.258,1.171s-1.287-5.014,0-7.136-2.941-15.043-2.941-15.043-.367-10.8,3.123-13.309S454.759,230.241,454.759,230.241Z" transform="translate(-264.093 -122.655)"/><path class="j" d="M456.116,329.279s-2.268,2.781-3.8,3.166-1.107,2.858,2.3,3.273,3.82.381,6.221-1.719,2.507-2.888,2.507-2.888-.474-1.865-1.047-1.905S456.116,329.279,456.116,329.279Z" transform="translate(-264.057 -172.949)"/><path class="k" d="M455.314,230.82l-1.374-1.647a10.738,10.738,0,0,0-1.164,5.365L451.548,252.9a19.424,19.424,0,0,0,1.1,7.136c1.287,3.087,5.329,18.515,2.574,19.671l8.256,1.171s-1.287-5.014,0-7.136-2.941-15.043-2.941-15.043-.367-10.8,3.123-13.309S455.314,230.82,455.314,230.82Z" transform="translate(-264.095 -122.655)"/><path class="l" d="M281.819,196.393s-2.3-47.309-11.723-64.053c0,0-6.912-13.252-12.69-17.117V113.7c-9.427-6.85-21.027,0-21.027,0v.677l-2.417,2.114-10.884-.04a5.149,5.149,0,0,0-4.04-1.99H169.373a5.131,5.131,0,0,0-3.863,1.776h-11.3a7.226,7.226,0,0,0-2.417-1.632V113.7c-9.427-6.85-21.027,0-21.027,0v1.838a3.166,3.166,0,0,0-.725.7s-9.548,6.715-11.723,15.092c0,0-11.723,36.91-11.965,65.829s10.394,32.978,15.951,33.739,15.467-.249,25.136-25.867l4.109-14.965s.725-8.879,9.427-3.3,16.434-3.044,16.434-3.044h32.631s10.865,7.093,20.785,1.5c0,0,3.867-5.328,7.493,12.685,0,0,11.119,37.037,28.278,33.231S281.819,196.393,281.819,196.393Z" transform="translate(-82.42 -63.06)"/><path class="m" d="M160.5,118.744v-2.736s11.375-6.715,20.617,0V118.5Z" transform="translate(-110.923 -64.253)"/><path class="m" d="M379.116,118.744v-2.736s11.375-6.715,20.617,0V118.5Z" transform="translate(-225.979 -64.253)"/><path class="k" d="M160.5,118.744v-2.736s11.375-6.715,20.617,0V118.5Z" transform="translate(-110.923 -64.253)"/><path class="k" d="M379.116,118.744v-2.736s11.375-6.715,20.617,0V118.5Z" transform="translate(-225.979 -64.253)"/><path class="m" d="M168.031,120.746H156.893s-2.844-3.482-12.323-3.233-11.375,3.233-11.375,3.233-9.36,6.591-11.493,14.8c0,0-11.493,36.189-11.73,64.543s10.19,32.333,15.64,33.08,15.166-.249,24.645-25.369l4.029-14.674s.711-8.705,9.242-3.233,16.114-2.985,16.114-2.985h31.991s10.664,6.964,20.38,1.492c0,0,3.792-5.223,7.346,12.436,0,0,10.9,36.313,27.726,32.582s14.929-34.075,14.929-34.075-2.251-46.386-11.493-62.8c0,0-8.886-17.037-14.811-17.783,0,0-12.8-2.487-17.773-.249l-2.844,2.487Z" transform="translate(-84.326 -66.504)"/><ellipse class="n" cx="20.617" cy="21.639" rx="20.617" ry="21.639" transform="translate(37.258 56.979)"/><ellipse class="n" cx="20.617" cy="21.639" rx="20.617" ry="21.639" transform="translate(144.843 56.979)"/><path class="m" d="M177.131,153.892l-2.749,2.552a1.23,1.23,0,0,1-1.685,0l-2.754-2.552a1.365,1.365,0,0,1-.431-.995v-7.021a1.308,1.308,0,0,1,1.275-1.336h5.51a1.243,1.243,0,0,1,.9.391,1.37,1.37,0,0,1,.373.947v7.014a1.364,1.364,0,0,1-.441,1Z" transform="translate(-115.665 -80.1)"/><path class="m" d="M177.131,179.839l-2.749-2.549a1.23,1.23,0,0,0-1.685,0l-2.754,2.552a1.365,1.365,0,0,0-.431.995v7.014a1.37,1.37,0,0,0,.373.947,1.243,1.243,0,0,0,.9.391h5.51a1.243,1.243,0,0,0,.9-.39,1.37,1.37,0,0,0,.374-.945v-7.014A1.364,1.364,0,0,0,177.131,179.839Z" transform="translate(-115.665 -96.399)"/><path class="m" d="M158.42,172.556l2.431-2.89a1.388,1.388,0,0,0,0-1.768l-2.431-2.89a1.25,1.25,0,0,0-.948-.453H150.79a1.308,1.308,0,0,0-1.273,1.338v5.783a1.37,1.37,0,0,0,.373.947,1.243,1.243,0,0,0,.9.391h6.683a1.248,1.248,0,0,0,.946-.458Z" transform="translate(-105.141 -90.164)"/><path class="m" d="M184.667,172.554l-2.427-2.893a1.386,1.386,0,0,1,0-1.768l2.431-2.89a1.248,1.248,0,0,1,.948-.453H192.3a1.243,1.243,0,0,1,.9.391,1.37,1.37,0,0,1,.373.947v5.783a1.37,1.37,0,0,1-.372.946,1.243,1.243,0,0,1-.9.392h-6.683A1.248,1.248,0,0,1,184.667,172.554Z" transform="translate(-122.195 -90.161)"/><path class="d" d="M114.649,122.835h7.109L118.2,119.6Z" transform="translate(-60.33 -60.136)"/><path class="d" d="M114.649,190.138h7.109l-3.555,3.233Z" transform="translate(-60.33 -95.603)"/><path class="d" d="M86.714,150.618v7.462l-3.081-3.731Z" transform="translate(-44.006 -75.732)"/><path class="d" d="M154.17,150.618v7.462l3.081-3.731Z" transform="translate(-81.129 -75.732)"/><ellipse class="n" cx="14.929" cy="15.669" rx="14.929" ry="15.669" transform="translate(70.908 86.576)"/><ellipse class="m" cx="9.953" cy="10.446" rx="9.953" ry="10.446" transform="translate(75.41 89.312)"/><ellipse class="n" cx="14.929" cy="15.669" rx="14.929" ry="15.669" transform="translate(122.568 86.576)"/><ellipse class="m" cx="9.953" cy="10.446" rx="9.953" ry="10.446" transform="translate(127.07 89.312)"/><ellipse class="o" cx="6.635" cy="6.964" rx="6.635" ry="6.964" transform="translate(78.728 92.794)"/><ellipse class="o" cx="6.635" cy="6.964" rx="6.635" ry="6.964" transform="translate(130.388 92.794)"/><ellipse class="n" cx="4.265" cy="4.477" rx="4.265" ry="4.477" transform="translate(107.875 99.51)"/><ellipse class="n" cx="0.931" cy="0.977" rx="0.931" ry="0.977" transform="translate(104.691 88.066)"/><ellipse class="n" cx="0.931" cy="0.977" rx="0.931" ry="0.977" transform="translate(108.179 88.066)"/><ellipse class="n" cx="0.931" cy="0.977" rx="0.931" ry="0.977" transform="translate(107.714 92.705)"/><ellipse class="n" cx="0.948" cy="0.995" rx="0.948" ry="0.995" transform="translate(110.956 92.794)"/><ellipse class="n" cx="0.931" cy="0.977" rx="0.931" ry="0.977" transform="translate(114.226 92.705)"/><ellipse class="n" cx="0.931" cy="0.977" rx="0.931" ry="0.977" transform="translate(106.319 90.508)"/><ellipse class="n" cx="0.948" cy="0.995" rx="0.948" ry="0.995" transform="translate(109.297 90.556)"/><ellipse class="n" cx="0.948" cy="0.995" rx="0.948" ry="0.995" transform="translate(112.378 90.556)"/><ellipse class="n" cx="0.931" cy="0.977" rx="0.931" ry="0.977" transform="translate(115.622 90.508)"/><ellipse class="n" cx="0.948" cy="0.995" rx="0.948" ry="0.995" transform="translate(110.956 88.068)"/><ellipse class="n" cx="0.948" cy="0.995" rx="0.948" ry="0.995" transform="translate(114.274 88.068)"/><ellipse class="n" cx="0.931" cy="0.977" rx="0.931" ry="0.977" transform="translate(117.018 88.066)"/><rect class="n" width="5.213" height="9.451" rx="2.607" transform="translate(74.699 55.984)"/><rect class="n" width="5.213" height="9.451" rx="2.607" transform="translate(143.895 55.984)"/><ellipse class="m" cx="5.687" cy="5.969" rx="5.687" ry="5.969" transform="translate(160.009 59.466)"/><ellipse class="m" cx="5.687" cy="5.969" rx="5.687" ry="5.969" transform="translate(147.924 72.15)"/><ellipse class="m" cx="5.687" cy="5.969" rx="5.687" ry="5.969" transform="translate(172.569 71.404)"/><ellipse class="m" cx="5.687" cy="5.969" rx="5.687" ry="5.969" transform="translate(160.957 84.586)"/><rect class="n" width="59.006" height="33.08" rx="10.881" transform="translate(82.282 52.502)"/><path class="p" d="M342.517,130.574l3.318-5.969,3.555,5.969Z" transform="translate(-180.257 -62.652)"/><rect class="p" width="5.924" height="5.472" transform="translate(150.649 75.384)"/><ellipse class="p" cx="3.318" cy="3.482" rx="3.318" ry="3.482" transform="translate(174.939 73.891)"/><line class="p" x2="5.332" y2="5.596" transform="translate(163.919 87.758)"/><line class="p" x1="5.45" y2="5.472" transform="translate(163.919 87.758)"/><path class="e" d="M210.783,340.764a4.212,4.212,0,0,0,1.592-2.057,1.755,1.755,0,0,0-1.111-2.094,3.451,3.451,0,0,0-2.941.883,4.223,4.223,0,0,1-2.858,1.181,3.416,3.416,0,0,0,1.346-3.482,1.37,1.37,0,0,0-.374-.709,2.042,2.042,0,0,0-2.273.112c-2.159,1.3-2.761,3.81-2.773,6.071a9.921,9.921,0,0,1-.04-2.5,2.418,2.418,0,0,0-1.1-2.214,3.761,3.761,0,0,0-1.673-.336,3.871,3.871,0,0,0-2.713.662,2.057,2.057,0,0,0,.107,2.853,10.42,10.42,0,0,0,2.808,1.928,5.9,5.9,0,0,1,2.007,1.639,1.517,1.517,0,0,1,.149.293h6.083A17.283,17.283,0,0,0,210.783,340.764Z" transform="translate(-129.257 -175.456)"/><path class="j" d="M491.026,334.87s-1.1,3.482-2.389,4.437,0,3.087,3.318,2.122,3.675-1.157,5.145-4.049,1.287-3.664,1.287-3.664-1.1-1.542-1.659-1.351S491.026,334.87,491.026,334.87Z" transform="translate(-283.361 -174.534)"/><path class="q" d="M466.625,155.45s-14.884,8.678-11.394,6.171c2.346-1.684,2.2-6.153,1.858-8.907-.109-.858-.237-1.55-.315-1.938-.045-.219-.073-.341-.073-.341s7.218-4.547,6.813-1.813h0a.164.164,0,0,1-.012.075,3.09,3.09,0,0,0-.055.555C463.4,152.063,466.625,155.45,466.625,155.45Z" transform="translate(-265.759 -81.713)"/><path class="q" d="M425.073,164.9s-1.287,2.122-3.491,0-9.187-8.486-9.187-8.486-3.123-8.1-5.332-6.556,2.574,9.066,2.574,9.066l10.474,11.764s.367,2.507,4.228,1.157,6.616-2.507,6.616-2.507Z" transform="translate(-240.381 -82.674)"/><path class="r" d="M458.152,219.879" transform="translate(-267.576 -117.981)"/><path class="i" d="M482.062,274.436l-7.346,2.7-.31.095.128-.674c1.1-5.785-5.687-19.094-6.984-20.059s-2.393-6.564-2.393-6.564-2.408-12.729-2.775-15.421a5.737,5.737,0,0,0-.837-1.952,15.881,15.881,0,0,1-1.422-3.572c-.808-2.985-2.692-8.282-2-11.279.14-.609-.431.948-.237.353l.111-.328,14.877-2.124a11.655,11.655,0,0,1,.692.982c1.126,1.753,1.052,1.753,1.289,5.086a35.986,35.986,0,0,1-.808,5.969c-2,9.359,2.514,21.887,2.514,21.887s3.675,8.872,2.941,12.535S482.062,274.436,482.062,274.436Z" transform="translate(-267.414 -115.836)"/><path class="k" d="M473.041,216.591c-2.2,2.9-16.3,5.148-16.128,4.228a2.048,2.048,0,0,0-.066-.95q.21-.917.507-1.808l.111-.328,14.884-2.122a11.639,11.639,0,0,1,.692.98Z" transform="translate(-266.888 -115.836)"/><path d="M465.846,155.08s-6.066,1.935-7.725,6.372,1.258,4.678,1.258,4.678-5.213,14.426-3.832,21.937A2.818,2.818,0,0,1,456.1,190c-.182.963,15.252-1.542,16.351-4.629s-5.145-8.678-3.491-13.886S465.846,155.08,465.846,155.08Z" transform="translate(-266.082 -85.4)"/><path class="k" d="M465.8,149.478a.629.629,0,0,1-.055.167c-.251.5-1.05-.047-.772.7-1.066,1.124-1.4,3.375-3.031,3.375a5.616,5.616,0,0,1-2.557-.609c-.109-.858-.237-1.55-.315-1.938.711-.443,6.4-3.9,6.74-2.154h0a1.2,1.2,0,0,1-.01.46Z" transform="translate(-268.06 -82.105)"/><ellipse class="q" cx="5.879" cy="6.171" rx="5.879" ry="6.171" transform="translate(188.003 58.889)"/><path class="k" d="M459.449,177.173l-10.289,5.014s-6.984-5.591-5.882-7.131,9.74-5.969,9.74-5.969S461.838,171,459.449,177.173Z" transform="translate(-259.685 -92.443)"/><path d="M459.451,176.413l-10.289,5.014s-6.984-5.594-5.879-7.136,9.74-5.969,9.74-5.969S461.84,170.232,459.451,176.413Z" transform="translate(-259.688 -92.058)"/><path class="k" d="M457.673,134.758a6.144,6.144,0,0,1-2.607-.674,1.646,1.646,0,0,1-.882-1.276,2.186,2.186,0,0,1,.979-1.562,3.558,3.558,0,0,1,1.055-.709,6.156,6.156,0,0,1,1.6-.167c1.583-.139,3-1.268,4.59-1.259a6.648,6.648,0,0,1,3.258,1.231c.813.483,1.716,1.094,1.851,2.064q.014.469.073.935c.168.691.877,1.094,1.13,1.756a2.169,2.169,0,0,1-.585,2.127c-.512.565-1.185.953-1.723,1.48a5.193,5.193,0,0,0-1.545,3.815.52.52,0,0,1-.04.276.453.453,0,0,1-.332.174c-.585.114-1.308.177-1.659-.331s-.073-1.353-.474-1.853c-.51-.644-1.581-.132-2.27-.555a1.433,1.433,0,0,1-.521-.654c-.569-1.286.083-2.3.32-3.524C460.173,134.618,458.637,134.86,457.673,134.758Z" transform="translate(-265.487 -72.342)"/><path class="s" d="M458.063,134.362a6.145,6.145,0,0,1-2.607-.674,1.646,1.646,0,0,1-.882-1.276,2.186,2.186,0,0,1,.979-1.562,3.558,3.558,0,0,1,1.055-.709,6.155,6.155,0,0,1,1.6-.167c1.583-.139,3-1.268,4.59-1.259a6.648,6.648,0,0,1,3.258,1.231c.813.483,1.716,1.094,1.851,2.064q.014.469.073.935c.168.691.877,1.094,1.13,1.756a2.169,2.169,0,0,1-.585,2.127c-.512.565-1.185.953-1.723,1.48a5.193,5.193,0,0,0-1.547,3.825.519.519,0,0,1-.04.276.452.452,0,0,1-.332.174c-.585.114-1.308.177-1.659-.331s-.073-1.353-.474-1.853c-.51-.644-1.581-.132-2.27-.555a1.433,1.433,0,0,1-.521-.654c-.573-1.288.081-2.306.318-3.547C460.561,134.226,459.025,134.469,458.063,134.362Z" transform="translate(-265.693 -72.143)"/></g></g></svg>