<svg xmlns="http://www.w3.org/2000/svg" width="40.727" height="36.313" viewBox="0 0 40.727 36.313"><defs><style>.a{fill:#cacaca;}</style></defs><path class="a" d="M13.622,37.24c0,.15-.189.27-.427.27-.271.023-.46-.1-.46-.27,0-.15.189-.27.427-.27C13.409,36.947,13.622,37.067,13.622,37.24ZM11.068,36.9c-.057.15.107.323.353.368.213.075.46,0,.509-.15s-.107-.323-.353-.39a.439.439,0,0,0-.509.173Zm3.629-.128c-.238.053-.4.2-.378.368.025.15.238.248.484.2s.4-.2.378-.345S14.936,36.751,14.7,36.774ZM20.1,8C8.712,8,0,15.907,0,26.322c0,8.327,5.731,15.453,13.918,17.961,1.051.173,1.421-.42,1.421-.909,0-.466-.025-3.034-.025-4.61,0,0-5.748,1.126-6.955-2.238,0,0-.936-2.185-2.283-2.748,0,0-1.88-1.179.131-1.156a4.421,4.421,0,0,1,3.169,1.937c1.8,2.9,4.812,2.065,5.986,1.569a4.049,4.049,0,0,1,1.314-2.53c-4.59-.466-9.221-1.074-9.221-8.3a5.454,5.454,0,0,1,1.938-4.423,6.532,6.532,0,0,1,.213-5.1c1.716-.488,5.666,2.027,5.666,2.027a21.149,21.149,0,0,1,10.313,0s3.949-2.523,5.666-2.027a6.529,6.529,0,0,1,.213,5.1c1.314,1.329,2.118,2.365,2.118,4.423,0,7.246-4.836,7.824-9.426,8.3a4.247,4.247,0,0,1,1.4,3.484c0,2.53-.025,5.662-.025,6.277,0,.488.378,1.081,1.421.909,8.211-2.493,13.778-9.619,13.778-17.946C40.727,15.907,31.489,8,20.1,8ZM7.981,33.9c-.107.075-.082.248.057.39.131.12.32.173.427.075.107-.075.082-.248-.057-.39C8.277,33.853,8.088,33.8,7.981,33.9Zm-.887-.608c-.057.1.025.218.189.293a.258.258,0,0,0,.353-.053c.057-.1-.025-.218-.189-.293C7.283,33.192,7.152,33.215,7.094,33.29Zm2.66,2.673c-.131.1-.082.323.107.466.189.173.427.2.534.075.107-.1.057-.323-.107-.466A.392.392,0,0,0,9.755,35.963Zm-.936-1.1c-.131.075-.131.27,0,.443s.353.248.46.173c.131-.1.131-.293,0-.466a.344.344,0,0,0-.46-.15Z" transform="translate(0 -8)"/></svg>