<svg xmlns="http://www.w3.org/2000/svg" width="280" height="209" viewBox="0 0 280 209"><defs><style>.a{fill:#e6e6e6;}.b{fill:#fff;}.c{fill:#c2341c;}.d{fill:#3f3d56;}.e{fill:#a0616a;}.f{fill:#2f2e41;}.g{fill:#ffb8b8;}.h{fill:#151515;}</style></defs><rect class="a" width="221.275" height="192.47" transform="translate(57.545 0.17)"/><rect class="b" width="79.883" height="111.484" transform="translate(77.111 26.016)"/><rect class="b" width="79.883" height="135.404" transform="translate(186.872 28.178)"/><ellipse class="a" cx="14.31" cy="2.776" rx="14.31" ry="2.776" transform="translate(251.381 201.082)"/><ellipse class="a" cx="14.31" cy="2.776" rx="14.31" ry="2.776" transform="translate(108.313 201.144)"/><ellipse class="a" cx="32.842" cy="2.136" rx="32.842" ry="2.136" transform="translate(0 199.008)"/><rect class="c" width="221.275" height="12.767" transform="translate(57.45)"/><ellipse class="a" cx="1.742" cy="2.366" rx="1.742" ry="2.366" transform="translate(62.693 4.161)"/><ellipse class="a" cx="1.742" cy="2.366" rx="1.742" ry="2.366" transform="translate(69.308 4.161)"/><ellipse class="a" cx="1.742" cy="2.366" rx="1.742" ry="2.366" transform="translate(75.921 4.161)"/><path class="d" d="M851.318,318.227h-.484v-18c0-5.755-3.435-10.42-7.672-10.42H815.077c-4.237,0-7.672,4.665-7.672,10.42V399c0,5.755,3.435,10.42,7.672,10.42h28.085c4.237,0,7.672-4.665,7.672-10.42V331.043h.484Z" transform="translate(-602.176 -253.729)"/><path class="b" d="M847.086,296.15H843.42a4.853,4.853,0,0,1-.261,3.459,2.627,2.627,0,0,1-2.259,1.635H824.81a2.627,2.627,0,0,1-2.259-1.635,4.852,4.852,0,0,1-.261-3.459h-3.424c-3.164,0-5.73,3.484-5.73,7.782v98.628c0,4.3,2.565,7.782,5.73,7.782h28.221c3.164,0,5.73-3.484,5.73-7.782V303.932c0-4.3-2.565-7.782-5.729-7.782Z" transform="translate(-606.104 -257.365)"/><rect class="a" width="55.523" height="3.44" transform="translate(89.347 96.438)"/><rect class="c" width="55.523" height="3.44" transform="translate(89.347 107.544)"/><rect class="a" width="55.523" height="3.44" transform="translate(89.347 118.649)"/><rect class="a" width="32.414" height="3.44" transform="translate(210.979 103.943)"/><rect class="a" width="32.414" height="3.44" transform="translate(210.979 114.621)"/><rect class="a" width="32.414" height="3.44" transform="translate(210.979 125.3)"/><rect class="d" width="7.337" height="5.402" transform="translate(246.781 171.375) rotate(90)"/><rect class="c" width="7.337" height="5.402" transform="translate(238.078 171.375) rotate(90)"/><rect class="d" width="7.337" height="5.402" transform="translate(229.374 171.375) rotate(90)"/><rect class="d" width="7.337" height="5.402" transform="translate(220.671 171.375) rotate(90)"/><rect class="d" width="7.337" height="5.402" transform="translate(211.967 171.375) rotate(90)"/><rect class="c" width="18.008" height="24.457" transform="translate(217.867 59.368)"/><path class="e" d="M501.914,468.631l-.233.633-.7-4.749s-.932-5.065.932-5.065,1.4,5.065,1.4,5.065V468Z" transform="translate(-391.963 -350.914)"/><path class="e" d="M598.535,467.113l.233.633.7-4.749s.932-5.065-.932-5.065-1.4,5.065-1.4,5.065v3.482Z" transform="translate(-458.002 -350.044)"/><path class="f" d="M376.119,358.94l-2.8,23.426,1.4,22.793,3.263-1.9-.466-17.1,3.263-13.613.7,16.145-1.4,16.778,4.2.633,3.03-34.506-.233-11.713Z" transform="translate(-255.912 -205.622)"/><path class="f" d="M533.508,665.4l-1.632,3.482v7.781a.9.9,0,0,0,.584.931c.8.178,2.192.3,2.679-.8.7-1.583.233-5.065.233-5.065a9.186,9.186,0,0,0,.466-4.432c-.466-1.9-.932-2.216-.932-2.216Z" transform="translate(-413.301 -468.713)"/><path class="f" d="M553.2,672.812l.466.95s.7.95.233,1.583a12.5,12.5,0,0,0-.932,1.583s-2.564.95-2.564-.317V672.5Z" transform="translate(-426.002 -472.959)"/><ellipse class="e" cx="3.09" cy="4.196" rx="3.09" ry="4.196" transform="translate(123.27 119.16)"/><path class="e" d="M394.677,291.867l-.233,6.015,4.2.316-.233-6.015Z" transform="translate(-270.392 -167.199)"/><path d="M540.608,508.5l-.662-2.2s-3.068-1.6-4-.021l-.466,1.9-3.729-1.266-2.1,6.331,1.865,18.044s4.895,8.547,11.421.317l1.865-17.095-1.4-6.648Z" transform="translate(-411.777 -377.344)"/><path d="M417.049,286.41l.466-1.266,4.662-3.8,2.845-11.438,2.2,1.281-2.483,13.639-6.76,8.547Z" transform="translate(-285.887 -154.619)"/><path d="M357.554,285.732l-.466-.633-4.895-4.116-3.5-9.5-2.8,1.266,3.03,11.713,7.459,8.231Z" transform="translate(-237.114 -155.523)"/><path class="f" d="M551.821,476.9l.505-.343-.758-.343v-.343s-3.789-2.058-4.294,1.372a8.941,8.941,0,0,0,0,8.233V486.5l4.041.686.505-2.058S554.346,478.957,551.821,476.9Z" transform="translate(-423.168 -359.969)"/><path class="g" d="M262.018,565.16l-.9.61s-3.592,2.236-2.544,3.456,3.891-1.22,3.891-1.22l.6-1.016Z" transform="translate(-225.822 -411.471)"/><path class="f" d="M170.072,359.1,167.3,384.406l-4.191,17.685-2.245-1.423,2.1-24.19-5.987-6.912.449-10.164Z" transform="translate(-107.603 -205.713)"/><path class="f" d="M320.381,662.369s2.544-1.829,2.694.813l-.3,2.643s.9,4.675-2.1,3.659-.9-4.066-.9-4.066Z" transform="translate(-267.422 -466.804)"/><path class="f" d="M313.764,583.72l-1.946,2.236s0,13.823,1.347,15.856,9.878,12.4,10.178,12.807,1.646-4.066,1.646-4.066l-8.082-12.807.6-7.928Z" transform="translate(-262.451 -422.103)"/><path class="f" d="M347.906,645.01s2.395-.61,2.395,1.626q.045,2.652.3,5.285s.6,7.115-1.347,6.1-2.694-8.131-2.694-8.131a2.959,2.959,0,0,1,.9-1.423C348.056,648.059,347.906,645.01,347.906,645.01Z" transform="translate(-286.266 -457.17)"/><path class="g" d="M162.737,288.424l.449,7.522-1.2,2.846-3.293-4.269-.3-5.692Z" transform="translate(-108.581 -165.227)"/><ellipse class="g" cx="3.592" cy="4.879" rx="3.592" ry="4.879" transform="translate(47.87 115.88)"/><path d="M158.6,297.651l1.5-5.895,2.694,4.066,4.939,25.816-3.742,3.049-1.646-3.253-.3,4.269-7.334-2.033-.6-27.239,1.5-2.861Z" transform="translate(-105.646 -167.135)"/><path class="g" d="M350.287,565.595l-.2,1.335s-.934,5.215.42,4.854,1.707-4.9,1.707-4.9l-.216-1.268Z" transform="translate(-288.467 -411.72)"/><path class="f" d="M309.566,467.921l1.054-.716v.716l.7-.477v1.193s2.636,2.625,2.109,5.728-.527,3.341-.527,3.341-.667-5.9-3.3-4.946-2.848,1.127-3.551,3.753l-.191,1.126S302.888,468.4,309.566,467.921Z" transform="translate(-257.915 -355.355)"/><rect class="c" width="44.131" height="41.651" transform="translate(1.111 158.372)"/><path class="b" d="M208.166,595.148c-5.164,0-9.35,5.685-9.35,12.7s4.186,12.7,9.35,12.7,9.35-5.685,9.35-12.7c-.015-7-4.192-12.678-9.35-12.7Zm0,3.81c1.549,0,2.8,1.706,2.8,3.81s-1.256,3.81-2.8,3.81-2.8-1.706-2.8-3.81S206.619,598.965,208.166,598.958Zm0,18.34c-2.25-.014-4.349-1.536-5.61-4.066.045-2.54,3.74-3.938,5.61-3.938s5.565,1.4,5.61,3.938c-1.262,2.528-3.361,4.049-5.61,4.066Z" transform="translate(-184.988 -428.649)"/><rect class="a" width="55.352" height="43.141" transform="translate(89.377 38.83)"/><path class="g" d="M959.569,487.034l.256-2.247s1.495-4.615.313-4.864-2.167,4.145-2.167,4.145l.432,4.692Z" transform="translate(-705.39 -362.636)"/><path class="h" d="M814.2,302.738l-10.561-2.881-1.227-10.447-3.109-.326.152,13.507,9.176,6.534Z" transform="translate(-547.922 -165.604)"/><rect class="c" width="32.414" height="3.44" transform="translate(269.96 121.635) rotate(180)"/><path class="g" d="M952.325,485.2l0-2.274s.961-4.87-.235-4.872-1.678,4.544-1.678,4.544l.952,4.549Z" transform="translate(-700.209 -361.569)"/><path class="f" d="M989.755,492.348l1.449-.48a3.458,3.458,0,0,0,2.89-1.856,6.469,6.469,0,0,0,.771-4.214h0c0-3.657-2.177-6.626-4.87-6.631h0c-2.693,0-4.878,2.957-4.882,6.614h0a6.665,6.665,0,0,0,.929,5.1A3.263,3.263,0,0,0,989.755,492.348Z" transform="translate(-723.893 -362.209)"/><path class="f" d="M818.254,377.984l1.18,17.541,2.136,17.218,3.587.006-.463-16.89L822.8,375.393Z" transform="translate(-560.913 -215.047)"/><path class="f" d="M972.978,665.9l-2.393,1.945s-3.827.643-3.111,2.268,9.087.665,9.087.016-.235-4.223-.714-4.224Z" transform="translate(-711.843 -469.183)"/><path class="f" d="M986.819,578.769a19.308,19.308,0,0,1-1.745,6.4l.228,12.018,8.6,14.955-3.112,3.567-10.507-16.258-2.613-19.492,3.352-4.541Z" transform="translate(-718.89 -417.349)"/><path class="f" d="M1019.471,661.394s2.869.654,2.389,2.278-1.682,9.091-4.79,8.112c0,0-1.435,0-.955-1.3q.432-1.171.959-2.272l0-4.222Z" transform="translate(-745.179 -466.599)"/><ellipse class="g" cx="3.587" cy="4.872" rx="3.587" ry="4.872" transform="translate(260.724 120.725)"/><path class="g" d="M837.377,301.645l-.005,5.521-3.826-.006.483-5.52Z" transform="translate(-571.396 -172.797)"/><path d="M975.914,514.828l1.159-.387,3.623.395s1.911,2.6,1.671,3.251-1.45,16.562-1.45,16.562l2.142,11.371-7.653.637L971.58,546l.736-20.461s-1.669-5.524.485-7.145a10.886,10.886,0,0,0,3.112-3.567Z" transform="translate(-714.719 -382.416)"/><path d="M808.77,298.651l-10.761-.668-2.382-10.072-3.109.319,1.661,13.32,9.8,4.564Z" transform="translate(-543.271 -164.933)"/><ellipse class="f" cx="2.314" cy="3.143" rx="2.314" ry="3.143" transform="translate(268.921 115.721)"/><path class="f" d="M1009.329,475.142a3.67,3.67,0,0,1,.849-2.429,1.887,1.887,0,0,1,1.921-.648,1.842,1.842,0,0,0-2.456.411,3.85,3.85,0,0,0-.777,3.191,2.8,2.8,0,0,0,1.791,2.319,3.365,3.365,0,0,1-1.327-2.844Z" transform="translate(-740.23 -357.967)"/><path class="f" d="M988.429,482.8l-3.12-.78-2.4,2.043a5.711,5.711,0,0,0-1.677,4.824l2.4-.827.538-1.833.641,1.427,2.6,6.174,2.632-1.944,1.677-3.57Z" transform="translate(-721.314 -363.843)"/><path class="b" d="M34.318,15.358l.8-.1L25.249,84.742l-.8.1Z" transform="translate(58.818 61.322) rotate(-60.15)"/><path class="b" d="M15.355,34.313l69.48-9.866-.1.8-69.48,9.866Z" transform="matrix(0.867, -0.498, 0.498, 0.867, 58.824, 59.479)"/><g transform="matrix(0.998, -0.07, 0.07, 0.998, 48.264, 138.274)"><g transform="translate(2.313 7.04)"><path class="b" d="M0,.934V.418C0,.152.141,0,.313,0S.606.134.606.376V.464H.45V.4C.45.286.4.213.313.213S.174.292.174.42v.5c0,.147.056.217.141.217S.45,1.07.45.958V.886H.606V.974c0,.246-.128.378-.291.378S0,1.226,0,.934Z" transform="translate(0 0)"/><path class="b" d="M.254,0h.21l.25,1.31H.54L.484,1H.215L.16,1.31H0ZM.447.8.352.255h0L.252.8Z" transform="translate(0.665 0.02)"/><path class="b" d="M.23.211H0V0H.631V.211H.4v1.1H.23V.211Z" transform="translate(1.361 0.022)"/><path class="c" d="M0,0H.248C.41,0,.5.147.5.367.5.561.432.708.3.732l.222.576H.442L.23.749H.071v.56H0ZM.229.662c.131,0,.2-.1.2-.288C.424.209.37.09.237.09H.071V.662Z" transform="translate(2.333 0.022)"/><path class="c" d="M0,.639V.349C0,.123.091,0,.215,0s.2.123.2.325V.5H.069V.642c0,.165.054.242.161.242A.233.233,0,0,0,.382.815l.024.07A.233.233,0,0,1,.221.972C.09.973,0,.872,0,.639ZM.351.424V.314C.351.2.317.081.208.081S.069.2.069.317V.424H.351Z" transform="translate(2.969 0.38)"/><path class="c" d="M0,1.13V0H.068V1.118c0,.064.019.108.074.108A.255.255,0,0,0,.2,1.219V1.3a.149.149,0,0,1-.075.018C.045,1.319,0,1.252,0,1.13Z" transform="translate(3.54 0.022)"/><path class="c" d="M0,.64V.334C0,.121.087,0,.21,0S.422.116.422.33v.3c0,.224-.086.338-.21.338S0,.855,0,.64ZM.354.635V.323C.354.191.313.082.209.082S.068.2.068.332v.3c0,.154.042.25.146.25S.354.774.354.635Z" transform="translate(3.84 0.38)"/><path class="c" d="M0,.706C0,.492.12.417.218.415H.343V.244C.343.127.292.077.216.077A.138.138,0,0,0,.081.231V.288H.021V.229A.2.2,0,0,1,.225,0c.1,0,.187.072.187.237V.712C.412.78.417.9.418.95H.355L.35.8h0C.309.932.225.971.167.971.079.971,0,.883,0,.706ZM.343.646V.488H.23c-.073,0-.16.037-.16.2,0,.136.057.2.117.2C.272.89.343.787.343.646Z" transform="translate(4.389 0.38)"/><path class="c" d="M0,1.068V.646C0,.455.088.358.181.358c.066,0,.137.055.162.165h0V0H.413V1.308H.353l0-.174h0c-.041.147-.116.2-.179.2C.057,1.33,0,1.213,0,1.068ZM.346.947V.718C.346.56.269.435.192.435S.068.488.068.646v.406c0,.116.035.193.121.193S.346,1.13.346.947Z" transform="translate(4.954 0.022)"/><path class="c" d="M0,.639V.349C0,.123.091,0,.215,0s.2.123.2.325V.5H.069V.642c0,.165.054.242.161.242A.233.233,0,0,0,.382.815l.024.07A.233.233,0,0,1,.221.972C.089.973,0,.872,0,.639ZM.351.424V.314C.351.2.317.081.208.081S.069.2.069.317V.424H.351Z" transform="translate(5.528 0.38)"/><path class="c" d="M0,1.068V.646C0,.455.088.358.181.358c.066,0,.137.055.162.165h0V0H.413V1.308H.353l0-.174h0c-.041.147-.116.2-.179.2C.057,1.33,0,1.213,0,1.068ZM.346.947V.718C.346.56.269.435.192.435S.068.488.068.646v.406c0,.116.035.193.121.193S.346,1.13.346.947Z" transform="translate(6.074 0.022)"/></g><g transform="translate(0 0)"><path class="c" d="M1.735,0C1.165,0,.73.731.552,1.115A5.674,5.674,0,0,0,0,3.748C.038,5.975.966,7.332,1.719,7.572V6.944C.836,6.6.36,4.961.363,3.66A5.047,5.047,0,0,1,.842,1.523C1.011,1.2,1.319.7,1.739.6Zm.391.83a.943.943,0,0,0-.519.152,2.6,2.6,0,0,0-.93,1.576,5.472,5.472,0,0,0,.2,3.025c.484,1.029,1.187,1.346,1.771.921a2.692,2.692,0,0,0,.323-.274L2.793,5.7a2.3,2.3,0,0,1-.287.246C1.43,6.532.534,4.568,1,2.834a2.183,2.183,0,0,1,.715-1.247.788.788,0,0,1,1.064.249A3.437,3.437,0,0,1,3.3,4.493c-.046.2-.147.349-.271.367,0-.216,0-.533,0-.791a4.851,4.851,0,0,0-.057-.863c-.124-.777-.524-1.111-.857-1.1-.4.017-.554.271-.724.692a2.67,2.67,0,0,0,.227,2.411.625.625,0,0,0,.667.256.708.708,0,0,0,.209-.11c.059-.047.138-.11.109-.113v-.67a1.907,1.907,0,0,1-.233.219.465.465,0,0,1-.142.077c-.192.024-.285-.024-.44-.207-.442-.518-.265-1.926.322-1.968.253.051.424.244.512.717a3.846,3.846,0,0,1,.047.679c0,.431,0,1.033,0,1.033l0,.353h.139a1.663,1.663,0,0,0,.183,0,.577.577,0,0,0,.163-.041.408.408,0,0,0,.181-.156,1.535,1.535,0,0,0,.232-.535,4.556,4.556,0,0,0,.092-1.227,3.771,3.771,0,0,0-.7-2.212A1.209,1.209,0,0,0,2.125.83Z" transform="translate(0 0)"/><path class="b" d="M3.663,0c-.153,0-.307.168-.384.492-.186.779-.234.956-.426,1.8-.128.563-.2.839-.364,1.544-.05.214-.3,1.257-.3,1.257l.614.005c.148-.638.162-.686.21-.913.124-.461.2-.835.332-1.384.107-.435.162-.688.207-.869.049-.2.053-.292.112-.3.042,0,.085.248.2.7.066.267.185.774.228.953s.065.314.1.415a2.673,2.673,0,0,1,.07.274c.008.049-.105.019-.248.021-.271,0-.661,0-.661,0l-.259,1.1c.746.023,1.294-.037,2.035.006C4.792,3.66,4.166,1.035,4.135.9S4.062.6,4.043.513C3.968.167,3.816,0,3.663,0ZM.713.083S.5.123.453.191C.245.371.071.723.007,2.022A11.567,11.567,0,0,0,.1,4.141c.088.488.3.938.487.945h1.4l.241-1.1S1.266,4.005.806,4c-.273,0-.22-1.185-.23-1.88,0,0,.023-.931.184-.925.509.019,2.054-.007,2.054-.007L3.1.1ZM4.208.1c0,.028.279,1.1.27,1.1.3,0,.618-.023.95,0V5.085l.563,0v-3.9l.981,0c.005-.524,0-.792,0-1.082C6.027.1,5.206.1,4.208.1Z" transform="translate(4.142 1.237)"/></g></g><path class="b" d="M19.912,8.4l.742-.113-4.54,29.892-.742.113Z" transform="translate(197.765 67.772) rotate(-45)"/><path class="b" d="M8.4,19.912l29.892-4.54-.113.742L8.29,20.653Z" transform="translate(197.765 75.239) rotate(-45)"/><g transform="translate(120.364 140.772)"><g transform="translate(2.158 5.946)"><path class="b" d="M0,.789V.353C0,.129.132,0,.292,0A.28.28,0,0,1,.565.318V.392H.42V.338C.42.242.37.18.292.18S.162.246.162.355V.779C.162.9.214.962.294.962S.42.9.42.809V.748H.565V.823c0,.208-.12.319-.272.319S0,1.035,0,.789Z" transform="translate(0 0)"/><path class="b" d="M.237,0h.2L.667,1.107H.5L.451.842H.2l-.052.265H0Zm.18.672L.328.215h0L.235.672Z" transform="translate(0.621 0.017)"/><path class="b" d="M.214.178H0V0H.589V.178H.376V1.1H.214V.178Z" transform="translate(1.27 0.018)"/><path class="c" d="M0,0H.231C.382,0,.463.124.463.31.463.474.4.6.28.618L.487,1.1H.413L.214.632H.067V1.1H0ZM.213.559C.335.559.4.479.4.316.4.177.345.076.221.076H.067V.559Z" transform="translate(2.177 0.018)"/><path class="c" d="M0,.539V.294C0,.1.085,0,.2,0S.387.1.387.274V.423H.064V.542c0,.139.051.2.15.2A.227.227,0,0,0,.356.688L.379.747A.227.227,0,0,1,.206.821C.084.821,0,.736,0,.539ZM.327.358V.265c0-.1-.032-.2-.133-.2s-.13.1-.13.2v.09H.327Z" transform="translate(2.771 0.321)"/><path class="c" d="M0,.955V0H.063V.944c0,.054.018.091.069.091a.262.262,0,0,0,.051-.006V1.1a.151.151,0,0,1-.07.016C.042,1.114,0,1.057,0,.955Z" transform="translate(3.303 0.018)"/><path class="c" d="M0,.541V.282C0,.1.081,0,.2,0s.2.1.2.279V.536c0,.189-.08.285-.2.285S0,.722,0,.541Zm.331,0V.273C.331.161.292.07.2.07S.063.166.063.28V.538C.063.668.1.748.2.748S.331.654.331.536Z" transform="translate(3.584 0.321)"/><path class="c" d="M0,.6C0,.415.112.352.2.35H.32V.206C.32.107.273.065.2.065A.122.122,0,0,0,.076.2V.243H.019V.194A.18.18,0,0,1,.21,0c.1,0,.175.06.175.2V.6c0,.057,0,.16.006.2H.331l0-.13h0A.183.183,0,0,1,.156.82C.073.82,0,.746,0,.6ZM.32.546V.412H.214C.147.412.065.443.065.584.065.7.118.752.175.752.254.752.32.665.32.546Z" transform="translate(4.095 0.321)"/><path class="c" d="M0,.9V.546C0,.384.082.3.169.3A.165.165,0,0,1,.32.442h0V0H.386V1.1H.329l0-.147h0c-.038.124-.108.166-.167.166C.053,1.124,0,1.024,0,.9ZM.322.8V.606C.322.473.251.367.179.367S.063.412.063.546V.888c0,.1.033.163.113.163S.322.955.322.8Z" transform="translate(4.623 0.018)"/><path class="c" d="M0,.539V.294C0,.1.085,0,.2,0S.387.1.387.274V.423H.064V.542c0,.139.051.2.15.2A.227.227,0,0,0,.356.688L.379.747A.227.227,0,0,1,.206.821C.083.821,0,.736,0,.539ZM.327.358V.265c0-.1-.032-.2-.133-.2s-.13.1-.13.2v.09H.327Z" transform="translate(5.159 0.321)"/><path class="c" d="M0,.9V.546C0,.384.082.3.169.3A.165.165,0,0,1,.32.442h0V0H.386V1.1H.329l0-.147h0c-.038.124-.108.166-.167.166C.053,1.124,0,1.024,0,.9ZM.323.8V.606C.323.473.251.367.179.367S.063.412.063.546V.888c0,.1.033.163.113.163S.323.955.323.8Z" transform="translate(5.668 0.018)"/></g><g transform="translate(0 0)"><path class="c" d="M1.619,0C1.087,0,.681.617.515.942A4.416,4.416,0,0,0,0,3.165C.035,5.046.9,6.192,1.6,6.395v-.53C.78,5.573.336,4.19.338,3.091A3.938,3.938,0,0,1,.786,1.286,1.509,1.509,0,0,1,1.623.507Zm.365.7A.949.949,0,0,0,1.5.83,2.172,2.172,0,0,0,.631,2.16,4.206,4.206,0,0,0,.814,4.715c.452.869,1.107,1.137,1.653.778a2.459,2.459,0,0,0,.3-.232l-.162-.445a2.1,2.1,0,0,1-.268.207C1.334,5.516.5,3.858.931,2.394A1.81,1.81,0,0,1,1.6,1.34a.786.786,0,0,1,.993.21,2.687,2.687,0,0,1,.491,2.244c-.043.172-.138.295-.253.31,0-.182,0-.45,0-.668a3.716,3.716,0,0,0-.053-.729c-.115-.656-.489-.939-.8-.93-.376.015-.517.229-.675.585A2.073,2.073,0,0,0,1.51,4.4a.616.616,0,0,0,.623.217.686.686,0,0,0,.2-.093c.055-.04.128-.093.1-.1V3.86a1.723,1.723,0,0,1-.217.185.451.451,0,0,1-.132.065.412.412,0,0,1-.41-.175c-.412-.437-.247-1.626.3-1.662.236.043.4.206.477.606a2.946,2.946,0,0,1,.044.574c0,.364,0,.873,0,.873l0,.3h.129s.077,0,.171,0a.585.585,0,0,0,.152-.034.374.374,0,0,0,.169-.132A1.241,1.241,0,0,0,3.332,4a3.494,3.494,0,0,0,.086-1.036A2.988,2.988,0,0,0,2.767,1.1,1.165,1.165,0,0,0,1.983.7Z" transform="translate(0 0)"/><path class="b" d="M3.418,0c-.143,0-.287.142-.359.416-.173.658-.219.808-.4,1.518-.12.476-.186.708-.34,1.3C2.275,3.419,2.045,4.3,2.045,4.3l.573,0c.138-.539.151-.579.2-.771.115-.389.184-.705.31-1.169.1-.367.152-.581.193-.734.046-.17.049-.247.1-.251.039,0,.079.209.183.59.062.225.173.653.213.8s.061.265.091.351a2.084,2.084,0,0,1,.066.231c.007.041-.1.016-.232.018-.253,0-.617,0-.617,0L2.884,4.3c.7.019,1.208-.031,1.9,0-.312-1.214-.9-3.43-.925-3.544S3.79.509,3.773.434C3.7.141,3.561,0,3.418,0ZM.665.07S.467.1.422.161C.229.313.066.61.006,1.707A8.851,8.851,0,0,0,.091,3.5c.083.412.282.792.454.8H1.854l.225-.93s-.9.018-1.326.016c-.255,0-.205-1-.215-1.588,0,0,.021-.786.172-.781.475.016,1.917-.006,1.917-.006L2.894.088ZM3.926.083c0,.024.26.928.252.931.282,0,.576-.02.887,0v3.28l.525,0V1l.916,0c.005-.443,0-.669,0-.914-.883-.005-1.649,0-2.581,0Z" transform="translate(3.865 1.045)"/></g></g><path class="f" d="M147.7,328.97l-.9-32.931-1.946,2.033-3.592,3.252,2.395,11.587.748,12.2Z" transform="translate(-96.837 -169.589)"/><path class="f" d="M122.738,308.615l-1.048-.2L118.7,320.405,112.71,330.57l2.245,3.252,6.885-9.148,2.545-7.521Z" transform="translate(-77.263 -176.677)"/><path class="f" d="M172.143,290.983l7.418,3.989-.9,12.2,1.8,13.417-1.8,2.642-6.641-30.517Z" transform="translate(-117.921 -166.692)"/><path class="f" d="M190.052,300.322h1.2l1.946,14.229v12.4l-2.395-.61-1.946-18.7Z" transform="translate(-129.46 -172.042)"/><g transform="matrix(0.998, -0.07, 0.07, 0.998, 260.144, 137.866)"><g transform="translate(2.313 7.04)"><path class="b" d="M0,.934V.418C0,.152.141,0,.313,0S.606.134.606.376V.464H.45V.4C.45.286.4.213.313.213S.174.292.174.42v.5c0,.147.056.217.141.217S.45,1.07.45.958V.886H.606V.974c0,.246-.128.378-.291.378S0,1.226,0,.934Z" transform="translate(0 0)"/><path class="b" d="M.254,0h.21l.25,1.31H.54L.484,1H.215L.16,1.31H0ZM.447.8.352.255h0L.252.8Z" transform="translate(0.665 0.02)"/><path class="b" d="M.23.211H0V0H.631V.211H.4v1.1H.23V.211Z" transform="translate(1.361 0.022)"/><path class="c" d="M0,0H.248C.41,0,.5.147.5.367.5.561.432.708.3.732l.222.576H.442L.23.749H.071v.56H0ZM.229.662c.131,0,.2-.1.2-.288C.424.209.37.09.237.09H.071V.662Z" transform="translate(2.333 0.022)"/><path class="c" d="M0,.639V.349C0,.123.091,0,.215,0s.2.123.2.325V.5H.069V.642c0,.165.054.242.161.242A.233.233,0,0,0,.382.815l.024.07A.233.233,0,0,1,.221.972C.09.973,0,.872,0,.639ZM.351.424V.314C.351.2.317.081.208.081S.069.2.069.317V.424H.351Z" transform="translate(2.969 0.38)"/><path class="c" d="M0,1.13V0H.068V1.118c0,.064.019.108.074.108A.255.255,0,0,0,.2,1.219V1.3a.149.149,0,0,1-.075.018C.045,1.319,0,1.252,0,1.13Z" transform="translate(3.54 0.022)"/></g><g transform="translate(0 0)"><path class="c" d="M1.735,0C1.165,0,.73.731.552,1.115A5.674,5.674,0,0,0,0,3.748C.038,5.975.966,7.332,1.719,7.572V6.944C.836,6.6.36,4.961.363,3.66A5.047,5.047,0,0,1,.842,1.523C1.011,1.2,1.319.7,1.739.6Zm.391.83a.943.943,0,0,0-.519.152,2.6,2.6,0,0,0-.93,1.576,5.472,5.472,0,0,0,.2,3.025c.484,1.029,1.187,1.346,1.771.921a2.692,2.692,0,0,0,.323-.274L2.793,5.7a2.3,2.3,0,0,1-.287.246C1.43,6.532.534,4.568,1,2.834a2.183,2.183,0,0,1,.715-1.247.788.788,0,0,1,1.064.249A3.437,3.437,0,0,1,3.3,4.493c-.046.2-.147.349-.271.367,0-.216,0-.533,0-.791a4.851,4.851,0,0,0-.057-.863c-.124-.777-.524-1.111-.857-1.1-.4.017-.554.271-.724.692a2.67,2.67,0,0,0,.227,2.411.625.625,0,0,0,.667.256.708.708,0,0,0,.209-.11c.059-.047.138-.11.109-.113v-.67a1.907,1.907,0,0,1-.233.219.465.465,0,0,1-.142.077c-.192.024-.285-.024-.44-.207-.442-.518-.265-1.926.322-1.968.253.051.424.244.512.717a3.846,3.846,0,0,1,.047.679c0,.431,0,1.033,0,1.033l0,.353h.139a1.663,1.663,0,0,0,.183,0,.577.577,0,0,0,.163-.041.408.408,0,0,0,.181-.156,1.535,1.535,0,0,0,.232-.535,4.556,4.556,0,0,0,.092-1.227,3.771,3.771,0,0,0-.7-2.212A1.209,1.209,0,0,0,2.125.83Z" transform="translate(0 0)"/><path class="b" d="M.713.083S.5.123.453.191C.245.371.071.723.007,2.022A11.567,11.567,0,0,0,.1,4.141c.088.488.3.938.487.945h1.4l.241-1.1S1.266,4.005.806,4c-.273,0-.22-1.185-.23-1.88,0,0,.023-.931.184-.925.509.019,2.054-.007,2.054-.007L2.959.114Z" transform="translate(4.142 1.237)"/></g></g></svg>