<svg xmlns="http://www.w3.org/2000/svg" width="280" height="209" viewBox="0 0 280 209"><defs><style>.a{fill:#f0f0f0;}.b{fill:#ccc;}.c{fill:#e6e6e6;}.d{fill:#c2341c;}.e{fill:#fff;}.f{fill:#2f2e41;}.g{fill:#b3b3b3;}.h{fill:#ffb6b6;}</style></defs><path class="a" d="M138.946,10.132A80.976,80.976,0,0,1,161,16.893c9.7,4.695,17.714,11.9,26.835,17.514,15.544,9.559,34.157,14.967,51.826,18.708,7.057,1.506,14.2,2.9,20.554,6.3,9.7,5.2,16.655,14.637,21.489,24.641,10.586,21.96,12.518,48.6,3.1,71.135-9.21,21.906-30.249,40.41-54.155,42.762-30.17,3.127-60.33,9.1-90.553,12.873-20.986,3.136-42.061,6.236-63.277,6.512-8.822.1-17.872-.339-26.279-3.216-15.773-5.425-30.02-16.606-36.195-32.57a52.436,52.436,0,0,1,1.209-40.4c3.529-7.742,9.016-14.575,11.583-22.7,2.32-7.341,2.064-15.091,1.711-22.69a56.967,56.967,0,0,1,2.6-20.917c4.181-13.8,10.771-26.993,20.078-37.969C62.993,23.29,78.783,13.116,96.17,9.838a105.289,105.289,0,0,1,20.369-1.452,144.084,144.084,0,0,1,22.407,1.746Z" transform="translate(-10.874 -8.35)"/><g transform="translate(106 45.738)"><path class="b" d="M703.149,726.232H599.179a.243.243,0,1,1,0-.482h103.97a.243.243,0,1,1,0,.482Z" transform="translate(-598.906 -592.22)"/><path class="c" d="M926.266,279.388h-.23a1.035,1.035,0,0,1-1.092-.965V270.76a1.035,1.035,0,0,1,1.092-.965h.23a1.035,1.035,0,0,1,1.092.965v7.663A1.035,1.035,0,0,1,926.266,279.388Z" transform="translate(-835.972 -246.263)"/><path class="c" d="M648.345,250.775h-.231a1.035,1.035,0,0,1-1.092-.965v-4.436a1.035,1.035,0,0,1,1.092-.965h.231a1.035,1.035,0,0,1,1.092.965v4.436A1.035,1.035,0,0,1,648.345,250.775Z" transform="translate(-633.893 -227.001)"/><path class="c" d="M648.345,295.543h-.231a1.035,1.035,0,0,1-1.092-.965v-4.436a1.035,1.035,0,0,1,1.092-.965h.231a1.035,1.035,0,0,1,1.092.965v4.436A1.035,1.035,0,0,1,648.345,295.543Z" transform="translate(-633.893 -260.969)"/><path class="d" d="M719.359,306.775h-55.01c-5.234-.005-9.476-3.755-9.481-8.382V181.632c.006-4.627,4.247-8.377,9.481-8.382h55.01c5.234.005,9.476,3.755,9.481,8.382V298.393C728.835,303.02,724.593,306.77,719.359,306.775Z" transform="translate(-639.597 -173.009)"/><path class="b" d="M712.928,306.257h-55.01c-5.385-.005-9.748-3.863-9.754-8.623V206.962a1.491,1.491,0,0,1-.546.1h-.231a1.294,1.294,0,0,1-1.364-1.206v-4.436a1.294,1.294,0,0,1,1.364-1.206h.23a1.491,1.491,0,0,1,.546.1v-4.158a1.491,1.491,0,0,1-.546.1h-.23a1.294,1.294,0,0,1-1.364-1.206v-4.436a1.294,1.294,0,0,1,1.364-1.206h.23a1.491,1.491,0,0,1,.546.1v-8.647c.006-4.76,4.37-8.618,9.754-8.623h55.01c5.385.005,9.748,3.863,9.754,8.623v14.771a1.491,1.491,0,0,1,.546-.1h.23a1.294,1.294,0,0,1,1.364,1.206v7.663a1.294,1.294,0,0,1-1.364,1.206h-.23a1.491,1.491,0,0,1-.546-.1v92.121C722.677,302.394,718.313,306.252,712.928,306.257ZM648.71,205.848v91.786c.006,4.494,4.125,8.136,9.209,8.141h55.01c5.083-.005,9.2-3.647,9.209-8.141V204.4l.478.484a.865.865,0,0,0,.613.251h.23a.776.776,0,0,0,.819-.724v-7.663a.776.776,0,0,0-.819-.724h-.23a.865.865,0,0,0-.613.251l-.478.484V180.873c-.006-4.494-4.125-8.136-9.209-8.141h-55.01c-5.083.005-9.2,3.647-9.208,8.141v9.761l-.478-.484a.865.865,0,0,0-.613-.251h-.23a.776.776,0,0,0-.819.724v4.436a.776.776,0,0,0,.819.724h.23a.865.865,0,0,0,.613-.251l.478-.484v6.387l-.478-.484a.865.865,0,0,0-.613-.251h-.23a.776.776,0,0,0-.819.724v4.436a.776.776,0,0,0,.819.724h.23a.865.865,0,0,0,.613-.251Z" transform="translate(-633.166 -172.25)"/><path class="e" d="M695.786,212.717H680.743c-4.8,0-8.691-3.444-8.7-7.688V189.613c.005-4.244,3.9-7.683,8.7-7.688h15.043c4.8,0,8.691,3.444,8.7,7.688v15.416C704.477,209.273,700.587,212.712,695.786,212.717Z" transform="translate(-652.088 -179.592)"/><path class="b" d="M695.059,212.2H680.016c-4.951-.005-8.963-3.552-8.969-7.929V188.855c.006-4.377,4.018-7.924,8.969-7.929h15.043c4.951,0,8.963,3.552,8.969,7.929V204.27C704.023,208.647,700.01,212.195,695.059,212.2Zm-15.043-30.791c-4.65,0-8.418,3.336-8.423,7.446V204.27c.005,4.111,3.773,7.442,8.423,7.447h15.043c4.65,0,8.418-3.336,8.423-7.447V188.855c-.005-4.111-3.773-7.442-8.423-7.446Z" transform="translate(-651.361 -178.833)"/><ellipse class="f" cx="4.587" cy="4.055" rx="4.587" ry="4.055" transform="translate(24.556 6.375)"/><ellipse class="f" cx="4.587" cy="4.055" rx="4.587" ry="4.055" transform="translate(24.556 20.974)"/><ellipse class="f" cx="4.587" cy="4.055" rx="4.587" ry="4.055" transform="translate(38.623 13.602)"/><ellipse class="g" cx="1.606" cy="1.419" rx="1.606" ry="1.419" transform="translate(27.538 9.011)"/><path class="c" d="M700.7,211.922a1.673,1.673,0,1,1,1.878-1.661A1.78,1.78,0,0,1,700.7,211.922Zm0-2.839a1.187,1.187,0,1,0,1.333,1.178,1.263,1.263,0,0,0-1.333-1.178Z" transform="translate(-671.554 -199.831)"/><ellipse class="g" cx="1.606" cy="1.419" rx="1.606" ry="1.419" transform="translate(41.605 16.238)"/><path class="c" d="M752.246,241.879a1.673,1.673,0,1,1,1.878-1.661A1.78,1.78,0,0,1,752.246,241.879Zm0-2.839a1.187,1.187,0,1,0,1.333,1.178,1.263,1.263,0,0,0-1.333-1.178Z" transform="translate(-709.036 -222.561)"/><ellipse class="g" cx="1.606" cy="1.419" rx="1.606" ry="1.419" transform="translate(27.538 23.61)"/><path class="c" d="M700.7,272.437a1.673,1.673,0,1,1,1.878-1.661A1.78,1.78,0,0,1,700.7,272.437Zm0-2.839a1.187,1.187,0,1,0,1.333,1.178A1.263,1.263,0,0,0,700.7,269.6Z" transform="translate(-671.554 -245.747)"/><g transform="translate(43.906 62.757)"><path class="e" d="M343.286,223.041l-.427.331a4.846,4.846,0,0,0-1.4,1.557,3.972,3.972,0,0,0,2.145,5.346l.292.1c-.045.112-.084.224-.129.331a10.592,10.592,0,0,1-2.246,3.347,6.092,6.092,0,0,1-.881.7,2.76,2.76,0,0,1-2.274.384c-.5-.126-.994-.268-1.493-.4a5.6,5.6,0,0,0-1.269-.209,5.087,5.087,0,0,0-1.841.336,7.073,7.073,0,0,1-1.426.375,2.741,2.741,0,0,1-1.359-.185,4.391,4.391,0,0,1-1.465-1.017,11.622,11.622,0,0,1-2.044-2.919,9.23,9.23,0,0,1-1.027-3.23,6.794,6.794,0,0,1,.533-3.761,5.028,5.028,0,0,1,1.74-2.029,4.631,4.631,0,0,1,2.807-.769,9.972,9.972,0,0,1,2.246.36c.3.073.612.131.921.2a2.906,2.906,0,0,0,1.46,0l1.6-.418a6.207,6.207,0,0,1,2.01-.2,4.85,4.85,0,0,1,2.807,1.056c.247.2.472.423.707.637A.611.611,0,0,1,343.286,223.041Z" transform="translate(-326.369 -217.179)"/><path class="e" d="M340.782,217.724A4.34,4.34,0,0,1,341.9,214.8a5.377,5.377,0,0,1,3.015-1.459,1.246,1.246,0,0,1,.067.71,4.342,4.342,0,0,1-2.038,3.118,3.5,3.5,0,0,1-1.684.535Z" transform="translate(-332.207 -213.345)"/></g></g><g transform="translate(55.453 52.003)"><path class="h" d="M613.6,331.1l4.909-.482,1.733,12.535,4.424,17.31a2.57,2.57,0,0,1,1.743,2.816,2.983,2.983,0,0,1-2.736,2.2,3.324,3.324,0,0,1-3.3-1.562,2.369,2.369,0,0,1,.851-3.089l-4.443-10.2Z" transform="translate(-573.669 -295.986)"/><path class="h" d="M363.128,479.966h4.045l1.924-13.023h-5.97Z" transform="translate(-330.329 -355.493)"/><path class="f" d="M641.207,703.128h13.042v-.138c0-2.34-2.273-4.237-5.076-4.237h-7.967Z" transform="translate(-609.44 -575.381)"/><path class="h" d="M460.747,473.072l3.971.64,4.848-12.482-5.862-.945Z" transform="translate(-458.99 -350.44)"/><path class="f" d="M751.6,694.815,764.4,696.88l.031-.135c.532-2.3-1.269-4.52-4.022-4.964h0l-7.821-1.261Z" transform="translate(-751.596 -569.133)"/><path class="f" d="M661.622,198.037l-2.35,3.764-17.6-3.241,1.928-7.3a12.5,12.5,0,0,1,14.565-8.674c6.92,1.274,10.149,6.92,8.622,12.7l-2.837,7.377-2.87-.528Z" transform="translate(-623.254 -182.358)"/><path class="f" d="M679.394,417.589s1.733,7.232-.578,17.839-2.888,15.187-2.888,15.187,1.733,1.687.578,2.652,0,2.893,0,2.893l-2.6,23.383-8.953-1.205L666.11,456.4s-1.155-1.929-.578-2.411-.578-3.375-.578-3.375l-1.444-22.9-8.953,25.071s.866.964,0,1.687-2.6,4.339-2.6,4.339l-5.776,16.874-9.241-1.446,5.2-19.285a1.683,1.683,0,0,1,.289-1.928,1.686,1.686,0,0,0,.578-1.687s-.866-.723.289-1.687,1.733-4.821,1.733-4.821.866-25.794,3.754-27.24S679.394,417.589,679.394,417.589Z" transform="translate(-633.977 -361.508)"/><path class="h" d="M8.086,0C3.62,0,0,3.022,0,6.75,0,9.5.438,11.2,3.425,12.3c.146.054-2.215,3.1-2.5,4.536-.16.795,3.2.851,3.355.89l2.472.529L8.086,13.5c.366.055-.491,0,0,0,4.466,0,8.086-3.022,8.086-6.75S12.552,0,8.086,0Z" transform="translate(23.846 4.363)"/><path d="M636.8,263.58l1.733,29.169a1.962,1.962,0,0,0-.578,2.411,5.786,5.786,0,0,1,0,3.375s-1.733,1.687-.866,2.411,32.056.241,32.056.241a1.782,1.782,0,0,0-.578-2.652c-1.733-.964-.866-3.616-.866-3.616s.578-.723-.866-1.928-2.6-11.089-2.6-11.089l3.754-12.053s-3.779-3.561-13.547-4.894l-3.017.879-2.49-1.955S638.528,262.133,636.8,263.58Z" transform="translate(-623.434 -244.622)"/><path d="M627.9,291.779l4.474-.166s2.6,4.339,2.888,8.2l1.591,14.389-10.254,1.28Z" transform="translate(-587.818 -266.388)"/><path class="f" d="M664.163,200.774l3-3.226a2.666,2.666,0,0,0-2.392-3.126l-11.347-2.089a3.2,3.2,0,0,0-3.746,2l-.006.023.813,3.9.143-.021c7.042-1.048,9.048-.679,13.417,2.465Z" transform="translate(-624.876 -190.994)"/><path class="h" d="M738.436,339.094l.541-18.981.578-13.5,6.931.723L742.764,339.6a2.3,2.3,0,0,1,.274,2.967,3.406,3.406,0,0,1-3.2,1.311,3.03,3.03,0,0,1-2.644-2,2.449,2.449,0,0,1,1.243-2.789Z" transform="translate(-729.37 -277.772)"/><path d="M745.012,266.02l-5.056-.407s-.866,0-1.733,2.411-5.629,27.888-5.629,27.888l10.539.8Z" transform="translate(-726.594 -246.655)"/><g transform="matrix(0.995, 0.105, -0.105, 0.995, 22.444, 27.613)"><g transform="translate(2.725 5.72)"><path class="e" d="M0,.78l0-.426A.354.354,0,0,1,.384,0,.3.3,0,0,1,.729.308V.381l-.185,0V.33A.144.144,0,0,0,.382.178.159.159,0,0,0,.215.352l0,.415A.152.152,0,0,0,.377.944.15.15,0,0,0,.538.791V.732l.185,0V.8a.32.32,0,0,1-.35.317A.324.324,0,0,1,0,.78Z" transform="translate(-0.004 0.09)"/><path class="e" d="M.319.007l.25,0L.854,1.081l-.207,0L.582.826l-.319,0-.069.26-.19,0ZM.541.662.433.216h0L.309.665Z" transform="translate(0.783 0.091)"/><path class="e" d="M.274.186,0,.19,0,.016.753,0l0,.174-.271,0L.47,1.09l-.205,0L.274.186Z" transform="translate(1.624 0.076)"/><path class="d" d="M.017.006.311,0A.267.267,0,0,1,.6.3.278.278,0,0,1,.367.606l.259.472H.531L.283.621l-.188,0L.09,1.086H0ZM.282.55A.214.214,0,0,0,.518.308.2.2,0,0,0,.3.077L.1.08.1.553Z" transform="translate(2.764 0.068)"/><path class="d" d="M0,.533l0-.239A.262.262,0,0,1,.264,0C.415,0,.5.1.5.266L.5.412.086.418V.535c0,.136.063.2.189.2A.346.346,0,0,0,.455.672L.483.729A.344.344,0,0,1,.262.8.235.235,0,0,1,0,.533ZM.421.349V.258C.423.164.384.066.255.068a.179.179,0,0,0-.167.2V.354L.421.349Z" transform="translate(3.526 0.353)"/><path class="d" d="M0,.936.014,0h.08L.085.924c0,.053.022.089.087.088a.433.433,0,0,0,.065-.007v.068a.246.246,0,0,1-.089.017C.056,1.091,0,1.036,0,.936Z" transform="translate(4.201 0.051)"/><path class="d" d="M0,.534l0-.253A.253.253,0,0,1,.258,0,.234.234,0,0,1,.507.271L.5.522A.25.25,0,0,1,.251.805.235.235,0,0,1,0,.534ZM.424.523l0-.258c0-.109-.047-.2-.17-.2s-.169.1-.17.209l0,.252c0,.127.048.205.172.2S.422.639.424.523Z" transform="translate(4.562 0.338)"/><path class="d" d="M0,.59A.246.246,0,0,1,.264.345l.149,0L.415.2C.416.1.356.064.265.066S.1.107.1.2V.242H.031V.2C.033.069.143,0,.276,0S.5.058.5.194l0,.393c0,.056,0,.156.005.2H.423l0-.127h0A.236.236,0,0,1,.2.8.191.191,0,0,1,0,.59ZM.411.533V.4l-.135,0C.191.406.088.438.086.576c0,.112.066.163.138.162A.2.2,0,0,0,.411.533Z" transform="translate(5.213 0.328)"/><path class="d" d="M0,.893l0-.349A.224.224,0,0,1,.226.3.194.194,0,0,1,.417.436h0L.423,0H.505L.493,1.084H.422V.941h0A.238.238,0,0,1,.2,1.107.19.19,0,0,1,0,.893ZM.416.787l0-.19A.212.212,0,0,0,.238.366C.159.368.09.413.088.543l0,.335c0,.1.04.159.142.157S.414.938.416.787Z" transform="translate(5.883 0.017)"/><path class="d" d="M0,.533l0-.239A.262.262,0,0,1,.264,0C.415,0,.5.1.5.266L.5.412.085.418V.535c0,.136.063.2.189.2A.346.346,0,0,0,.455.672L.483.729A.344.344,0,0,1,.262.8.235.235,0,0,1,0,.533ZM.421.349V.258C.423.164.384.066.255.068a.179.179,0,0,0-.167.2V.354L.421.349Z" transform="translate(6.568 0.307)"/><path class="d" d="M0,.893l0-.349A.224.224,0,0,1,.226.3.194.194,0,0,1,.417.436h0L.423,0H.5L.493,1.084H.421V.941h0A.238.238,0,0,1,.2,1.107.19.19,0,0,1,0,.893ZM.416.787l0-.19A.212.212,0,0,0,.238.366C.159.368.09.413.088.543l0,.335c0,.1.04.159.142.157S.414.938.416.787Z" transform="translate(7.215 -0.003)"/></g><g transform="translate(0.014 0.013)"><path class="d" d="M2.11.013A1.957,1.957,0,0,0,.694.955,3.621,3.621,0,0,0,.014,3.141,3.062,3.062,0,0,0,2.023,6.269l.006-.519C.982,5.481.431,4.136.446,3.061a3.267,3.267,0,0,1,.589-1.774A1.874,1.874,0,0,1,2.109.509Zm.457.679a1.525,1.525,0,0,0-.619.135A2.261,2.261,0,0,0,.829,2.145a3.207,3.207,0,0,0,.206,2.5,1.606,1.606,0,0,0,2.1.729,3.27,3.27,0,0,0,.387-.232l-.2-.432a2.778,2.778,0,0,1-.343.208c-1.284.5-2.331-1.1-1.765-2.546a1.851,1.851,0,0,1,.861-1.043,1.212,1.212,0,0,1,1.263.187,2.146,2.146,0,0,1,.6,2.186A.418.418,0,0,1,3.608,4c0-.178,0-.44,0-.653a2.793,2.793,0,0,0-.06-.712,1.03,1.03,0,0,0-1.008-.895.934.934,0,0,0-.867.585,1.632,1.632,0,0,0,.248,1.988.918.918,0,0,0,.791.2,1.033,1.033,0,0,0,.25-.095c.071-.04.164-.093.131-.1L3.1,3.773a2.236,2.236,0,0,1-.279.185.679.679,0,0,1-.169.066.593.593,0,0,1-.521-.163c-.52-.42-.3-1.586.4-1.632a.666.666,0,0,1,.6.583,2.215,2.215,0,0,1,.05.56c-.007.356-.011.854-.011.854l0,.292.165,0s.1,0,.218,0a.953.953,0,0,0,.194-.037.5.5,0,0,0,.217-.132A1.176,1.176,0,0,0,4.25,3.9a2.681,2.681,0,0,0,.12-1.015,2.48,2.48,0,0,0-.809-1.815A1.644,1.644,0,0,0,2.567.692Z" transform="translate(-0.014 -0.013)"/><path class="e" d="M4.39.037a.539.539,0,0,0-.461.414c-.228.647-.287.794-.522,1.493-.157.468-.245.7-.447,1.282C2.9,3.4,2.6,4.27,2.6,4.27l.729-.007c.182-.529.2-.57.258-.758.151-.383.242-.693.407-1.149.131-.361.2-.571.254-.722.061-.167.065-.243.135-.247.049,0,.1.2.227.574.076.219.213.636.263.783s.075.258.112.341a1.643,1.643,0,0,1,.081.225c.009.04-.126.018-.3.022-.322.008-.786.011-.786.011l-.317.91c.886.006,1.539-.054,2.419-.032C5.7,3.04,4.978.884,4.943.773S4.859.528,4.837.455C4.752.17,4.572.034,4.39.037ZM.883.159a.909.909,0,0,0-.31.094C.324.405.114.7.026,1.773a6.647,6.647,0,0,0,.089,1.75c.1.4.351.769.57.772l1.667-.025.3-.915S1.5,3.389.959,3.4C.634,3.4.708,2.42.7,1.846c0,0,.036-.769.227-.767.6.006,2.441-.043,2.441-.043l.352-.9ZM5.036.109c0,.023.322.9.312.906.359,0,.734-.03,1.13-.017L6.442,4.206,7.111,4.2,7.147.978,8.314.958c.011-.433,0-.655.01-.894C7.2.076,6.223.092,5.036.109Z" transform="translate(4.91 0.876)"/></g></g></g></svg>