<svg xmlns="http://www.w3.org/2000/svg" width="45.912" height="36.315" viewBox="0 0 45.912 36.315"><defs><style>.a{fill:#cacaca;}</style></defs><path class="a" d="M10.277,36.325H.758V12.079h9.519ZM5.513,8.772C2.469,8.772,0,6.778,0,4.37S2.468.01,5.513.01s5.513,1.952,5.513,4.36S8.555,8.772,5.513,8.772ZM45.9,36.325H36.4v-11.8c0-2.813-.072-6.42-4.949-6.42-4.949,0-5.707,3.056-5.707,6.217V36.325H16.239V12.079h9.129v3.307H25.5c1.271-1.9,4.375-3.915,9.006-3.915,9.633,0,11.4,5.018,11.4,11.535V36.325Z" transform="translate(0 -0.01)"/></svg>