<svg xmlns="http://www.w3.org/2000/svg" width="176" height="60" viewBox="0 0 176 60"><defs><style>.a{fill:#c2341c;}.b{fill:#fff;}</style></defs><path class="a" d="M-901.607-30.158c-9.023,0-15.909,5.792-18.724,8.834-5.188,5.453-8.733,11.382-8.733,20.865.591,17.647,15.286,28.4,27.21,30.3V24.867c-13.986-2.736-21.517-15.714-21.474-26.023.129-8.1,5.264-14.868,7.584-16.936,2.675-2.584,7.552-6.52,14.2-7.309Zm6.188,6.577a26.887,26.887,0,0,0-8.229,1.207A24.539,24.539,0,0,0-918.365-9.89a23.354,23.354,0,0,0,3.1,23.968c7.659,8.155,18.788,10.669,28.037,7.3a47.2,47.2,0,0,0,5.113-2.174l-2.75-4.172a40.544,40.544,0,0,1-4.533,1.946C-906.431,21.6-920.61,6.042-913.284-7.7a19.652,19.652,0,0,1,11.322-9.883c2.159-.758,10.646-2.223,16.844,1.973,6.091,3.684,12.128,12.617,8.325,21.055a5.032,5.032,0,0,1-4.286,2.906c.021-1.708-.054-4.222-.043-6.268a19.963,19.963,0,0,0-.9-6.843c-1.955-6.156-8.293-8.807-13.567-8.731-6.37.138-8.766,2.146-11.451,5.487-5.274,7.055-2.718,15.254,3.588,19.105a16.107,16.107,0,0,0,10.56,2.032,16.953,16.953,0,0,0,3.309-.87c.935-.375,2.181-.871,1.729-.892V6.06a30.494,30.494,0,0,1-3.685,1.733,11.107,11.107,0,0,1-2.245.611,10.177,10.177,0,0,1-6.961-1.643c-6.993-4.1-4.189-15.261,5.092-15.6,4.018.4,6.725,1.935,8.1,5.684A15.69,15.69,0,0,1-886.8,2.23c-.043,3.418-.032,8.188-.032,8.188l.075,2.8h2.2s1.311.04,2.9-.01a17.119,17.119,0,0,0,2.578-.323,7.326,7.326,0,0,0,2.868-1.238A11.309,11.309,0,0,0-872.528,7.4c1.106-2.233,1.751-5.4,1.45-9.72-.569-8.2-5.006-13.314-11.043-17.527a27.994,27.994,0,0,0-13.3-3.738Z" transform="translate(929.064 30.158)"/><path class="b" d="M333.636,151.831a6.723,6.723,0,0,0-6.085,3.9c-2.938,6.174-3.706,7.579-6.735,14.244-2.03,4.464-3.158,6.646-5.763,12.237-.795,1.7-4.7,9.963-4.7,9.963l9.716.04c2.347-5.053,2.567-5.435,3.33-7.235,1.96-3.651,3.121-6.615,5.253-10.965,1.692-3.445,2.573-5.452,3.276-6.889.784-1.6.833-2.318,1.767-2.351.661-.023,1.337,1.965,3.11,5.541,1.042,2.114,2.933,6.131,3.609,7.552.645,1.344,1.037,2.487,1.552,3.29a13.79,13.79,0,0,1,1.112,2.171c.118.386-1.67.153-3.932.17-4.292.033-10.468-.013-10.468-.013l-4.093,8.687c11.811.183,20.491-.291,32.221.047-5.285-11.39-15.206-32.185-15.689-33.25s-1.16-2.364-1.461-3.07A6.462,6.462,0,0,0,333.636,151.831Zm-46.7.656s-3.362.321-4.12.859c-3.287,1.423-6.048,4.212-7.058,14.5-.209,6.3-.29,11.905,1.434,16.8,1.4,3.865,4.786,7.431,7.708,7.485h22.2l3.813-8.73s-15.232.165-22.5.146c-4.324-.011-3.48-9.394-3.642-14.9,0,0,.365-7.375,2.911-7.329,8.057.149,32.511-.057,32.511-.057l4.555-8.607-37.812-.17Zm55.322.123c.021.223,4.415,8.712,4.286,8.734,4.775.024,9.775-.183,15.044,0l-.005,30.78,8.905.03.016-30.9,15.539-.023c.086-4.153-.038-6.28,0-8.577C371.067,152.6,358.063,152.619,342.262,152.61Z" transform="translate(-210.078 -142.025)"/></svg>