<svg xmlns="http://www.w3.org/2000/svg" width="628.204" height="500.991" viewBox="0 0 628.204 500.991"><defs><style>.a{fill:#f0f0f0;opacity:0.15;}.b{fill:#e4e4e4;}.c{fill:#c2341c;}.d{opacity:0.1;}.e{fill:none;stroke:#3f3d56;stroke-miterlimit:10;}.f{fill:#fff;}.g{fill:#a8a8a8;}.h{opacity:0.2;}.i{fill:#ffb8b8;}.j{fill:#2f2e41;}.k{fill:#535070;}.l{fill:#3f3d56;}.m{fill:#57b894;}</style></defs><g transform="translate(-1.121 -126.358) rotate(3)"><path class="a" d="M32.936,247.669c9.564,54.843,29.811,102.25,61.81,125.23,66.5,47.755,216.468,23.127,328.4-5.174C479.7,353.473,531.036,314.1,568.887,255.947Z" transform="translate(5.895 194.971)"/><path class="a" d="M619.016,83.619H557.6c-2.932,0-5.308-3.188-5.308-7.121s2.377-7.121,5.308-7.121H568.22c-2.932,0-5.308-3.188-5.308-7.121s2.376-7.121,5.308-7.121h-7.581c-2.932,0-5.308-3.188-5.308-7.121s2.377-7.121,5.308-7.121h32.054a68.993,68.993,0,0,0-25-9.246c-87.4-15.063-118.606-5.1-129.613,5.174C424.5,49.457,409.346,58.755,393.154,63.234c-53.926,14.923-154.774,32.884-246.18-5.75-45.43-19.217-79.2,13.245-99.433,67.467H629.677c-.76-15.758-3.036-30.3-7.212-43.047A4.581,4.581,0,0,1,619.016,83.619Z" transform="translate(6.755 100.889)"/><path class="a" d="M28.087,167.1a485.628,485.628,0,0,0,2.38,95.68l539.19,26.453a367.3,367.3,0,0,0,37.464-76.647Zm213.256,68.258H230.727c2.932,0,5.308,3.188,5.308,7.122s-2.377,7.121-5.308,7.121H169.314c-2.932,0-5.308-3.188-5.308-7.121s2.377-7.122,5.308-7.122h10.617c-2.932,0-5.308-3.188-5.308-7.121s2.377-7.122,5.308-7.122H172.35c-2.932,0-5.308-3.188-5.308-7.121s2.377-7.122,5.308-7.122h61.413c2.932,0,5.308,3.188,5.308,7.122s-2.377,7.121-5.308,7.121h7.581c2.932,0,5.308,3.188,5.308,7.122s-2.377,7.121-5.308,7.121Z" transform="translate(5.532 161.088)"/><path class="a" d="M630.848,95.394,42.179,114.611C35.022,139.3,30.3,167.215,28.1,196.159H620.535a438.377,438.377,0,0,0,8.556-51.983A329.6,329.6,0,0,0,630.848,95.394ZM147.606,158.338H136.989c2.932,0,5.308,3.188,5.308,7.121s-2.377,7.121-5.308,7.121H75.577c-2.932,0-5.308-3.188-5.308-7.121s2.377-7.121,5.308-7.121H86.193c-2.932,0-5.308-3.188-5.308-7.122s2.377-7.121,5.308-7.121H78.612c-2.932,0-5.308-3.188-5.308-7.121s2.377-7.121,5.308-7.121h61.413c2.932,0,5.308,3.188,5.308,7.121s-2.377,7.121-5.308,7.121h7.581c2.932,0,5.308,3.188,5.308,7.121S150.538,158.338,147.606,158.338Z" transform="translate(5.61 130.932)"/></g><g transform="translate(33.435 65.95)"><path class="b" d="M727.607,349.35l4.788-.882c.459-.086.915-.19,1.374-.279-15.61-10.321-22.425-30.784-16.412-49.277s23.251-30.081,41.511-27.906l-6.276,15.908,14.87-13.83a.641.641,0,0,1,.1.036c20.478,7.682,31.232,31.593,24.018,53.406-.248.754-.545,1.474-.829,2.2a46.926,46.926,0,0,0,11.509-8.211c6.649-6.786,10.291-16.15,14.362-27.688,8.065-22.862,15.83-46.056,23.285-69.3-16.985-9.79-24.773-31.277-18.37-50.685.4-1.209.862-2.373,1.353-3.516.123-.286.246-.57.374-.852.5-1.1,1.025-2.17,1.6-3.2.094-.169.2-.327.3-.494q.754-1.3,1.59-2.529c.208-.307.415-.613.629-.913.632-.88,1.286-1.737,1.976-2.554.23-.274.475-.529.712-.8q.8-.894,1.634-1.734c.295-.295.587-.592.889-.876.078-.073.15-.153.228-.225l.011.016a37.458,37.458,0,0,1,50.261-1.2l-8.167,20.7,14.7-13.665a43.834,43.834,0,0,1,1.453,49.314l.041.014c-.161.251-.343.481-.508.728q-.465.695-.952,1.365c-.418.573-.851,1.126-1.294,1.673-.334.412-.664.828-1.012,1.224-.509.58-1.042,1.129-1.579,1.675-.314.319-.613.653-.936.96q-1.267,1.206-2.623,2.289c-.317.253-.651.476-.975.718-.634.475-1.272.944-1.931,1.377-.408.269-.828.515-1.245.768-.6.366-1.212.721-1.833,1.053-.44.235-.883.458-1.331.676-.638.309-1.283.6-1.935.87-.438.183-.873.369-1.317.535-.732.275-1.475.513-2.222.742-.377.116-.748.248-1.129.351-1.121.3-2.255.564-3.4.762-.216.037-.435.052-.652.085-.951.147-1.906.266-2.87.339-.414.031-.831.036-1.246.053-.779.032-1.558.049-2.342.031-.457-.01-.914-.035-1.372-.063q-1.145-.069-2.291-.212c-.452-.056-.9-.111-1.355-.184-.819-.132-1.637-.305-2.455-.495-.054-.012-.108-.02-.161-.033q-4.72,14.71-9.614,29.356a37.8,37.8,0,0,1,29.494-10.588A38.645,38.645,0,0,1,897.5,261.978l-13.591,16.009,18.4-7.824a44.225,44.225,0,0,1,1.573,31.876,42.1,42.1,0,0,1-4.993,10.29c-9.3,14.016-25.7,20.561-41.358,16.511s-27.411-17.875-29.644-34.874c-.346.984-.68,1.98-1.026,2.963-3.592,10.178-8.061,22.845-17.036,32-6.084,6.207-13.569,10.145-20.75,13.475q-7.015,3.252-14.216,6.012a37.733,37.733,0,0,1-17.593,5.972,229.266,229.266,0,0,1-22.988,5.557l-4.828.886c-4.339.792-8.787,1.607-13.2,2.546.636.2,1.272.393,1.9.63,16.143,6.052,26.758,22.529,26.251,40.75l-30.265,9.895,27.386,4.632c-5.092,13.33-16.252,22.943-29.556,25.458A37.942,37.942,0,0,1,676,431.674q.417,1.488.837,2.972c.556,1.965,1.108,3.92,1.637,5.855,7.206,26.376,4.1,47.123-8.735,58.419l-6.967-8.983c12.5-11,8.619-33.652,5.2-46.181-.52-1.9-1.063-3.821-1.609-5.751-4.694-16.609-10.015-35.435-3.123-52.735C673.622,359.2,703.556,353.737,727.607,349.35Z" transform="translate(-347.689 -144.877)"/><path class="c" d="M572.5,570.9H360.45c-14.481,0-26.22-12.5-26.22-27.928V439.486a11.419,11.419,0,0,1,3.241-8.03L449.839,318a23.124,23.124,0,0,1,33.275,0L590.252,426.174a29.848,29.848,0,0,1,8.472,20.989v95.806c0,15.424-11.739,27.928-26.22,27.928Z" transform="translate(-201.457 -213.47)"/><path class="d" d="M240.954,387.992h262.29V500.84c0,9.314-7.088,16.864-15.832,16.864H256.786c-8.744,0-15.832-7.55-15.832-16.864V387.992Z" transform="translate(-108.181 -160.277)"/><path class="e" d="M333.73,521.351" transform="translate(-201.232 -300.386)"/><path class="f" d="M44.826,0H150.239a44.612,44.612,0,0,1,44.826,44.394V163.38a44.612,44.612,0,0,1-44.826,44.394H44.826A44.612,44.612,0,0,1,0,163.38V44.394A44.612,44.612,0,0,1,44.826,0Z" transform="translate(167.212 138.795)"/><path class="d" d="M498.519,395.942V510.13H303.454V395.942l97.532,50.212Z" transform="translate(-136.242 -163.561)"/><path class="c" d="M465.977,591.693l-124.97-64.338a4.8,4.8,0,0,0-4.9.288,5.491,5.491,0,0,0-2.376,4.575v110.7c0,9.314,7.088,16.864,15.832,16.864H582.392c8.744,0,15.832-7.55,15.832-16.864v-108.8a6.7,6.7,0,0,0-2.9-5.583,5.862,5.862,0,0,0-5.981-.351Z" transform="translate(-212.545 -302.644)"/><rect class="b" width="54.552" height="8.217" transform="translate(184.019 157.87)"/><rect class="b" width="162.003" height="4.695" transform="translate(179.61 187.804)"/><rect class="b" width="162.003" height="4.695" transform="translate(179.61 203.651)"/><rect class="b" width="162.003" height="4.695" transform="translate(179.61 219.498)"/><line class="e" y1="0.035" x2="414.026" transform="translate(33.588 357.099)"/><path class="b" d="M93.275,630.212c0,34.606,20.382,62.608,45.57,62.608" transform="translate(-93.275 -345.353)"/><path class="c" d="M175.975,692.326c0-34.995,22.745-63.312,50.853-63.312" transform="translate(-130.405 -344.858)"/><path class="c" d="M123.239,635.557c0,32.872,13,59.471,29.059,59.471" transform="translate(-106.728 -347.561)"/><path class="b" d="M175.975,679.949c0-44.715,26.29-80.9,58.778-80.9" transform="translate(-130.405 -332.481)"/><path class="g" d="M158.577,735.017s6.463-.212,8.41-1.689,9.941-3.241,10.424-.872,9.712,11.783,2.416,11.846-16.953-1.211-18.9-2.472S158.577,735.017,158.577,735.017Z" transform="translate(-122.594 -387.108)"/><path class="h" d="M179.958,746.089c-7.3.063-16.953-1.21-18.9-2.472-1.48-.96-2.07-4.407-2.268-6l-.216.009s.409,5.552,2.353,6.813,11.6,2.535,18.9,2.472c2.106-.018,2.834-.816,2.794-2C182.328,745.629,181.525,746.075,179.958,746.089Z" transform="translate(-122.594 -389.72)"/><path class="i" d="M809.909,300.711c-.331,3.143-2.582,5.674-3.416,8.709-1.255,4.568.915,9.471,3.884,13.029a26.46,26.46,0,0,0,18.864,9.54,7.579,7.579,0,0,0,3.119-.362,6.678,6.678,0,0,0,2.373-1.727,16.64,16.64,0,0,0,3.914-9.04,51.242,51.242,0,0,0,.105-10.1,6.033,6.033,0,0,0-.35-2.038,5.169,5.169,0,0,0-1.231-1.612,28.833,28.833,0,0,0-5.284-4.089,4.481,4.481,0,0,1-2.9-3.965l-.584-3.169a6.494,6.494,0,0,0-.857-2.569c-1.031-1.482-3-1.683-4.734-1.756l-6.339-.265c-1.972-.082-4.571-.685-6.5-.272-1.8.385-1.2,2.15-.874,3.756A28.822,28.822,0,0,1,809.909,300.711Z" transform="translate(-413.326 -205.185)"/><path class="j" d="M859.3,537.691q-1.347,15.735-2.695,31.464c-.7,8.253-1.42,16.539-2.8,24.685-.476,2.807-1.034,5.6-1.7,8.369-1.842,7.687-4.514,15.2-5.375,23.081-.027.227-.05.459-.073.691a21.22,21.22,0,0,1-.921,5.122c-.431,1.2-1.093,2.3-1.56,3.489a23.574,23.574,0,0,0-1.166,7.581,29.442,29.442,0,0,0-10.565-3.846c-1.792-.285-3.788-.488-5.008-1.913-1.352-1.575-1.2-3.986-.975-6.1q1.068-9.857,2.132-19.7a54.431,54.431,0,0,1,1.347-8.369c.245-.913.54-1.812.839-2.711.413-1.237.83-2.474,1.143-3.745a47.8,47.8,0,0,0,.944-6.238c.73-6.61,1.61-13.205,2.381-19.81l.041-.348a215.594,215.594,0,0,0,1.783-30.155c-.036-1.493-.1-2.986-.186-4.484-.127-2.169-.313-3.319,1.375-4.677a31.058,31.058,0,0,1,6.45-3.527c1.148-.531,13.786-5.31,14.081-4.261a27.815,27.815,0,0,1,.925,6.871A81.373,81.373,0,0,1,859.3,537.691Z" transform="translate(-422.391 -300.709)"/><path class="d" d="M857.45,627.1c-.476,2.807-1.034,5.6-1.7,8.369-1.842,7.687-4.513,15.2-5.375,23.081-.027.227-.05.459-.073.691-5.634-8.572-10.379-17.79-15.877-26.454.413-1.237.83-2.474,1.143-3.745a47.788,47.788,0,0,0,.944-6.238c.73-6.61,1.61-13.205,2.381-19.81l.041-.348a21.418,21.418,0,0,0,1.374,4.063c3.693,7.992,12.465,12.031,16.757,19.68Q857.266,626.743,857.45,627.1Z" transform="translate(-426.031 -333.966)"/><path class="j" d="M793.225,497.206a158.022,158.022,0,0,0,2.111,19.092l1.984,13.061c1.085,7.149,2.216,14.443,5.392,20.846,2.376,4.79,5.8,8.877,8.9,13.174,7.613,10.564,13.332,22.53,20.55,33.4,2.1,3.161,5.1,6.578,8.678,5.919,2.35-.433,4.057-2.517,5.9-4.124,2.178-1.894,4.8-3.281,6.517-5.655s2.049-6.322-.272-8.012a11.832,11.832,0,0,0-2.657-1.158c-3.6-1.458-5.928-5.2-7.411-8.987s-2.38-7.856-4.355-11.376c-4.291-7.648-13.065-11.688-16.758-19.682-2.069-4.478-2.266-9.639-2.424-14.626l-.4-12.714a9.846,9.846,0,0,1,.452-4.108c1.413-3.384,5.678-3.7,9.132-4.129a29.892,29.892,0,0,0,11.192-3.761,11.956,11.956,0,0,0,5-4.728,16.1,16.1,0,0,0,1.219-6.406l1.2-23.042a15.33,15.33,0,0,0-.459-5.89c-1.647-4.666-7.179-6.191-11.855-5.969-8.7.414-16.733,4.4-24.937,7.093a60.3,60.3,0,0,1-6.181,1.717c-1.841.393-4.069.23-5.825.861-3.123,1.121-3.044,8.4-3.486,11.413A102.206,102.206,0,0,0,793.225,497.206Z" transform="translate(-407.522 -274.347)"/><path class="k" d="M876.087,695.479a6.1,6.1,0,0,1,1.218,3.173,115.183,115.183,0,0,1,1.723,19.188,3.306,3.306,0,0,0,.324,1.739,2.079,2.079,0,0,0,.847.725c2.218,1.126,4.791-.443,6.639-2.167,3.425-3.2,6.324-7.486,6.518-12.332a30.452,30.452,0,0,1,.123-3.74,16.1,16.1,0,0,1,2.182-5.011,43.707,43.707,0,0,0,3.606-8.611c.337-1.129.561-2.55-.269-3.338a2.961,2.961,0,0,0-.987-.547L887.995,680.6c-.868-.343-3.028,5.567-3.371,6.213a4.65,4.65,0,0,1-3.355,2.843c-1.717.372-3.762-.162-5.364.751C873.194,691.946,874.552,693.831,876.087,695.479Z" transform="translate(-443.956 -366.159)"/><path class="k" d="M840.157,710.883a3.245,3.245,0,0,0-.762-1.03,3.309,3.309,0,0,0-1.538-.556c-1.907-.345-4.167-.572-5.484.938-1.234,1.416-1.022,3.721-2.053,5.31-.327.5-.769.917-1.052,1.449a5.771,5.771,0,0,0-.462,2.6c-.053,2.462-.107,4.929.053,7.386a10.813,10.813,0,0,0,1.669,5.83c1.94,2.589,5.439,2.961,8.545,3.129l2.516.136a4.625,4.625,0,0,0,2.062-.2,3.542,3.542,0,0,0,1.778-2.084c1.309-3.467-.764-7.2-2.042-10.682C841.918,719.107,842.182,714.665,840.157,710.883Z" transform="translate(-423.482 -377.915)"/><path class="l" d="M804.619,264.073a2.344,2.344,0,0,1,.141-1.033c.369-.694,1.331-.5,2.056-.31,2.919.784,5.994.074,9,.257s6.39,1.783,6.994,4.924a22.772,22.772,0,0,0,5.548-6.072,7.6,7.6,0,0,0,1.448-4.446c-.164-2.3-1.975-4.019-3.652-5.478l-5-4.347a7.5,7.5,0,0,0-2.239-1.516,10.489,10.489,0,0,0-3.633-.219c-3.64,0-7.52-1.762-10.757.01a11.91,11.91,0,0,0-3.351,3.246l-4.462,5.626A3.048,3.048,0,0,0,796,256a6.059,6.059,0,0,0,.32,2.054c.211,1.257-.3,2.6.093,3.805.649,2,2.933,2.287,4.329,3.436.521.428,1.336,1.879,1.956,1.861C803.816,267.129,804.59,265,804.619,264.073Z" transform="translate(-408.764 -186.256)"/><ellipse class="i" cx="14.289" cy="15.22" rx="14.289" ry="15.22" transform="translate(389.137 63.962)"/><path d="M803.466,324.972a6.951,6.951,0,0,0-6.739-4.94,1.941,1.941,0,0,1-1.243-.167,1.812,1.812,0,0,1-.511-.68,27.557,27.557,0,0,1-2.083-5.246c-.228-.806-.54-1.755-1.3-1.965a1.719,1.719,0,0,0-1.663.771,15.517,15.517,0,0,1-1.189,1.591c-1.8,1.712-4.983.152-6.89,1.722-.312.257-.569.585-.9.818a4.052,4.052,0,0,1-1.049.479,97.007,97.007,0,0,0-10.814,4.512c1.269,8.139,2.569,16.42,5.543,24.038,1.416,3.625,3.019,7.176,4.153,10.912,2.511,8.278,2.623,17.135,2.651,25.834.019,5.954-.009,12.035-1.817,17.669a17.526,17.526,0,0,0-1.021,3.881,3.547,3.547,0,0,0,3.252,4.356c3.134.49,6.293-.4,9.378-1.16a244.194,244.194,0,0,1,25.123-4.372l14.106-1.951a7.793,7.793,0,0,0,2.918-.8c2.581-1.505,2.827-5.641,1.223-8.27-.768-1.26-1.853-2.294-2.5-3.63s-.7-3.2.411-4.13c2.261-1.882,1.587-5.375,1.695-8.43q.452-12.812-.122-25.634-.17-2.654-.079-5.316a49.843,49.843,0,0,1,1.556-8.871l4.287-17.977a8.765,8.765,0,0,0-5.295-3.623c-2.031-.543-4.146-.7-6.147-1.363-4.1-1.352-7.746-4.785-12.025-4.465a2.077,2.077,0,0,0-.932.242c-.965.582-.812,2.064-.874,3.244-.136,2.61-1.939,4.791-3.929,6.321s-4.263,2.645-6.092,4.389a2.958,2.958,0,0,0-1.081,2.215Z" transform="translate(-396.693 -212.481)"/><path class="i" d="M722.542,361.623a16.514,16.514,0,0,1-3.006,1.647,9.638,9.638,0,0,0-2.879,1.488,4.763,4.763,0,0,0-1,1.318,6.19,6.19,0,0,0,.114,5.962,5.417,5.417,0,0,0,4.959,2.768,10.547,10.547,0,0,0,3.751-1.191l10.078-4.652c1.706-.787,3.548-1.71,4.355-3.494a.856.856,0,0,0,.1-.555.9.9,0,0,0-.414-.464,23.178,23.178,0,0,1-5.869-5.894c-.414-.6-.92-2.01-1.5-2.368C729.091,354.879,724.249,360.442,722.542,361.623Z" transform="translate(-372.387 -232.081)"/><path class="i" d="M904.656,359.084l3.716,4.521c.8.971,1.6,1.942,2.323,2.974a35.512,35.512,0,0,1,4.255,8.539,15.766,15.766,0,0,1,1.2,7.059,18.153,18.153,0,0,1-.929,3.59,46.353,46.353,0,0,1-2.525,6.477,37.2,37.2,0,0,1-2.841,4.535,104.228,104.228,0,0,1-9.419,11.476c-1.27,1.339-1.8,3.505-2.356,5.316-1.02,3.339-3.447,5.94-5.794,8.407a16.447,16.447,0,0,1-2.488,2.28,7.741,7.741,0,0,1-4.527,1.373,4.71,4.71,0,0,1-2.039-.45c-1.606-.812-2.422-2.791-2.589-4.676a10.521,10.521,0,0,1,.781-5c2.132-5.031,7.607-7.211,11.478-10.882a39.347,39.347,0,0,0,5.716-7.531,26.5,26.5,0,0,0,2.891-5.4c.864-2.456.528-5.365,1.283-7.862.319-1.055.887-2.008,1.23-3.055a3.772,3.772,0,0,0-.171-3.2,4.388,4.388,0,0,0-1.682-1.312c-2.472-1.337-5.241-3.057-5.714-5.967a6.708,6.708,0,0,1,1.107-4.557,18.527,18.527,0,0,1,3.118-3.48C901.756,361.248,903.574,360.1,904.656,359.084Z" transform="translate(-446.759 -233.359)"/><path class="i" d="M710.438,373.519a7.256,7.256,0,0,0-2.8-3.554,4.871,4.871,0,0,0-4.07-.018,15.156,15.156,0,0,0-3.572,2.3l-3.2,2.515a8.1,8.1,0,0,0-1.9,1.87,8.225,8.225,0,0,0-.99,2.894,22,22,0,0,0-.5,7.159c.508,3.847,2.686,7.206,5.082,10.134,1.5,1.83,3.347,3.676,5.625,3.755a2.537,2.537,0,0,0,2.486-1.332,3.511,3.511,0,0,0,.222-1.187c.246-4.291-1.195-8.482-2.875-12.391a8.334,8.334,0,0,1-.927-3.329.96.96,0,0,1,.137-.558.864.864,0,0,1,.547-.284c2.3-.485,6.262,1.419,7.875-1.3C712.615,378.426,711.181,375.118,710.438,373.519Z" transform="translate(-362.669 -237.665)"/><path class="l" d="M803.259,255.914a2.35,2.35,0,0,1,.141-1.033c.369-.694,1.331-.505,2.056-.31,2.919.784,5.994.074,9,.257s6.39,1.783,6.994,4.924A22.775,22.775,0,0,0,827,253.681a7.6,7.6,0,0,0,1.447-4.446c-.164-2.3-1.975-4.019-3.652-5.478l-5-4.347a7.493,7.493,0,0,0-2.239-1.516,10.49,10.49,0,0,0-3.633-.219c-3.64,0-7.52-1.762-10.757.011a11.913,11.913,0,0,0-3.351,3.246l-4.462,5.626a3.051,3.051,0,0,0-.713,1.288,6.059,6.059,0,0,0,.32,2.054c.211,1.257-.3,2.6.093,3.805.649,2,2.933,2.288,4.329,3.436.521.428,1.336,1.879,1.956,1.861C802.456,258.969,803.23,256.84,803.259,255.914Z" transform="translate(-408.154 -182.886)"/><path d="M749,336.8a5.971,5.971,0,0,0-1.5,1.483c-.524.844-.63,1.909-1.08,2.8-.963,1.906-3.215,2.584-4.62,4.148a1.576,1.576,0,0,0-.444.811,1.885,1.885,0,0,0,.377,1.168l6.776,11.346c2.256.212,4.42-1.294,6.677-1.094a6.307,6.307,0,0,0,2.513.119,7.144,7.144,0,0,0,1.613-1.051c1.346-.907,3.14-1.013,4.269-2.209,1.084-1.148,1.223-2.945,1.209-4.573a19.532,19.532,0,0,0-.4-4.207c-1-4.355-4.125-7.7-6.085-11.555-.954-1.878-1.474-2.978-3.494-1.688S750.914,335.314,749,336.8Z" transform="translate(-384.247 -222.064)"/><path d="M895.085,327.893a16.207,16.207,0,0,1,3.409,3.18c1.032,1.418,1.617,3.153,2.608,4.6a50.225,50.225,0,0,0,3.359,3.789,29.655,29.655,0,0,1,3.873,6.721,98.71,98.71,0,0,1-8.765,10.551,2.819,2.819,0,0,1-1.331.932,2.085,2.085,0,0,1-1.882-.817c-.488-.545-.834-1.218-1.3-1.784a6.548,6.548,0,0,0-4.143-2.134,26.706,26.706,0,0,0-4.694-.069,1.359,1.359,0,0,1-1.549-.848c-1.834-3.325-1.244-7.5-.6-11.294l1.485-8.707a20.546,20.546,0,0,1,1.236-4.839c.563-1.28,1.82-3.452,3.367-3.069S893.773,326.888,895.085,327.893Z" transform="translate(-448.037 -218.893)"/><ellipse class="f" cx="22.592" cy="24.108" rx="22.592" ry="24.108" transform="translate(152.61 117.958)"/><path class="m" d="M389.231,338.851c-14.912,0-27,12.876-27,28.76s12.089,28.76,27,28.76,27-12.876,27-28.76C416.187,351.747,404.124,338.9,389.231,338.851Zm-5.543,44.094L369.85,368.205l3.881-4.134L383.7,374.69l21.042-22.413,3.881,4.134-24.936,26.534Z" transform="translate(-214.028 -225.001)"/><g transform="translate(388.897 128.759) rotate(-7)"><g transform="translate(7.386 20.19)"><path class="f" d="M.061,2.717l0-1.491C.057.458.5.018,1.03.02c.511,0,.91.389.911,1.09v.254H1.457V1.177c0-.329-.166-.541-.426-.542S.6.862.6,1.234l0,1.453c0,.424.174.627.441.627.248,0,.417-.2.416-.525V2.583h.485v.255c0,.711-.4,1.092-.9,1.091C.51,3.928.062,3.561.061,2.717Z" transform="translate(0.006 0.257)"/><path class="f" d="M.868.027h.654l.784,3.79H1.765L1.586,2.91l-.834,0-.171.907h-.5Zm.6,2.3L1.174.765H1.162l-.3,1.564Z" transform="translate(2.052 0.311)"/><path class="f" d="M.728.645l-.714,0V.033l1.962,0v.61l-.71,0,.005,3.173H.734L.729.645Z" transform="translate(4.281 0.314)"/><path class="c" d="M.078.014l.77,0c.5,0,.771.426.772,1.063,0,.562-.2.987-.607,1.054L1.708,3.8H1.46L.8,2.18H.3l0,1.618H.084ZM.792,1.931c.406,0,.608-.275.607-.832C1.4.622,1.228.277.815.276H.3L.3,1.93Z" transform="translate(7.236 0.339)"/><path class="c" d="M.042,1.858V1.02C.039.367.32.013.708.013s.621.357.622.94v.51l-1.075,0v.408c0,.478.17.7.5.7a.745.745,0,0,0,.473-.2l.076.2a.744.744,0,0,1-.574.253C.322,2.824.043,2.532.042,1.858ZM1.13,1.24V.921c0-.329-.107-.674-.445-.675C.377.246.254.6.254.93v.308l.876,0Z" transform="translate(9.256 1.38)"/><path class="c" d="M.073,3.273.068,0h.21L.283,3.236c0,.186.061.313.23.314a.854.854,0,0,0,.169-.021v.239a.492.492,0,0,1-.233.053C.213,3.82.074,3.623.073,3.273Z" transform="translate(10.998 0.357)"/><path class="c" d="M.042,1.863V.977C.039.362.31.012.693.013s.658.336.659.956V1.85c0,.647-.265.975-.652.975C.3,2.824.043,2.484.042,1.863Zm1.1-.014,0-.9c0-.382-.129-.7-.452-.7S.25.579.251.972v.881c0,.446.133.722.456.722S1.144,2.253,1.143,1.849Z" transform="translate(11.963 1.387)"/><path class="c" d="M.046,2.055c0-.621.37-.837.675-.842h.391V.72c0-.34-.159-.483-.4-.483A.41.41,0,0,0,.3.682V.846H.108V.676A.605.605,0,0,1,.741.014c.323,0,.583.208.583.686l0,1.374c0,.2.016.546.02.689h-.2l-.016-.446H1.128a.611.611,0,0,1-.563.5C.291,2.82.047,2.565.046,2.055Zm1.067-.173V1.426H.759c-.226,0-.5.105-.5.588,0,.393.178.574.365.574C.892,2.588,1.113,2.291,1.113,1.883Z" transform="translate(13.665 1.389)"/><path class="c" d="M.069,3.11l0-1.22c0-.552.273-.833.562-.832a.559.559,0,0,1,.5.479h0l0-1.512H1.35l.006,3.783H1.168L1.16,3.3H1.149c-.127.424-.36.567-.555.566C.247,3.869.07,3.53.069,3.11Zm1.074-.347V2.1c0-.456-.238-.818-.479-.818-.207,0-.387.153-.386.609l0,1.172c0,.334.11.557.377.558S1.144,3.293,1.143,2.763Z" transform="translate(15.399 0.348)"/><path class="c" d="M.042,1.858V1.02C.039.367.32.013.708.013s.621.357.622.94v.51l-1.075,0v.408c0,.478.17.7.5.7a.744.744,0,0,0,.473-.2l.076.2a.744.744,0,0,1-.574.253C.321,2.824.043,2.532.042,1.858ZM1.13,1.24V.921c0-.329-.107-.674-.445-.675C.377.246.254.6.254.93v.308l.876,0Z" transform="translate(17.21 1.398)"/><path class="c" d="M.069,3.11l0-1.22c0-.552.273-.833.562-.832a.559.559,0,0,1,.5.479h0l0-1.512h.214l.006,3.783H1.168l-.008-.5H1.148c-.127.424-.36.567-.555.566C.247,3.869.07,3.53.069,3.11Zm1.074-.347V2.1c0-.456-.238-.818-.479-.818-.207,0-.387.153-.386.609l0,1.172c0,.334.11.557.377.558C.908,3.622,1.144,3.293,1.143,2.763Z" transform="translate(18.88 0.356)"/></g><g transform="translate(0 0)"><path class="c" d="M5.617.106C3.846.1,2.5,2.212,1.945,3.321a15.415,15.415,0,0,0-1.7,7.609C.371,17.369,3.263,21.3,5.6,22l0-1.815c-2.747-1-4.235-5.743-4.232-9.5A13.736,13.736,0,0,1,2.849,4.5c.523-.942,1.479-2.376,2.784-2.661Zm1.218,2.4a3.087,3.087,0,0,0-1.614.437A7.414,7.414,0,0,0,2.339,7.494a14.784,14.784,0,0,0,.623,8.746c1.511,2.979,3.7,3.9,5.51,2.676a8.183,8.183,0,0,0,1-.791L8.934,16.6a6.97,6.97,0,0,1-.891.708c-3.342,1.678-6.136-4-4.7-9.015a6.191,6.191,0,0,1,2.216-3.6,2.574,2.574,0,0,1,3.309.727,9.412,9.412,0,0,1,1.648,7.686c-.141.587-.456,1.009-.841,1.058,0-.623-.014-1.54-.012-2.287a13.091,13.091,0,0,0-.182-2.5C9.09,7.134,7.845,6.164,6.809,6.19c-1.252.048-1.721.779-2.247,2-1.031,2.572-.524,5.564.717,6.972a2.027,2.027,0,0,0,2.075.746A2.248,2.248,0,0,0,8,15.589c.184-.137.427-.317.339-.325l0-1.938a5.732,5.732,0,0,1-.723.631,1.478,1.478,0,0,1-.44.222,1.362,1.362,0,0,1-1.368-.6c-1.375-1.5-.832-5.57.991-5.688.788.149,1.32.709,1.594,2.077a10.366,10.366,0,0,1,.15,1.964c-.007,1.247,0,2.987,0,2.987l.017,1.021h.431a5.559,5.559,0,0,0,.57,0,1.9,1.9,0,0,0,.506-.117,1.242,1.242,0,0,0,.563-.45,4.276,4.276,0,0,0,.72-1.546,12.269,12.269,0,0,0,.279-3.546,10.437,10.437,0,0,0-2.178-6.4A3.863,3.863,0,0,0,6.836,2.508Z"/><path class="f" d="M11.56.218c-.476,0-.954.484-1.193,1.421C9.794,3.891,9.644,4.4,9.053,6.834c-.4,1.628-.616,2.424-1.125,4.462-.154.619-.916,3.633-.916,3.633l1.908.019c.458-1.843.5-1.982.65-2.638.382-1.331.609-2.412,1.025-4,.33-1.256.5-1.988.639-2.512.153-.582.162-.845.345-.857.129-.008.264.717.614,2.023.207.772.58,2.238.714,2.757.127.491.205.908.306,1.2a7.293,7.293,0,0,1,.22.793c.024.141-.328.055-.772.06-.842.01-2.055-.009-2.055-.009l-.8,3.168c2.319.072,4.023-.1,6.327.031-1.046-4.158-3.006-11.75-3.1-12.138s-.229-.863-.289-1.121C12.511.7,12.036.218,11.56.218ZM2.391.437s-.66.116-.809.312C.937,1.267.4,2.283.205,6.038A31.145,31.145,0,0,0,.5,12.168c.277,1.411.944,2.713,1.518,2.734l4.36.01.744-3.184s-2.991.054-4.419.044c-.849-.006-.689-3.429-.724-5.438,0,0,.067-2.691.567-2.673,1.583.058,6.385-.007,6.385-.007L9.816.516,2.391.437ZM13.254.506c0,.081.872,3.18.846,3.188.939.011,1.92-.063,2.955.006l.017,11.23,1.749.015L18.806,3.672l3.051,0c.014-1.515-.011-2.291-.005-3.13C18.91.516,16.357.516,13.254.506Z" transform="translate(12.933 3.507)"/></g></g><g transform="translate(235.213 232.277)"><g transform="translate(0.243 0.106)"><path class="c" d="M23.96.106a25.62,25.62,0,0,0-16.2,6.132C3.274,10.028.218,14.151.243,20.75.809,33.031,13.571,40.526,23.9,41.858L23.891,38.4C11.77,36.481,5.2,27.444,5.214,20.27c.1-5.639,4.519-10.342,6.53-11.779A23.733,23.733,0,0,1,24.03,3.416Zm5.377,4.582a28.527,28.527,0,0,0-7.123.833C15.991,7.145,11.521,10.636,9.495,14.2c-2.9,5.034-2.162,11.861,2.75,16.681a26.861,26.861,0,0,0,24.316,5.1c2.52-.722,4.429-1.508,4.429-1.508L38.6,31.568a39.527,39.527,0,0,1-3.93,1.351C19.917,36.119,7.588,25.281,13.9,15.725c1.168-2.151,4.374-5.347,9.781-6.868,1.869-.526,9.224-1.538,14.6,1.387,5.289,2.568,10.546,8.79,7.273,14.658a4.451,4.451,0,0,1-3.709,2.019c.013-1.188-.062-2.938-.054-4.362A11.341,11.341,0,0,0,41,17.8c-1.713-4.286-7.206-6.135-11.775-6.087-5.526.091-7.593,1.486-9.915,3.809-4.551,4.905-2.312,10.613,3.163,13.3a16.941,16.941,0,0,0,9.157,1.422,17.626,17.626,0,0,0,2.866-.6c.811-.26,1.885-.6,1.5-.62l-.014-3.7a30.718,30.718,0,0,1-3.189,1.2,11.584,11.584,0,0,1-1.942.423A10.585,10.585,0,0,1,24.8,25.8c-6.07-2.862-3.67-10.623,4.374-10.849,3.477.284,5.825,1.352,7.033,3.962a9.007,9.007,0,0,1,.662,3.745c-.031,2.378,0,5.7,0,5.7l.074,1.947,1.9,0s1.136.029,2.516,0a18.146,18.146,0,0,0,2.232-.223,7.2,7.2,0,0,0,2.483-.859,8.683,8.683,0,0,0,3.177-2.948,10.824,10.824,0,0,0,1.233-6.763c-.516-5.7-4.372-9.269-9.612-12.206A29.036,29.036,0,0,0,29.337,4.688Z" transform="translate(-0.243 -0.106)"/></g></g></g></svg>