<svg xmlns="http://www.w3.org/2000/svg" width="36.57" height="33.36" viewBox="0 0 36.57 33.36"><defs><style>.a{fill:#cacaca;}</style></defs><path class="a" d="M32.811,56.4c.023.365.023.73.023,1.095,0,11.129-7.541,23.952-21.325,23.952A19.532,19.532,0,0,1,0,77.663a13.822,13.822,0,0,0,1.81.1,14,14,0,0,0,9.305-3.6,7.675,7.675,0,0,1-7.008-5.838,8.44,8.44,0,0,0,1.416.13A7.11,7.11,0,0,0,7.5,68.176c-3.434-.782-6.01-4.17-6.01-8.262v-.1a6.936,6.936,0,0,0,3.388,1.069,8.725,8.725,0,0,1-3.341-7.011A9.154,9.154,0,0,1,2.552,49.62a20.637,20.637,0,0,0,15.454,8.809,10.63,10.63,0,0,1-.186-1.929c0-4.639,3.341-8.418,7.5-8.418a7.122,7.122,0,0,1,5.476,2.658,13.815,13.815,0,0,0,4.757-2.033,8.292,8.292,0,0,1-3.3,4.639,13.75,13.75,0,0,0,4.316-1.3A17.335,17.335,0,0,1,32.811,56.4Z" transform="translate(0 -48.082)"/></svg>