<svg xmlns="http://www.w3.org/2000/svg" width="140" height="105.5" viewBox="0 0 140 105.5"><defs><style>.a{fill:#c2341c;}</style></defs><path class="a" d="M21,77.214c7.722,0,14-6.759,14-15.071S28.722,47.071,21,47.071,7,53.83,7,62.143,13.278,77.214,21,77.214Zm98,0c7.722,0,14-6.759,14-15.071s-6.278-15.071-14-15.071-14,6.759-14,15.071S111.278,77.214,119,77.214Zm7,7.536H112a13.476,13.476,0,0,0-9.866,4.38,34.545,34.545,0,0,1,16.428,25.763H133a7.275,7.275,0,0,0,7-7.536V99.821C140,91.509,133.722,84.75,126,84.75Zm-56,0c13.541,0,24.5-11.8,24.5-26.375S83.541,32,70,32,45.5,43.8,45.5,58.375,56.459,84.75,70,84.75Zm16.8,7.536H84.984a31.68,31.68,0,0,1-29.969,0H53.2c-13.912,0-25.2,12.151-25.2,27.129V126.2c0,6.241,4.7,11.3,10.5,11.3h63c5.8,0,10.5-5.063,10.5-11.3v-6.782C112,104.437,100.713,92.286,86.8,92.286ZM37.866,89.13A13.476,13.476,0,0,0,28,84.75H14c-7.722,0-14,6.759-14,15.071v7.536a7.275,7.275,0,0,0,7,7.536H21.416A34.628,34.628,0,0,1,37.866,89.13Z" transform="translate(0 -32)"/></svg>