<svg xmlns="http://www.w3.org/2000/svg" width="49.327" height="33.361" viewBox="0 0 49.327 33.361"><defs><style>.a{fill:#fff;}</style></defs><path class="a" d="M63.229,69.22A6.083,6.083,0,0,0,58.868,65C55.021,64,39.6,64,39.6,64s-15.425,0-19.272,1a6.083,6.083,0,0,0-4.361,4.222c-1.031,3.724-1.031,11.494-1.031,11.494s0,7.77,1.031,11.494a6,6,0,0,0,4.361,4.155c3.847,1,19.272,1,19.272,1s15.425,0,19.272-1a6,6,0,0,0,4.361-4.155c1.031-3.724,1.031-11.494,1.031-11.494S64.26,72.944,63.229,69.22ZM34.552,87.769V73.66l12.892,7.055L34.552,87.769Z" transform="translate(-14.933 -64)"/></svg>